G75*
%MOIN*%
%OFA0B0*%
%FSLAX25Y25*%
%IPPOS*%
%LPD*%
%AMOC8*
5,1,8,0,0,1.08239X$1,22.5*
%
%ADD10C,0.07400*%
%ADD11R,0.08000X0.08000*%
%ADD12C,0.08000*%
%ADD13C,0.16598*%
%ADD14C,0.16200*%
%ADD15C,0.10925*%
%ADD16R,0.07400X0.07400*%
%ADD17C,0.01600*%
%ADD18C,0.01000*%
%ADD19C,0.03762*%
%ADD20C,0.02400*%
%ADD21C,0.00800*%
D10*
X0038622Y0064060D03*
X0048622Y0064060D03*
X0058622Y0064060D03*
X0073622Y0088560D03*
X0073622Y0098560D03*
X0073622Y0108560D03*
X0073622Y0118560D03*
X0073622Y0128560D03*
X0073622Y0138560D03*
X0073622Y0148560D03*
X0073622Y0158560D03*
X0073622Y0168560D03*
X0073622Y0178560D03*
X0073622Y0188560D03*
X0073622Y0198560D03*
X0073622Y0208560D03*
X0073622Y0218560D03*
X0073622Y0228560D03*
X0073622Y0238560D03*
X0073622Y0248560D03*
X0073622Y0258560D03*
X0073622Y0268560D03*
X0073622Y0278560D03*
X0063622Y0278560D03*
X0063622Y0268560D03*
X0063622Y0258560D03*
X0063622Y0248560D03*
X0063622Y0238560D03*
X0063622Y0228560D03*
X0063622Y0218560D03*
X0063622Y0208560D03*
X0063622Y0198560D03*
X0063622Y0188560D03*
X0063622Y0178560D03*
X0063622Y0168560D03*
X0063622Y0158560D03*
X0063622Y0148560D03*
X0063622Y0138560D03*
X0063622Y0128560D03*
X0063622Y0118560D03*
X0053622Y0118560D03*
X0053622Y0128560D03*
X0053622Y0138560D03*
X0053622Y0148560D03*
X0053622Y0158560D03*
X0053622Y0168560D03*
X0053622Y0178560D03*
X0053622Y0188560D03*
X0053622Y0198560D03*
X0053622Y0208560D03*
X0053622Y0218560D03*
X0053622Y0228560D03*
X0053622Y0238560D03*
X0053622Y0248560D03*
X0053622Y0258560D03*
X0053622Y0268560D03*
X0053622Y0278560D03*
X0033622Y0278560D03*
X0033622Y0268560D03*
X0033622Y0258560D03*
X0033622Y0248560D03*
X0033622Y0238560D03*
X0033622Y0228560D03*
X0033622Y0218560D03*
X0033622Y0208560D03*
X0033622Y0198560D03*
X0033622Y0188560D03*
X0033622Y0178560D03*
X0033622Y0168560D03*
X0033622Y0158560D03*
X0033622Y0148560D03*
X0033622Y0138560D03*
X0033622Y0128560D03*
X0033622Y0118560D03*
X0033622Y0108560D03*
X0033622Y0098560D03*
X0033622Y0088560D03*
X0023622Y0088560D03*
X0023622Y0098560D03*
X0023622Y0108560D03*
X0023622Y0118560D03*
X0023622Y0128560D03*
X0023622Y0138560D03*
X0023622Y0148560D03*
X0023622Y0158560D03*
X0023622Y0168560D03*
X0023622Y0178560D03*
X0023622Y0188560D03*
X0023622Y0198560D03*
X0023622Y0208560D03*
X0023622Y0218560D03*
X0023622Y0228560D03*
X0023622Y0238560D03*
X0023622Y0248560D03*
X0023622Y0258560D03*
X0023622Y0268560D03*
X0023622Y0278560D03*
X0083622Y0278560D03*
X0083622Y0268560D03*
X0083622Y0258560D03*
X0083622Y0248560D03*
X0083622Y0238560D03*
X0083622Y0228560D03*
X0083622Y0218560D03*
X0083622Y0208560D03*
X0083622Y0198560D03*
X0083622Y0188560D03*
X0083622Y0178560D03*
X0083622Y0168560D03*
X0083622Y0158560D03*
X0083622Y0148560D03*
X0083622Y0138560D03*
X0083622Y0128560D03*
X0083622Y0118560D03*
X0083622Y0108560D03*
X0083622Y0098560D03*
X0083622Y0088560D03*
D11*
X0073622Y0020060D03*
D12*
X0059843Y0020060D03*
X0046063Y0020060D03*
X0032283Y0020060D03*
D13*
X0071122Y0293923D03*
D14*
X0071022Y0322745D03*
X0056313Y0306434D03*
D15*
X0033622Y0305056D03*
X0033622Y0323560D03*
X0033622Y0342064D03*
D16*
X0068622Y0064060D03*
D17*
X0073622Y0088560D02*
X0083622Y0088560D01*
X0083622Y0108560D02*
X0073622Y0108560D01*
X0073622Y0118560D02*
X0083622Y0118560D01*
X0083622Y0128560D02*
X0073622Y0128560D01*
X0073622Y0138560D02*
X0083622Y0138560D01*
X0083622Y0148560D02*
X0073622Y0148560D01*
X0073622Y0158560D02*
X0083622Y0158560D01*
X0083622Y0168560D02*
X0073622Y0168560D01*
X0073622Y0178560D02*
X0083622Y0178560D01*
X0083622Y0188560D02*
X0073622Y0188560D01*
X0073622Y0198560D02*
X0083622Y0198560D01*
X0083622Y0208560D02*
X0073622Y0208560D01*
X0073622Y0218560D02*
X0083622Y0218560D01*
X0083622Y0228560D02*
X0073622Y0228560D01*
X0073622Y0238560D02*
X0083622Y0238560D01*
X0083622Y0248560D02*
X0073622Y0248560D01*
X0073622Y0258560D02*
X0083622Y0258560D01*
X0083622Y0268560D02*
X0073622Y0268560D01*
X0073622Y0278560D02*
X0083622Y0278560D01*
X0033622Y0278560D02*
X0023622Y0278560D01*
X0023622Y0268560D02*
X0033622Y0268560D01*
X0033622Y0258560D02*
X0023622Y0258560D01*
X0023622Y0248560D02*
X0033622Y0248560D01*
X0033622Y0238560D02*
X0023622Y0238560D01*
X0023622Y0228560D02*
X0033622Y0228560D01*
X0033622Y0218560D02*
X0023622Y0218560D01*
X0023622Y0208560D02*
X0033622Y0208560D01*
X0033622Y0198560D02*
X0023622Y0198560D01*
X0023622Y0188560D02*
X0033622Y0188560D01*
X0033622Y0178560D02*
X0023622Y0178560D01*
X0023622Y0168560D02*
X0033622Y0168560D01*
X0033622Y0158560D02*
X0023622Y0158560D01*
X0023622Y0148560D02*
X0033622Y0148560D01*
X0033622Y0138560D02*
X0023622Y0138560D01*
X0023622Y0128560D02*
X0033622Y0128560D01*
X0033622Y0118560D02*
X0023622Y0118560D01*
X0023622Y0108560D02*
X0033622Y0108560D01*
X0033622Y0088560D02*
X0023622Y0088560D01*
X0033622Y0088560D02*
X0043622Y0088560D01*
D18*
X0020622Y0084772D02*
X0020622Y0010560D01*
X0086622Y0010560D01*
X0086622Y0084772D01*
X0086341Y0084491D01*
X0084577Y0083760D01*
X0082667Y0083760D01*
X0080903Y0084491D01*
X0079553Y0085841D01*
X0079214Y0086660D01*
X0078031Y0086660D01*
X0077691Y0085841D01*
X0076341Y0084491D01*
X0074577Y0083760D01*
X0072667Y0083760D01*
X0070903Y0084491D01*
X0069553Y0085841D01*
X0068822Y0087605D01*
X0068822Y0089515D01*
X0069553Y0091279D01*
X0070903Y0092629D01*
X0072667Y0093360D01*
X0074577Y0093360D01*
X0076341Y0092629D01*
X0077691Y0091279D01*
X0078031Y0090460D01*
X0079214Y0090460D01*
X0079553Y0091279D01*
X0080903Y0092629D01*
X0082667Y0093360D01*
X0084577Y0093360D01*
X0086341Y0092629D01*
X0086622Y0092348D01*
X0086622Y0094312D01*
X0086347Y0094113D01*
X0085618Y0093741D01*
X0084840Y0093488D01*
X0084122Y0093374D01*
X0084122Y0098060D01*
X0083122Y0098060D01*
X0074122Y0098060D01*
X0074122Y0093374D01*
X0074840Y0093488D01*
X0075618Y0093741D01*
X0076347Y0094113D01*
X0077010Y0094594D01*
X0077588Y0095172D01*
X0078069Y0095835D01*
X0078441Y0096564D01*
X0078622Y0097121D01*
X0078803Y0096564D01*
X0079175Y0095835D01*
X0079656Y0095172D01*
X0080234Y0094594D01*
X0080897Y0094113D01*
X0081626Y0093741D01*
X0082404Y0093488D01*
X0083122Y0093374D01*
X0083122Y0098060D01*
X0083122Y0099060D01*
X0078436Y0099060D01*
X0074122Y0099060D01*
X0073122Y0099060D01*
X0073122Y0098060D01*
X0068436Y0098060D01*
X0068550Y0097342D01*
X0068803Y0096564D01*
X0069175Y0095835D01*
X0069656Y0095172D01*
X0070234Y0094594D01*
X0070897Y0094113D01*
X0071626Y0093741D01*
X0072404Y0093488D01*
X0073122Y0093374D01*
X0073122Y0098060D01*
X0074122Y0098060D01*
X0074122Y0099060D01*
X0074122Y0103746D01*
X0074840Y0103632D01*
X0075618Y0103379D01*
X0076347Y0103007D01*
X0077010Y0102526D01*
X0077588Y0101948D01*
X0078069Y0101285D01*
X0078441Y0100556D01*
X0078622Y0099999D01*
X0078803Y0100556D01*
X0079175Y0101285D01*
X0079656Y0101948D01*
X0080234Y0102526D01*
X0080897Y0103007D01*
X0081626Y0103379D01*
X0082404Y0103632D01*
X0083122Y0103746D01*
X0083122Y0099060D01*
X0084122Y0099060D01*
X0084122Y0103746D01*
X0084840Y0103632D01*
X0085618Y0103379D01*
X0086347Y0103007D01*
X0086622Y0102808D01*
X0086622Y0104772D01*
X0086341Y0104491D01*
X0084577Y0103760D01*
X0082667Y0103760D01*
X0080903Y0104491D01*
X0079553Y0105841D01*
X0079214Y0106660D01*
X0078031Y0106660D01*
X0077691Y0105841D01*
X0076341Y0104491D01*
X0074577Y0103760D01*
X0072667Y0103760D01*
X0070903Y0104491D01*
X0069553Y0105841D01*
X0068822Y0107605D01*
X0068822Y0109515D01*
X0069553Y0111279D01*
X0070903Y0112629D01*
X0072667Y0113360D01*
X0074577Y0113360D01*
X0076341Y0112629D01*
X0077691Y0111279D01*
X0078031Y0110460D01*
X0079214Y0110460D01*
X0079553Y0111279D01*
X0080903Y0112629D01*
X0082667Y0113360D01*
X0084577Y0113360D01*
X0086341Y0112629D01*
X0086622Y0112348D01*
X0086622Y0114772D01*
X0086341Y0114491D01*
X0084577Y0113760D01*
X0082667Y0113760D01*
X0080903Y0114491D01*
X0079553Y0115841D01*
X0079214Y0116660D01*
X0078031Y0116660D01*
X0077691Y0115841D01*
X0076341Y0114491D01*
X0074577Y0113760D01*
X0072667Y0113760D01*
X0070903Y0114491D01*
X0069553Y0115841D01*
X0068822Y0117605D01*
X0068822Y0119515D01*
X0069553Y0121279D01*
X0070903Y0122629D01*
X0072667Y0123360D01*
X0074577Y0123360D01*
X0076341Y0122629D01*
X0077691Y0121279D01*
X0078031Y0120460D01*
X0079214Y0120460D01*
X0079553Y0121279D01*
X0080903Y0122629D01*
X0082667Y0123360D01*
X0084577Y0123360D01*
X0086341Y0122629D01*
X0086622Y0122348D01*
X0086622Y0124772D01*
X0086341Y0124491D01*
X0084577Y0123760D01*
X0082667Y0123760D01*
X0080903Y0124491D01*
X0079553Y0125841D01*
X0079214Y0126660D01*
X0078031Y0126660D01*
X0077691Y0125841D01*
X0076341Y0124491D01*
X0074577Y0123760D01*
X0072667Y0123760D01*
X0070903Y0124491D01*
X0069553Y0125841D01*
X0068822Y0127605D01*
X0068822Y0129515D01*
X0069553Y0131279D01*
X0070903Y0132629D01*
X0072667Y0133360D01*
X0074577Y0133360D01*
X0076341Y0132629D01*
X0077691Y0131279D01*
X0078031Y0130460D01*
X0079214Y0130460D01*
X0079553Y0131279D01*
X0080903Y0132629D01*
X0082667Y0133360D01*
X0084577Y0133360D01*
X0086341Y0132629D01*
X0086622Y0132348D01*
X0086622Y0134772D01*
X0086341Y0134491D01*
X0084577Y0133760D01*
X0082667Y0133760D01*
X0080903Y0134491D01*
X0079553Y0135841D01*
X0079214Y0136660D01*
X0078031Y0136660D01*
X0077691Y0135841D01*
X0076341Y0134491D01*
X0074577Y0133760D01*
X0072667Y0133760D01*
X0070903Y0134491D01*
X0069553Y0135841D01*
X0068822Y0137605D01*
X0068822Y0139515D01*
X0069553Y0141279D01*
X0070903Y0142629D01*
X0072667Y0143360D01*
X0074577Y0143360D01*
X0076341Y0142629D01*
X0077691Y0141279D01*
X0078031Y0140460D01*
X0079214Y0140460D01*
X0079553Y0141279D01*
X0080903Y0142629D01*
X0082667Y0143360D01*
X0084577Y0143360D01*
X0086341Y0142629D01*
X0086622Y0142348D01*
X0086622Y0144772D01*
X0086341Y0144491D01*
X0084577Y0143760D01*
X0082667Y0143760D01*
X0080903Y0144491D01*
X0079553Y0145841D01*
X0079214Y0146660D01*
X0078031Y0146660D01*
X0077691Y0145841D01*
X0076341Y0144491D01*
X0074577Y0143760D01*
X0072667Y0143760D01*
X0070903Y0144491D01*
X0069553Y0145841D01*
X0068822Y0147605D01*
X0068822Y0149515D01*
X0069553Y0151279D01*
X0070903Y0152629D01*
X0072667Y0153360D01*
X0074577Y0153360D01*
X0076341Y0152629D01*
X0077691Y0151279D01*
X0078031Y0150460D01*
X0079214Y0150460D01*
X0079553Y0151279D01*
X0080903Y0152629D01*
X0082667Y0153360D01*
X0084577Y0153360D01*
X0086341Y0152629D01*
X0086622Y0152348D01*
X0086622Y0154772D01*
X0086341Y0154491D01*
X0084577Y0153760D01*
X0082667Y0153760D01*
X0080903Y0154491D01*
X0079553Y0155841D01*
X0079214Y0156660D01*
X0078031Y0156660D01*
X0077691Y0155841D01*
X0076341Y0154491D01*
X0074577Y0153760D01*
X0072667Y0153760D01*
X0070903Y0154491D01*
X0069553Y0155841D01*
X0068822Y0157605D01*
X0068822Y0159515D01*
X0069553Y0161279D01*
X0070903Y0162629D01*
X0072667Y0163360D01*
X0074577Y0163360D01*
X0076341Y0162629D01*
X0077691Y0161279D01*
X0078031Y0160460D01*
X0079214Y0160460D01*
X0079553Y0161279D01*
X0080903Y0162629D01*
X0082667Y0163360D01*
X0084577Y0163360D01*
X0086341Y0162629D01*
X0086622Y0162348D01*
X0086622Y0164772D01*
X0086341Y0164491D01*
X0084577Y0163760D01*
X0082667Y0163760D01*
X0080903Y0164491D01*
X0079553Y0165841D01*
X0079214Y0166660D01*
X0078031Y0166660D01*
X0077691Y0165841D01*
X0076341Y0164491D01*
X0074577Y0163760D01*
X0072667Y0163760D01*
X0070903Y0164491D01*
X0069553Y0165841D01*
X0068822Y0167605D01*
X0068822Y0169515D01*
X0069553Y0171279D01*
X0070903Y0172629D01*
X0072667Y0173360D01*
X0074577Y0173360D01*
X0076341Y0172629D01*
X0077691Y0171279D01*
X0078031Y0170460D01*
X0079214Y0170460D01*
X0079553Y0171279D01*
X0080903Y0172629D01*
X0082667Y0173360D01*
X0084577Y0173360D01*
X0086341Y0172629D01*
X0086622Y0172348D01*
X0086622Y0174772D01*
X0086341Y0174491D01*
X0084577Y0173760D01*
X0082667Y0173760D01*
X0080903Y0174491D01*
X0079553Y0175841D01*
X0079214Y0176660D01*
X0078031Y0176660D01*
X0077691Y0175841D01*
X0076341Y0174491D01*
X0074577Y0173760D01*
X0072667Y0173760D01*
X0070903Y0174491D01*
X0069553Y0175841D01*
X0068822Y0177605D01*
X0068822Y0179515D01*
X0069553Y0181279D01*
X0070903Y0182629D01*
X0072667Y0183360D01*
X0074577Y0183360D01*
X0076341Y0182629D01*
X0077691Y0181279D01*
X0078031Y0180460D01*
X0079214Y0180460D01*
X0079553Y0181279D01*
X0080903Y0182629D01*
X0082667Y0183360D01*
X0084577Y0183360D01*
X0086341Y0182629D01*
X0086622Y0182348D01*
X0086622Y0184772D01*
X0086341Y0184491D01*
X0084577Y0183760D01*
X0082667Y0183760D01*
X0080903Y0184491D01*
X0079553Y0185841D01*
X0079214Y0186660D01*
X0078031Y0186660D01*
X0077691Y0185841D01*
X0076341Y0184491D01*
X0074577Y0183760D01*
X0072667Y0183760D01*
X0070903Y0184491D01*
X0069553Y0185841D01*
X0068822Y0187605D01*
X0068822Y0189515D01*
X0069553Y0191279D01*
X0070903Y0192629D01*
X0072667Y0193360D01*
X0074577Y0193360D01*
X0076341Y0192629D01*
X0077691Y0191279D01*
X0078031Y0190460D01*
X0079214Y0190460D01*
X0079553Y0191279D01*
X0080903Y0192629D01*
X0082667Y0193360D01*
X0084577Y0193360D01*
X0086341Y0192629D01*
X0086622Y0192348D01*
X0086622Y0194772D01*
X0086341Y0194491D01*
X0084577Y0193760D01*
X0082667Y0193760D01*
X0080903Y0194491D01*
X0079553Y0195841D01*
X0079214Y0196660D01*
X0078031Y0196660D01*
X0077691Y0195841D01*
X0076341Y0194491D01*
X0074577Y0193760D01*
X0072667Y0193760D01*
X0070903Y0194491D01*
X0069553Y0195841D01*
X0068822Y0197605D01*
X0068822Y0199515D01*
X0069553Y0201279D01*
X0070903Y0202629D01*
X0072667Y0203360D01*
X0074577Y0203360D01*
X0076341Y0202629D01*
X0077691Y0201279D01*
X0078031Y0200460D01*
X0079214Y0200460D01*
X0079553Y0201279D01*
X0080903Y0202629D01*
X0082667Y0203360D01*
X0084577Y0203360D01*
X0086341Y0202629D01*
X0086622Y0202348D01*
X0086622Y0204772D01*
X0086341Y0204491D01*
X0084577Y0203760D01*
X0082667Y0203760D01*
X0080903Y0204491D01*
X0079553Y0205841D01*
X0079214Y0206660D01*
X0078031Y0206660D01*
X0077691Y0205841D01*
X0076341Y0204491D01*
X0074577Y0203760D01*
X0072667Y0203760D01*
X0070903Y0204491D01*
X0069553Y0205841D01*
X0068822Y0207605D01*
X0068822Y0209515D01*
X0069553Y0211279D01*
X0070903Y0212629D01*
X0072667Y0213360D01*
X0074577Y0213360D01*
X0076341Y0212629D01*
X0077691Y0211279D01*
X0078031Y0210460D01*
X0079214Y0210460D01*
X0079553Y0211279D01*
X0080903Y0212629D01*
X0082667Y0213360D01*
X0084577Y0213360D01*
X0086341Y0212629D01*
X0086622Y0212348D01*
X0086622Y0214772D01*
X0086341Y0214491D01*
X0084577Y0213760D01*
X0082667Y0213760D01*
X0080903Y0214491D01*
X0079553Y0215841D01*
X0079214Y0216660D01*
X0078031Y0216660D01*
X0077691Y0215841D01*
X0076341Y0214491D01*
X0074577Y0213760D01*
X0072667Y0213760D01*
X0070903Y0214491D01*
X0069553Y0215841D01*
X0068822Y0217605D01*
X0068822Y0219515D01*
X0069553Y0221279D01*
X0070903Y0222629D01*
X0072667Y0223360D01*
X0074577Y0223360D01*
X0076341Y0222629D01*
X0077691Y0221279D01*
X0078031Y0220460D01*
X0079214Y0220460D01*
X0079553Y0221279D01*
X0080903Y0222629D01*
X0082667Y0223360D01*
X0084577Y0223360D01*
X0086341Y0222629D01*
X0086622Y0222348D01*
X0086622Y0224772D01*
X0086341Y0224491D01*
X0084577Y0223760D01*
X0082667Y0223760D01*
X0080903Y0224491D01*
X0079553Y0225841D01*
X0079214Y0226660D01*
X0078031Y0226660D01*
X0077691Y0225841D01*
X0076341Y0224491D01*
X0074577Y0223760D01*
X0072667Y0223760D01*
X0070903Y0224491D01*
X0069553Y0225841D01*
X0068822Y0227605D01*
X0068822Y0229515D01*
X0069553Y0231279D01*
X0070903Y0232629D01*
X0072667Y0233360D01*
X0074577Y0233360D01*
X0076341Y0232629D01*
X0077691Y0231279D01*
X0078031Y0230460D01*
X0079214Y0230460D01*
X0079553Y0231279D01*
X0080903Y0232629D01*
X0082667Y0233360D01*
X0084577Y0233360D01*
X0086341Y0232629D01*
X0086622Y0232348D01*
X0086622Y0234772D01*
X0086341Y0234491D01*
X0084577Y0233760D01*
X0082667Y0233760D01*
X0080903Y0234491D01*
X0079553Y0235841D01*
X0079214Y0236660D01*
X0078031Y0236660D01*
X0077691Y0235841D01*
X0076341Y0234491D01*
X0074577Y0233760D01*
X0072667Y0233760D01*
X0070903Y0234491D01*
X0069553Y0235841D01*
X0068822Y0237605D01*
X0068822Y0239515D01*
X0069553Y0241279D01*
X0070903Y0242629D01*
X0072667Y0243360D01*
X0074577Y0243360D01*
X0076341Y0242629D01*
X0077691Y0241279D01*
X0078031Y0240460D01*
X0079214Y0240460D01*
X0079553Y0241279D01*
X0080903Y0242629D01*
X0082667Y0243360D01*
X0084577Y0243360D01*
X0086341Y0242629D01*
X0086622Y0242348D01*
X0086622Y0244772D01*
X0086341Y0244491D01*
X0084577Y0243760D01*
X0082667Y0243760D01*
X0080903Y0244491D01*
X0079553Y0245841D01*
X0079214Y0246660D01*
X0078031Y0246660D01*
X0077691Y0245841D01*
X0076341Y0244491D01*
X0074577Y0243760D01*
X0072667Y0243760D01*
X0070903Y0244491D01*
X0069553Y0245841D01*
X0068822Y0247605D01*
X0068822Y0249515D01*
X0069553Y0251279D01*
X0070903Y0252629D01*
X0072667Y0253360D01*
X0074577Y0253360D01*
X0076341Y0252629D01*
X0077691Y0251279D01*
X0078031Y0250460D01*
X0079214Y0250460D01*
X0079553Y0251279D01*
X0080903Y0252629D01*
X0082667Y0253360D01*
X0084577Y0253360D01*
X0086341Y0252629D01*
X0086622Y0252348D01*
X0086622Y0254772D01*
X0086341Y0254491D01*
X0084577Y0253760D01*
X0082667Y0253760D01*
X0080903Y0254491D01*
X0079553Y0255841D01*
X0079214Y0256660D01*
X0078031Y0256660D01*
X0077691Y0255841D01*
X0076341Y0254491D01*
X0074577Y0253760D01*
X0072667Y0253760D01*
X0070903Y0254491D01*
X0069553Y0255841D01*
X0068822Y0257605D01*
X0068822Y0259515D01*
X0069553Y0261279D01*
X0070903Y0262629D01*
X0072667Y0263360D01*
X0074577Y0263360D01*
X0076341Y0262629D01*
X0077691Y0261279D01*
X0078031Y0260460D01*
X0079214Y0260460D01*
X0079553Y0261279D01*
X0080903Y0262629D01*
X0082667Y0263360D01*
X0084577Y0263360D01*
X0086341Y0262629D01*
X0086622Y0262348D01*
X0086622Y0264772D01*
X0086341Y0264491D01*
X0084577Y0263760D01*
X0082667Y0263760D01*
X0080903Y0264491D01*
X0079553Y0265841D01*
X0079214Y0266660D01*
X0078031Y0266660D01*
X0077691Y0265841D01*
X0076341Y0264491D01*
X0074577Y0263760D01*
X0072667Y0263760D01*
X0070903Y0264491D01*
X0069553Y0265841D01*
X0068822Y0267605D01*
X0068822Y0269515D01*
X0069553Y0271279D01*
X0070903Y0272629D01*
X0072667Y0273360D01*
X0074577Y0273360D01*
X0076341Y0272629D01*
X0077691Y0271279D01*
X0078031Y0270460D01*
X0079214Y0270460D01*
X0079553Y0271279D01*
X0080903Y0272629D01*
X0082667Y0273360D01*
X0084577Y0273360D01*
X0086341Y0272629D01*
X0086622Y0272348D01*
X0086622Y0274772D01*
X0086341Y0274491D01*
X0084577Y0273760D01*
X0082667Y0273760D01*
X0080903Y0274491D01*
X0079553Y0275841D01*
X0079214Y0276660D01*
X0078031Y0276660D01*
X0077691Y0275841D01*
X0076341Y0274491D01*
X0074577Y0273760D01*
X0072667Y0273760D01*
X0070903Y0274491D01*
X0069553Y0275841D01*
X0068822Y0277605D01*
X0068822Y0279515D01*
X0069553Y0281279D01*
X0070903Y0282629D01*
X0072667Y0283360D01*
X0074577Y0283360D01*
X0076341Y0282629D01*
X0077691Y0281279D01*
X0078031Y0280460D01*
X0079214Y0280460D01*
X0079553Y0281279D01*
X0080903Y0282629D01*
X0082667Y0283360D01*
X0084577Y0283360D01*
X0086341Y0282629D01*
X0086622Y0282348D01*
X0086622Y0346560D01*
X0038407Y0346560D01*
X0039186Y0345781D01*
X0040185Y0343369D01*
X0040185Y0340759D01*
X0039186Y0338347D01*
X0037339Y0336500D01*
X0034927Y0335501D01*
X0032317Y0335501D01*
X0029905Y0336500D01*
X0028059Y0338347D01*
X0027059Y0340759D01*
X0027059Y0343369D01*
X0028059Y0345781D01*
X0028837Y0346560D01*
X0020622Y0346560D01*
X0020622Y0282348D01*
X0020903Y0282629D01*
X0022667Y0283360D01*
X0024577Y0283360D01*
X0026341Y0282629D01*
X0027691Y0281279D01*
X0028031Y0280460D01*
X0029214Y0280460D01*
X0029553Y0281279D01*
X0030903Y0282629D01*
X0032667Y0283360D01*
X0034577Y0283360D01*
X0036341Y0282629D01*
X0037691Y0281279D01*
X0038422Y0279515D01*
X0038422Y0277605D01*
X0037691Y0275841D01*
X0036341Y0274491D01*
X0034577Y0273760D01*
X0032667Y0273760D01*
X0030903Y0274491D01*
X0029553Y0275841D01*
X0029214Y0276660D01*
X0028031Y0276660D01*
X0027691Y0275841D01*
X0026341Y0274491D01*
X0024577Y0273760D01*
X0022667Y0273760D01*
X0020903Y0274491D01*
X0020622Y0274772D01*
X0020622Y0272348D01*
X0020903Y0272629D01*
X0022667Y0273360D01*
X0024577Y0273360D01*
X0026341Y0272629D01*
X0027691Y0271279D01*
X0028031Y0270460D01*
X0029214Y0270460D01*
X0029553Y0271279D01*
X0030903Y0272629D01*
X0032667Y0273360D01*
X0034577Y0273360D01*
X0036341Y0272629D01*
X0037691Y0271279D01*
X0038422Y0269515D01*
X0038422Y0267605D01*
X0037691Y0265841D01*
X0036341Y0264491D01*
X0034577Y0263760D01*
X0032667Y0263760D01*
X0030903Y0264491D01*
X0029553Y0265841D01*
X0029214Y0266660D01*
X0028031Y0266660D01*
X0027691Y0265841D01*
X0026341Y0264491D01*
X0024577Y0263760D01*
X0022667Y0263760D01*
X0020903Y0264491D01*
X0020622Y0264772D01*
X0020622Y0262348D01*
X0020903Y0262629D01*
X0022667Y0263360D01*
X0024577Y0263360D01*
X0026341Y0262629D01*
X0027691Y0261279D01*
X0028031Y0260460D01*
X0029214Y0260460D01*
X0029553Y0261279D01*
X0030903Y0262629D01*
X0032667Y0263360D01*
X0034577Y0263360D01*
X0036341Y0262629D01*
X0037691Y0261279D01*
X0038422Y0259515D01*
X0038422Y0257605D01*
X0037691Y0255841D01*
X0036341Y0254491D01*
X0034577Y0253760D01*
X0032667Y0253760D01*
X0030903Y0254491D01*
X0029553Y0255841D01*
X0029214Y0256660D01*
X0028031Y0256660D01*
X0027691Y0255841D01*
X0026341Y0254491D01*
X0024577Y0253760D01*
X0022667Y0253760D01*
X0020903Y0254491D01*
X0020622Y0254772D01*
X0020622Y0252348D01*
X0020903Y0252629D01*
X0022667Y0253360D01*
X0024577Y0253360D01*
X0026341Y0252629D01*
X0027691Y0251279D01*
X0028031Y0250460D01*
X0029214Y0250460D01*
X0029553Y0251279D01*
X0030903Y0252629D01*
X0032667Y0253360D01*
X0034577Y0253360D01*
X0036341Y0252629D01*
X0037691Y0251279D01*
X0038422Y0249515D01*
X0038422Y0247605D01*
X0037691Y0245841D01*
X0036341Y0244491D01*
X0034577Y0243760D01*
X0032667Y0243760D01*
X0030903Y0244491D01*
X0029553Y0245841D01*
X0029214Y0246660D01*
X0028031Y0246660D01*
X0027691Y0245841D01*
X0026341Y0244491D01*
X0024577Y0243760D01*
X0022667Y0243760D01*
X0020903Y0244491D01*
X0020622Y0244772D01*
X0020622Y0242348D01*
X0020903Y0242629D01*
X0022667Y0243360D01*
X0024577Y0243360D01*
X0026341Y0242629D01*
X0027691Y0241279D01*
X0028031Y0240460D01*
X0029214Y0240460D01*
X0029553Y0241279D01*
X0030903Y0242629D01*
X0032667Y0243360D01*
X0034577Y0243360D01*
X0036341Y0242629D01*
X0037691Y0241279D01*
X0038422Y0239515D01*
X0038422Y0237605D01*
X0037691Y0235841D01*
X0036341Y0234491D01*
X0034577Y0233760D01*
X0032667Y0233760D01*
X0030903Y0234491D01*
X0029553Y0235841D01*
X0029214Y0236660D01*
X0028031Y0236660D01*
X0027691Y0235841D01*
X0026341Y0234491D01*
X0024577Y0233760D01*
X0022667Y0233760D01*
X0020903Y0234491D01*
X0020622Y0234772D01*
X0020622Y0232348D01*
X0020903Y0232629D01*
X0022667Y0233360D01*
X0024577Y0233360D01*
X0026341Y0232629D01*
X0027691Y0231279D01*
X0028031Y0230460D01*
X0029214Y0230460D01*
X0029553Y0231279D01*
X0030903Y0232629D01*
X0032667Y0233360D01*
X0034577Y0233360D01*
X0036341Y0232629D01*
X0037691Y0231279D01*
X0038422Y0229515D01*
X0038422Y0227605D01*
X0037691Y0225841D01*
X0036341Y0224491D01*
X0034577Y0223760D01*
X0032667Y0223760D01*
X0030903Y0224491D01*
X0029553Y0225841D01*
X0029214Y0226660D01*
X0028031Y0226660D01*
X0027691Y0225841D01*
X0026341Y0224491D01*
X0024577Y0223760D01*
X0022667Y0223760D01*
X0020903Y0224491D01*
X0020622Y0224772D01*
X0020622Y0222348D01*
X0020903Y0222629D01*
X0022667Y0223360D01*
X0024577Y0223360D01*
X0026341Y0222629D01*
X0027691Y0221279D01*
X0028031Y0220460D01*
X0029214Y0220460D01*
X0029553Y0221279D01*
X0030903Y0222629D01*
X0032667Y0223360D01*
X0034577Y0223360D01*
X0036341Y0222629D01*
X0037691Y0221279D01*
X0038422Y0219515D01*
X0038422Y0217605D01*
X0037691Y0215841D01*
X0036341Y0214491D01*
X0034577Y0213760D01*
X0032667Y0213760D01*
X0030903Y0214491D01*
X0029553Y0215841D01*
X0029214Y0216660D01*
X0028031Y0216660D01*
X0027691Y0215841D01*
X0026341Y0214491D01*
X0024577Y0213760D01*
X0022667Y0213760D01*
X0020903Y0214491D01*
X0020622Y0214772D01*
X0020622Y0212348D01*
X0020903Y0212629D01*
X0022667Y0213360D01*
X0024577Y0213360D01*
X0026341Y0212629D01*
X0027691Y0211279D01*
X0028031Y0210460D01*
X0029214Y0210460D01*
X0029553Y0211279D01*
X0030903Y0212629D01*
X0032667Y0213360D01*
X0034577Y0213360D01*
X0036341Y0212629D01*
X0037691Y0211279D01*
X0038422Y0209515D01*
X0038422Y0207605D01*
X0037691Y0205841D01*
X0036341Y0204491D01*
X0034577Y0203760D01*
X0032667Y0203760D01*
X0030903Y0204491D01*
X0029553Y0205841D01*
X0029214Y0206660D01*
X0028031Y0206660D01*
X0027691Y0205841D01*
X0026341Y0204491D01*
X0024577Y0203760D01*
X0022667Y0203760D01*
X0020903Y0204491D01*
X0020622Y0204772D01*
X0020622Y0202348D01*
X0020903Y0202629D01*
X0022667Y0203360D01*
X0024577Y0203360D01*
X0026341Y0202629D01*
X0027691Y0201279D01*
X0028031Y0200460D01*
X0029214Y0200460D01*
X0029553Y0201279D01*
X0030903Y0202629D01*
X0032667Y0203360D01*
X0034577Y0203360D01*
X0036341Y0202629D01*
X0037691Y0201279D01*
X0038422Y0199515D01*
X0038422Y0197605D01*
X0037691Y0195841D01*
X0036341Y0194491D01*
X0034577Y0193760D01*
X0032667Y0193760D01*
X0030903Y0194491D01*
X0029553Y0195841D01*
X0029214Y0196660D01*
X0028031Y0196660D01*
X0027691Y0195841D01*
X0026341Y0194491D01*
X0024577Y0193760D01*
X0022667Y0193760D01*
X0020903Y0194491D01*
X0020622Y0194772D01*
X0020622Y0192348D01*
X0020903Y0192629D01*
X0022667Y0193360D01*
X0024577Y0193360D01*
X0026341Y0192629D01*
X0027691Y0191279D01*
X0028031Y0190460D01*
X0029214Y0190460D01*
X0029553Y0191279D01*
X0030903Y0192629D01*
X0032667Y0193360D01*
X0034577Y0193360D01*
X0036341Y0192629D01*
X0037691Y0191279D01*
X0038422Y0189515D01*
X0038422Y0187605D01*
X0037691Y0185841D01*
X0036341Y0184491D01*
X0034577Y0183760D01*
X0032667Y0183760D01*
X0030903Y0184491D01*
X0029553Y0185841D01*
X0029214Y0186660D01*
X0028031Y0186660D01*
X0027691Y0185841D01*
X0026341Y0184491D01*
X0024577Y0183760D01*
X0022667Y0183760D01*
X0020903Y0184491D01*
X0020622Y0184772D01*
X0020622Y0182348D01*
X0020903Y0182629D01*
X0022667Y0183360D01*
X0024577Y0183360D01*
X0026341Y0182629D01*
X0027691Y0181279D01*
X0028031Y0180460D01*
X0029214Y0180460D01*
X0029553Y0181279D01*
X0030903Y0182629D01*
X0032667Y0183360D01*
X0034577Y0183360D01*
X0036341Y0182629D01*
X0037691Y0181279D01*
X0038422Y0179515D01*
X0038422Y0177605D01*
X0037691Y0175841D01*
X0036341Y0174491D01*
X0034577Y0173760D01*
X0032667Y0173760D01*
X0030903Y0174491D01*
X0029553Y0175841D01*
X0029214Y0176660D01*
X0028031Y0176660D01*
X0027691Y0175841D01*
X0026341Y0174491D01*
X0024577Y0173760D01*
X0022667Y0173760D01*
X0020903Y0174491D01*
X0020622Y0174772D01*
X0020622Y0172348D01*
X0020903Y0172629D01*
X0022667Y0173360D01*
X0024577Y0173360D01*
X0026341Y0172629D01*
X0027691Y0171279D01*
X0028031Y0170460D01*
X0029214Y0170460D01*
X0029553Y0171279D01*
X0030903Y0172629D01*
X0032667Y0173360D01*
X0034577Y0173360D01*
X0036341Y0172629D01*
X0037691Y0171279D01*
X0038422Y0169515D01*
X0038422Y0167605D01*
X0037691Y0165841D01*
X0036341Y0164491D01*
X0034577Y0163760D01*
X0032667Y0163760D01*
X0030903Y0164491D01*
X0029553Y0165841D01*
X0029214Y0166660D01*
X0028031Y0166660D01*
X0027691Y0165841D01*
X0026341Y0164491D01*
X0024577Y0163760D01*
X0022667Y0163760D01*
X0020903Y0164491D01*
X0020622Y0164772D01*
X0020622Y0162348D01*
X0020903Y0162629D01*
X0022667Y0163360D01*
X0024577Y0163360D01*
X0026341Y0162629D01*
X0027691Y0161279D01*
X0028031Y0160460D01*
X0029214Y0160460D01*
X0029553Y0161279D01*
X0030903Y0162629D01*
X0032667Y0163360D01*
X0034577Y0163360D01*
X0036341Y0162629D01*
X0037691Y0161279D01*
X0038422Y0159515D01*
X0038422Y0157605D01*
X0037691Y0155841D01*
X0036341Y0154491D01*
X0034577Y0153760D01*
X0032667Y0153760D01*
X0030903Y0154491D01*
X0029553Y0155841D01*
X0029214Y0156660D01*
X0028031Y0156660D01*
X0027691Y0155841D01*
X0026341Y0154491D01*
X0024577Y0153760D01*
X0022667Y0153760D01*
X0020903Y0154491D01*
X0020622Y0154772D01*
X0020622Y0152348D01*
X0020903Y0152629D01*
X0022667Y0153360D01*
X0024577Y0153360D01*
X0026341Y0152629D01*
X0027691Y0151279D01*
X0028031Y0150460D01*
X0029214Y0150460D01*
X0029553Y0151279D01*
X0030903Y0152629D01*
X0032667Y0153360D01*
X0034577Y0153360D01*
X0036341Y0152629D01*
X0037691Y0151279D01*
X0038422Y0149515D01*
X0038422Y0147605D01*
X0037691Y0145841D01*
X0036341Y0144491D01*
X0034577Y0143760D01*
X0032667Y0143760D01*
X0030903Y0144491D01*
X0029553Y0145841D01*
X0029214Y0146660D01*
X0028031Y0146660D01*
X0027691Y0145841D01*
X0026341Y0144491D01*
X0024577Y0143760D01*
X0022667Y0143760D01*
X0020903Y0144491D01*
X0020622Y0144772D01*
X0020622Y0142348D01*
X0020903Y0142629D01*
X0022667Y0143360D01*
X0024577Y0143360D01*
X0026341Y0142629D01*
X0027691Y0141279D01*
X0028031Y0140460D01*
X0029214Y0140460D01*
X0029553Y0141279D01*
X0030903Y0142629D01*
X0032667Y0143360D01*
X0034577Y0143360D01*
X0036341Y0142629D01*
X0037691Y0141279D01*
X0038422Y0139515D01*
X0038422Y0137605D01*
X0037691Y0135841D01*
X0036341Y0134491D01*
X0034577Y0133760D01*
X0032667Y0133760D01*
X0030903Y0134491D01*
X0029553Y0135841D01*
X0029214Y0136660D01*
X0028031Y0136660D01*
X0027691Y0135841D01*
X0026341Y0134491D01*
X0024577Y0133760D01*
X0022667Y0133760D01*
X0020903Y0134491D01*
X0020622Y0134772D01*
X0020622Y0132348D01*
X0020903Y0132629D01*
X0022667Y0133360D01*
X0024577Y0133360D01*
X0026341Y0132629D01*
X0027691Y0131279D01*
X0028031Y0130460D01*
X0029214Y0130460D01*
X0029553Y0131279D01*
X0030903Y0132629D01*
X0032667Y0133360D01*
X0034577Y0133360D01*
X0036341Y0132629D01*
X0037691Y0131279D01*
X0038422Y0129515D01*
X0038422Y0127605D01*
X0037691Y0125841D01*
X0036341Y0124491D01*
X0034577Y0123760D01*
X0032667Y0123760D01*
X0030903Y0124491D01*
X0029553Y0125841D01*
X0029214Y0126660D01*
X0028031Y0126660D01*
X0027691Y0125841D01*
X0026341Y0124491D01*
X0024577Y0123760D01*
X0022667Y0123760D01*
X0020903Y0124491D01*
X0020622Y0124772D01*
X0020622Y0122348D01*
X0020903Y0122629D01*
X0022667Y0123360D01*
X0024577Y0123360D01*
X0026341Y0122629D01*
X0027691Y0121279D01*
X0028031Y0120460D01*
X0029214Y0120460D01*
X0029553Y0121279D01*
X0030903Y0122629D01*
X0032667Y0123360D01*
X0034577Y0123360D01*
X0036341Y0122629D01*
X0037691Y0121279D01*
X0038422Y0119515D01*
X0038422Y0117605D01*
X0037691Y0115841D01*
X0036341Y0114491D01*
X0034577Y0113760D01*
X0032667Y0113760D01*
X0030903Y0114491D01*
X0029553Y0115841D01*
X0029214Y0116660D01*
X0028031Y0116660D01*
X0027691Y0115841D01*
X0026341Y0114491D01*
X0024577Y0113760D01*
X0022667Y0113760D01*
X0020903Y0114491D01*
X0020622Y0114772D01*
X0020622Y0112348D01*
X0020903Y0112629D01*
X0022667Y0113360D01*
X0024577Y0113360D01*
X0026341Y0112629D01*
X0027691Y0111279D01*
X0028031Y0110460D01*
X0029214Y0110460D01*
X0029553Y0111279D01*
X0030903Y0112629D01*
X0032667Y0113360D01*
X0034577Y0113360D01*
X0036341Y0112629D01*
X0037691Y0111279D01*
X0038422Y0109515D01*
X0038422Y0107605D01*
X0037691Y0105841D01*
X0036341Y0104491D01*
X0034577Y0103760D01*
X0032667Y0103760D01*
X0030903Y0104491D01*
X0029553Y0105841D01*
X0029214Y0106660D01*
X0028031Y0106660D01*
X0027691Y0105841D01*
X0026341Y0104491D01*
X0024577Y0103760D01*
X0022667Y0103760D01*
X0020903Y0104491D01*
X0020622Y0104772D01*
X0020622Y0102808D01*
X0020897Y0103007D01*
X0021626Y0103379D01*
X0022404Y0103632D01*
X0023122Y0103746D01*
X0023122Y0099060D01*
X0024122Y0099060D01*
X0024122Y0103746D01*
X0024840Y0103632D01*
X0025618Y0103379D01*
X0026347Y0103007D01*
X0027010Y0102526D01*
X0027588Y0101948D01*
X0028069Y0101285D01*
X0028441Y0100556D01*
X0028622Y0099999D01*
X0028803Y0100556D01*
X0029175Y0101285D01*
X0029656Y0101948D01*
X0030234Y0102526D01*
X0030897Y0103007D01*
X0031626Y0103379D01*
X0032404Y0103632D01*
X0033122Y0103746D01*
X0033122Y0099060D01*
X0033122Y0098060D01*
X0028808Y0098060D01*
X0024122Y0098060D01*
X0024122Y0093374D01*
X0024840Y0093488D01*
X0025618Y0093741D01*
X0026347Y0094113D01*
X0027010Y0094594D01*
X0027588Y0095172D01*
X0028069Y0095835D01*
X0028441Y0096564D01*
X0028622Y0097121D01*
X0028803Y0096564D01*
X0029175Y0095835D01*
X0029656Y0095172D01*
X0030234Y0094594D01*
X0030897Y0094113D01*
X0031626Y0093741D01*
X0032404Y0093488D01*
X0033122Y0093374D01*
X0033122Y0098060D01*
X0034122Y0098060D01*
X0034122Y0093374D01*
X0034840Y0093488D01*
X0035618Y0093741D01*
X0036347Y0094113D01*
X0037010Y0094594D01*
X0037588Y0095172D01*
X0038069Y0095835D01*
X0038441Y0096564D01*
X0038694Y0097342D01*
X0038808Y0098060D01*
X0034122Y0098060D01*
X0034122Y0099060D01*
X0033122Y0099060D01*
X0024122Y0099060D01*
X0024122Y0098060D01*
X0023122Y0098060D01*
X0023122Y0093374D01*
X0022404Y0093488D01*
X0021626Y0093741D01*
X0020897Y0094113D01*
X0020622Y0094312D01*
X0020622Y0092348D01*
X0020903Y0092629D01*
X0022667Y0093360D01*
X0024577Y0093360D01*
X0026341Y0092629D01*
X0027691Y0091279D01*
X0028031Y0090460D01*
X0029214Y0090460D01*
X0029553Y0091279D01*
X0030903Y0092629D01*
X0032667Y0093360D01*
X0034577Y0093360D01*
X0036341Y0092629D01*
X0037691Y0091279D01*
X0038031Y0090460D01*
X0041322Y0090460D01*
X0041322Y0282607D01*
X0031322Y0292607D01*
X0031322Y0298905D01*
X0029905Y0299493D01*
X0028059Y0301339D01*
X0027059Y0303751D01*
X0027059Y0306361D01*
X0028059Y0308773D01*
X0029905Y0310620D01*
X0032317Y0311619D01*
X0034927Y0311619D01*
X0037339Y0310620D01*
X0039186Y0308773D01*
X0040185Y0306361D01*
X0040185Y0303751D01*
X0039186Y0301339D01*
X0037339Y0299493D01*
X0035922Y0298905D01*
X0035922Y0294513D01*
X0044575Y0285860D01*
X0045922Y0284513D01*
X0045922Y0072607D01*
X0041392Y0068078D01*
X0042691Y0066779D01*
X0043422Y0065015D01*
X0043422Y0063105D01*
X0042691Y0061341D01*
X0041341Y0059991D01*
X0039577Y0059260D01*
X0037667Y0059260D01*
X0037248Y0059434D01*
X0034583Y0056769D01*
X0034583Y0024627D01*
X0035172Y0024384D01*
X0036607Y0022949D01*
X0037383Y0021074D01*
X0037383Y0019046D01*
X0036607Y0017171D01*
X0035172Y0015736D01*
X0033298Y0014960D01*
X0031269Y0014960D01*
X0029395Y0015736D01*
X0027960Y0017171D01*
X0027183Y0019046D01*
X0027183Y0021074D01*
X0027960Y0022949D01*
X0029395Y0024384D01*
X0029983Y0024627D01*
X0029983Y0058674D01*
X0033996Y0062686D01*
X0033822Y0063105D01*
X0033822Y0065015D01*
X0034553Y0066779D01*
X0035903Y0068129D01*
X0036322Y0068303D01*
X0036322Y0069513D01*
X0041322Y0074513D01*
X0041322Y0086660D01*
X0038031Y0086660D01*
X0037691Y0085841D01*
X0036341Y0084491D01*
X0034577Y0083760D01*
X0032667Y0083760D01*
X0030903Y0084491D01*
X0029553Y0085841D01*
X0029214Y0086660D01*
X0028031Y0086660D01*
X0027691Y0085841D01*
X0026341Y0084491D01*
X0024577Y0083760D01*
X0022667Y0083760D01*
X0020903Y0084491D01*
X0020622Y0084772D01*
X0020622Y0084477D02*
X0020937Y0084477D01*
X0020622Y0083478D02*
X0041322Y0083478D01*
X0041322Y0082480D02*
X0020622Y0082480D01*
X0020622Y0081481D02*
X0041322Y0081481D01*
X0041322Y0080483D02*
X0020622Y0080483D01*
X0020622Y0079484D02*
X0041322Y0079484D01*
X0041322Y0078486D02*
X0020622Y0078486D01*
X0020622Y0077487D02*
X0041322Y0077487D01*
X0041322Y0076489D02*
X0020622Y0076489D01*
X0020622Y0075490D02*
X0041322Y0075490D01*
X0041301Y0074492D02*
X0020622Y0074492D01*
X0020622Y0073493D02*
X0040302Y0073493D01*
X0039304Y0072494D02*
X0020622Y0072494D01*
X0020622Y0071496D02*
X0038305Y0071496D01*
X0037307Y0070497D02*
X0020622Y0070497D01*
X0020622Y0069499D02*
X0036322Y0069499D01*
X0036322Y0068500D02*
X0020622Y0068500D01*
X0020622Y0067502D02*
X0035276Y0067502D01*
X0034439Y0066503D02*
X0020622Y0066503D01*
X0020622Y0065505D02*
X0034025Y0065505D01*
X0033822Y0064506D02*
X0020622Y0064506D01*
X0020622Y0063508D02*
X0033822Y0063508D01*
X0033819Y0062509D02*
X0020622Y0062509D01*
X0020622Y0061511D02*
X0032820Y0061511D01*
X0031822Y0060512D02*
X0020622Y0060512D01*
X0020622Y0059514D02*
X0030823Y0059514D01*
X0029983Y0058515D02*
X0020622Y0058515D01*
X0020622Y0057517D02*
X0029983Y0057517D01*
X0029983Y0056518D02*
X0020622Y0056518D01*
X0020622Y0055520D02*
X0029983Y0055520D01*
X0029983Y0054521D02*
X0020622Y0054521D01*
X0020622Y0053523D02*
X0029983Y0053523D01*
X0029983Y0052524D02*
X0020622Y0052524D01*
X0020622Y0051526D02*
X0029983Y0051526D01*
X0029983Y0050527D02*
X0020622Y0050527D01*
X0020622Y0049529D02*
X0029983Y0049529D01*
X0029983Y0048530D02*
X0020622Y0048530D01*
X0020622Y0047532D02*
X0029983Y0047532D01*
X0029983Y0046533D02*
X0020622Y0046533D01*
X0020622Y0045535D02*
X0029983Y0045535D01*
X0029983Y0044536D02*
X0020622Y0044536D01*
X0020622Y0043538D02*
X0029983Y0043538D01*
X0029983Y0042539D02*
X0020622Y0042539D01*
X0020622Y0041541D02*
X0029983Y0041541D01*
X0029983Y0040542D02*
X0020622Y0040542D01*
X0020622Y0039544D02*
X0029983Y0039544D01*
X0029983Y0038545D02*
X0020622Y0038545D01*
X0020622Y0037547D02*
X0029983Y0037547D01*
X0029983Y0036548D02*
X0020622Y0036548D01*
X0020622Y0035550D02*
X0029983Y0035550D01*
X0029983Y0034551D02*
X0020622Y0034551D01*
X0020622Y0033553D02*
X0029983Y0033553D01*
X0029983Y0032554D02*
X0020622Y0032554D01*
X0020622Y0031556D02*
X0029983Y0031556D01*
X0029983Y0030557D02*
X0020622Y0030557D01*
X0020622Y0029559D02*
X0029983Y0029559D01*
X0029983Y0028560D02*
X0020622Y0028560D01*
X0020622Y0027561D02*
X0029983Y0027561D01*
X0029983Y0026563D02*
X0020622Y0026563D01*
X0020622Y0025564D02*
X0029983Y0025564D01*
X0029835Y0024566D02*
X0020622Y0024566D01*
X0020622Y0023567D02*
X0028578Y0023567D01*
X0027802Y0022569D02*
X0020622Y0022569D01*
X0020622Y0021570D02*
X0027389Y0021570D01*
X0027183Y0020572D02*
X0020622Y0020572D01*
X0020622Y0019573D02*
X0027183Y0019573D01*
X0027378Y0018575D02*
X0020622Y0018575D01*
X0020622Y0017576D02*
X0027792Y0017576D01*
X0028553Y0016578D02*
X0020622Y0016578D01*
X0020622Y0015579D02*
X0029774Y0015579D01*
X0034793Y0015579D02*
X0043553Y0015579D01*
X0043174Y0015736D02*
X0045049Y0014960D01*
X0047077Y0014960D01*
X0048952Y0015736D01*
X0050387Y0017171D01*
X0051163Y0019046D01*
X0051163Y0021074D01*
X0050387Y0022949D01*
X0048952Y0024384D01*
X0047563Y0024959D01*
X0047563Y0059303D01*
X0047667Y0059260D01*
X0049577Y0059260D01*
X0051341Y0059991D01*
X0052691Y0061341D01*
X0053422Y0063105D01*
X0053422Y0065015D01*
X0052691Y0066779D01*
X0051341Y0068129D01*
X0049577Y0068860D01*
X0047667Y0068860D01*
X0045903Y0068129D01*
X0044553Y0066779D01*
X0043822Y0065015D01*
X0043822Y0063105D01*
X0044553Y0061341D01*
X0044563Y0061331D01*
X0044563Y0024959D01*
X0043174Y0024384D01*
X0041739Y0022949D01*
X0040963Y0021074D01*
X0040963Y0019046D01*
X0041739Y0017171D01*
X0043174Y0015736D01*
X0042333Y0016578D02*
X0036014Y0016578D01*
X0036775Y0017576D02*
X0041572Y0017576D01*
X0041158Y0018575D02*
X0037188Y0018575D01*
X0037383Y0019573D02*
X0040963Y0019573D01*
X0040963Y0020572D02*
X0037383Y0020572D01*
X0037178Y0021570D02*
X0041168Y0021570D01*
X0041582Y0022569D02*
X0036764Y0022569D01*
X0035988Y0023567D02*
X0042358Y0023567D01*
X0043614Y0024566D02*
X0034732Y0024566D01*
X0034583Y0025564D02*
X0044563Y0025564D01*
X0044563Y0026563D02*
X0034583Y0026563D01*
X0034583Y0027561D02*
X0044563Y0027561D01*
X0044563Y0028560D02*
X0034583Y0028560D01*
X0034583Y0029559D02*
X0044563Y0029559D01*
X0044563Y0030557D02*
X0034583Y0030557D01*
X0034583Y0031556D02*
X0044563Y0031556D01*
X0044563Y0032554D02*
X0034583Y0032554D01*
X0034583Y0033553D02*
X0044563Y0033553D01*
X0044563Y0034551D02*
X0034583Y0034551D01*
X0034583Y0035550D02*
X0044563Y0035550D01*
X0044563Y0036548D02*
X0034583Y0036548D01*
X0034583Y0037547D02*
X0044563Y0037547D01*
X0044563Y0038545D02*
X0034583Y0038545D01*
X0034583Y0039544D02*
X0044563Y0039544D01*
X0044563Y0040542D02*
X0034583Y0040542D01*
X0034583Y0041541D02*
X0044563Y0041541D01*
X0044563Y0042539D02*
X0034583Y0042539D01*
X0034583Y0043538D02*
X0044563Y0043538D01*
X0044563Y0044536D02*
X0034583Y0044536D01*
X0034583Y0045535D02*
X0044563Y0045535D01*
X0044563Y0046533D02*
X0034583Y0046533D01*
X0034583Y0047532D02*
X0044563Y0047532D01*
X0044563Y0048530D02*
X0034583Y0048530D01*
X0034583Y0049529D02*
X0044563Y0049529D01*
X0044563Y0050527D02*
X0034583Y0050527D01*
X0034583Y0051526D02*
X0044563Y0051526D01*
X0044563Y0052524D02*
X0034583Y0052524D01*
X0034583Y0053523D02*
X0044563Y0053523D01*
X0044563Y0054521D02*
X0034583Y0054521D01*
X0034583Y0055520D02*
X0044563Y0055520D01*
X0044563Y0056518D02*
X0034583Y0056518D01*
X0035332Y0057517D02*
X0044563Y0057517D01*
X0044563Y0058515D02*
X0036330Y0058515D01*
X0040190Y0059514D02*
X0044563Y0059514D01*
X0044563Y0060512D02*
X0041863Y0060512D01*
X0042762Y0061511D02*
X0044482Y0061511D01*
X0044069Y0062509D02*
X0043175Y0062509D01*
X0043422Y0063508D02*
X0043822Y0063508D01*
X0043822Y0064506D02*
X0043422Y0064506D01*
X0043219Y0065505D02*
X0044025Y0065505D01*
X0044439Y0066503D02*
X0042805Y0066503D01*
X0041968Y0067502D02*
X0045276Y0067502D01*
X0046799Y0068500D02*
X0041815Y0068500D01*
X0042814Y0069499D02*
X0086622Y0069499D01*
X0086622Y0070497D02*
X0043812Y0070497D01*
X0044811Y0071496D02*
X0086622Y0071496D01*
X0086622Y0072494D02*
X0045809Y0072494D01*
X0045922Y0073493D02*
X0086622Y0073493D01*
X0086622Y0074492D02*
X0045922Y0074492D01*
X0045922Y0075490D02*
X0086622Y0075490D01*
X0086622Y0076489D02*
X0045922Y0076489D01*
X0045922Y0077487D02*
X0086622Y0077487D01*
X0086622Y0078486D02*
X0045922Y0078486D01*
X0045922Y0079484D02*
X0086622Y0079484D01*
X0086622Y0080483D02*
X0045922Y0080483D01*
X0045922Y0081481D02*
X0086622Y0081481D01*
X0086622Y0082480D02*
X0045922Y0082480D01*
X0045922Y0083478D02*
X0086622Y0083478D01*
X0086622Y0084477D02*
X0086307Y0084477D01*
X0086506Y0092465D02*
X0086622Y0092465D01*
X0086622Y0093463D02*
X0084683Y0093463D01*
X0084122Y0093463D02*
X0083122Y0093463D01*
X0082561Y0093463D02*
X0074683Y0093463D01*
X0074122Y0093463D02*
X0073122Y0093463D01*
X0072561Y0093463D02*
X0045922Y0093463D01*
X0045922Y0092465D02*
X0070739Y0092465D01*
X0069740Y0091466D02*
X0045922Y0091466D01*
X0045922Y0090468D02*
X0069217Y0090468D01*
X0068822Y0089469D02*
X0045922Y0089469D01*
X0045922Y0088471D02*
X0068822Y0088471D01*
X0068877Y0087472D02*
X0045922Y0087472D01*
X0045922Y0086474D02*
X0069291Y0086474D01*
X0069919Y0085475D02*
X0045922Y0085475D01*
X0045922Y0084477D02*
X0070937Y0084477D01*
X0076307Y0084477D02*
X0080937Y0084477D01*
X0079919Y0085475D02*
X0077325Y0085475D01*
X0077953Y0086474D02*
X0079291Y0086474D01*
X0079217Y0090468D02*
X0078027Y0090468D01*
X0077504Y0091466D02*
X0079740Y0091466D01*
X0080739Y0092465D02*
X0076506Y0092465D01*
X0076828Y0094462D02*
X0080416Y0094462D01*
X0079447Y0095460D02*
X0077797Y0095460D01*
X0078388Y0096459D02*
X0078857Y0096459D01*
X0078769Y0100453D02*
X0078475Y0100453D01*
X0077949Y0101451D02*
X0079295Y0101451D01*
X0080158Y0102450D02*
X0077086Y0102450D01*
X0075405Y0103448D02*
X0081839Y0103448D01*
X0083122Y0103448D02*
X0084122Y0103448D01*
X0084122Y0102450D02*
X0083122Y0102450D01*
X0083122Y0101451D02*
X0084122Y0101451D01*
X0084122Y0100453D02*
X0083122Y0100453D01*
X0083122Y0099454D02*
X0084122Y0099454D01*
X0083122Y0098456D02*
X0074122Y0098456D01*
X0074122Y0099454D02*
X0073122Y0099454D01*
X0073122Y0099060D02*
X0073122Y0103746D01*
X0072404Y0103632D01*
X0071626Y0103379D01*
X0070897Y0103007D01*
X0070234Y0102526D01*
X0069656Y0101948D01*
X0069175Y0101285D01*
X0068803Y0100556D01*
X0068550Y0099778D01*
X0068436Y0099060D01*
X0073122Y0099060D01*
X0073122Y0098456D02*
X0045922Y0098456D01*
X0045922Y0099454D02*
X0068499Y0099454D01*
X0068769Y0100453D02*
X0045922Y0100453D01*
X0045922Y0101451D02*
X0069295Y0101451D01*
X0070158Y0102450D02*
X0045922Y0102450D01*
X0045922Y0103448D02*
X0071839Y0103448D01*
X0073122Y0103448D02*
X0074122Y0103448D01*
X0074122Y0102450D02*
X0073122Y0102450D01*
X0073122Y0101451D02*
X0074122Y0101451D01*
X0074122Y0100453D02*
X0073122Y0100453D01*
X0073122Y0097457D02*
X0074122Y0097457D01*
X0074122Y0096459D02*
X0073122Y0096459D01*
X0073122Y0095460D02*
X0074122Y0095460D01*
X0074122Y0094462D02*
X0073122Y0094462D01*
X0070416Y0094462D02*
X0045922Y0094462D01*
X0045922Y0095460D02*
X0069447Y0095460D01*
X0068857Y0096459D02*
X0045922Y0096459D01*
X0045922Y0097457D02*
X0068532Y0097457D01*
X0071009Y0104447D02*
X0045922Y0104447D01*
X0045922Y0105445D02*
X0069948Y0105445D01*
X0069303Y0106444D02*
X0045922Y0106444D01*
X0045922Y0107442D02*
X0068889Y0107442D01*
X0068822Y0108441D02*
X0045922Y0108441D01*
X0045922Y0109439D02*
X0068822Y0109439D01*
X0069204Y0110438D02*
X0045922Y0110438D01*
X0045922Y0111436D02*
X0069710Y0111436D01*
X0070709Y0112435D02*
X0045922Y0112435D01*
X0045922Y0113433D02*
X0086622Y0113433D01*
X0086622Y0112435D02*
X0086535Y0112435D01*
X0086622Y0114432D02*
X0086199Y0114432D01*
X0086550Y0122420D02*
X0086622Y0122420D01*
X0086622Y0123419D02*
X0045922Y0123419D01*
X0045922Y0124417D02*
X0051081Y0124417D01*
X0050903Y0124491D02*
X0052667Y0123760D01*
X0054577Y0123760D01*
X0056341Y0124491D01*
X0057691Y0125841D01*
X0058422Y0127605D01*
X0058422Y0129515D01*
X0057691Y0131279D01*
X0056341Y0132629D01*
X0054577Y0133360D01*
X0052667Y0133360D01*
X0050903Y0132629D01*
X0049553Y0131279D01*
X0048822Y0129515D01*
X0048822Y0127605D01*
X0049553Y0125841D01*
X0050903Y0124491D01*
X0049978Y0125416D02*
X0045922Y0125416D01*
X0045922Y0126414D02*
X0049315Y0126414D01*
X0048902Y0127413D02*
X0045922Y0127413D01*
X0045922Y0128411D02*
X0048822Y0128411D01*
X0048822Y0129410D02*
X0045922Y0129410D01*
X0045922Y0130408D02*
X0049192Y0130408D01*
X0049680Y0131407D02*
X0045922Y0131407D01*
X0045922Y0132405D02*
X0050679Y0132405D01*
X0051117Y0134402D02*
X0045922Y0134402D01*
X0045922Y0133404D02*
X0086622Y0133404D01*
X0086622Y0134402D02*
X0086127Y0134402D01*
X0086565Y0132405D02*
X0086622Y0132405D01*
X0086622Y0124417D02*
X0086163Y0124417D01*
X0081081Y0124417D02*
X0076163Y0124417D01*
X0077266Y0125416D02*
X0079978Y0125416D01*
X0079315Y0126414D02*
X0077929Y0126414D01*
X0077564Y0131407D02*
X0079680Y0131407D01*
X0080679Y0132405D02*
X0076565Y0132405D01*
X0076127Y0134402D02*
X0081117Y0134402D01*
X0079993Y0135401D02*
X0077251Y0135401D01*
X0077922Y0136399D02*
X0079322Y0136399D01*
X0079666Y0141392D02*
X0077578Y0141392D01*
X0076580Y0142390D02*
X0080664Y0142390D01*
X0081153Y0144387D02*
X0076091Y0144387D01*
X0077236Y0145386D02*
X0080008Y0145386D01*
X0079328Y0146384D02*
X0077916Y0146384D01*
X0077593Y0151377D02*
X0079651Y0151377D01*
X0080649Y0152375D02*
X0076595Y0152375D01*
X0076055Y0154372D02*
X0081189Y0154372D01*
X0080023Y0155371D02*
X0077221Y0155371D01*
X0077910Y0156369D02*
X0079334Y0156369D01*
X0079636Y0161362D02*
X0077608Y0161362D01*
X0076610Y0162361D02*
X0080634Y0162361D01*
X0081225Y0164358D02*
X0076019Y0164358D01*
X0077206Y0165356D02*
X0080038Y0165356D01*
X0079340Y0166355D02*
X0077904Y0166355D01*
X0077623Y0171347D02*
X0079621Y0171347D01*
X0080619Y0172346D02*
X0076625Y0172346D01*
X0075983Y0174343D02*
X0081261Y0174343D01*
X0080053Y0175341D02*
X0077191Y0175341D01*
X0077898Y0176340D02*
X0079346Y0176340D01*
X0082629Y0173344D02*
X0074615Y0173344D01*
X0072629Y0173344D02*
X0064615Y0173344D01*
X0064577Y0173360D02*
X0062667Y0173360D01*
X0060903Y0172629D01*
X0059553Y0171279D01*
X0058822Y0169515D01*
X0058822Y0167605D01*
X0059553Y0165841D01*
X0060903Y0164491D01*
X0062667Y0163760D01*
X0064577Y0163760D01*
X0066341Y0164491D01*
X0067691Y0165841D01*
X0068422Y0167605D01*
X0068422Y0169515D01*
X0067691Y0171279D01*
X0066341Y0172629D01*
X0064577Y0173360D01*
X0064577Y0173760D02*
X0066341Y0174491D01*
X0067691Y0175841D01*
X0068422Y0177605D01*
X0068422Y0179515D01*
X0067691Y0181279D01*
X0066341Y0182629D01*
X0064577Y0183360D01*
X0062667Y0183360D01*
X0060903Y0182629D01*
X0059553Y0181279D01*
X0058822Y0179515D01*
X0058822Y0177605D01*
X0059553Y0175841D01*
X0060903Y0174491D01*
X0062667Y0173760D01*
X0064577Y0173760D01*
X0065983Y0174343D02*
X0071261Y0174343D01*
X0070053Y0175341D02*
X0067191Y0175341D01*
X0067898Y0176340D02*
X0069346Y0176340D01*
X0068933Y0177338D02*
X0068311Y0177338D01*
X0068422Y0178337D02*
X0068822Y0178337D01*
X0068822Y0179335D02*
X0068422Y0179335D01*
X0068083Y0180334D02*
X0069161Y0180334D01*
X0069606Y0181332D02*
X0067638Y0181332D01*
X0066640Y0182331D02*
X0070605Y0182331D01*
X0071297Y0184328D02*
X0065948Y0184328D01*
X0066341Y0184491D02*
X0067691Y0185841D01*
X0068422Y0187605D01*
X0068422Y0189515D01*
X0067691Y0191279D01*
X0066341Y0192629D01*
X0064577Y0193360D01*
X0062667Y0193360D01*
X0060903Y0192629D01*
X0059553Y0191279D01*
X0058822Y0189515D01*
X0058822Y0187605D01*
X0059553Y0185841D01*
X0060903Y0184491D01*
X0062667Y0183760D01*
X0064577Y0183760D01*
X0066341Y0184491D01*
X0067177Y0185326D02*
X0070068Y0185326D01*
X0069352Y0186325D02*
X0067892Y0186325D01*
X0068305Y0187323D02*
X0068939Y0187323D01*
X0068822Y0188322D02*
X0068422Y0188322D01*
X0068422Y0189320D02*
X0068822Y0189320D01*
X0069155Y0190319D02*
X0068089Y0190319D01*
X0067653Y0191317D02*
X0069591Y0191317D01*
X0070590Y0192316D02*
X0066654Y0192316D01*
X0065912Y0194313D02*
X0071332Y0194313D01*
X0072557Y0193314D02*
X0064687Y0193314D01*
X0064577Y0193760D02*
X0066341Y0194491D01*
X0067691Y0195841D01*
X0068422Y0197605D01*
X0068422Y0199515D01*
X0067691Y0201279D01*
X0066341Y0202629D01*
X0064577Y0203360D01*
X0062667Y0203360D01*
X0060903Y0202629D01*
X0059553Y0201279D01*
X0058822Y0199515D01*
X0058822Y0197605D01*
X0059553Y0195841D01*
X0060903Y0194491D01*
X0062667Y0193760D01*
X0064577Y0193760D01*
X0062557Y0193314D02*
X0054687Y0193314D01*
X0054577Y0193360D02*
X0052667Y0193360D01*
X0050903Y0192629D01*
X0049553Y0191279D01*
X0048822Y0189515D01*
X0048822Y0187605D01*
X0049553Y0185841D01*
X0050903Y0184491D01*
X0052667Y0183760D01*
X0054577Y0183760D01*
X0056341Y0184491D01*
X0057691Y0185841D01*
X0058422Y0187605D01*
X0058422Y0189515D01*
X0057691Y0191279D01*
X0056341Y0192629D01*
X0054577Y0193360D01*
X0054577Y0193760D02*
X0056341Y0194491D01*
X0057691Y0195841D01*
X0058422Y0197605D01*
X0058422Y0199515D01*
X0057691Y0201279D01*
X0056341Y0202629D01*
X0054577Y0203360D01*
X0052667Y0203360D01*
X0050903Y0202629D01*
X0049553Y0201279D01*
X0048822Y0199515D01*
X0048822Y0197605D01*
X0049553Y0195841D01*
X0050903Y0194491D01*
X0052667Y0193760D01*
X0054577Y0193760D01*
X0055912Y0194313D02*
X0061332Y0194313D01*
X0060082Y0195311D02*
X0057162Y0195311D01*
X0057885Y0196310D02*
X0059359Y0196310D01*
X0058945Y0197308D02*
X0058299Y0197308D01*
X0058422Y0198307D02*
X0058822Y0198307D01*
X0058822Y0199305D02*
X0058422Y0199305D01*
X0058095Y0200304D02*
X0059149Y0200304D01*
X0059576Y0201302D02*
X0057668Y0201302D01*
X0056669Y0202301D02*
X0060575Y0202301D01*
X0061368Y0204298D02*
X0055876Y0204298D01*
X0056341Y0204491D02*
X0057691Y0205841D01*
X0058422Y0207605D01*
X0058422Y0209515D01*
X0057691Y0211279D01*
X0056341Y0212629D01*
X0054577Y0213360D01*
X0052667Y0213360D01*
X0050903Y0212629D01*
X0049553Y0211279D01*
X0048822Y0209515D01*
X0048822Y0207605D01*
X0049553Y0205841D01*
X0050903Y0204491D01*
X0052667Y0203760D01*
X0054577Y0203760D01*
X0056341Y0204491D01*
X0057147Y0205296D02*
X0060097Y0205296D01*
X0059553Y0205841D02*
X0060903Y0204491D01*
X0062667Y0203760D01*
X0064577Y0203760D01*
X0066341Y0204491D01*
X0067691Y0205841D01*
X0068422Y0207605D01*
X0068422Y0209515D01*
X0067691Y0211279D01*
X0066341Y0212629D01*
X0064577Y0213360D01*
X0062667Y0213360D01*
X0060903Y0212629D01*
X0059553Y0211279D01*
X0058822Y0209515D01*
X0058822Y0207605D01*
X0059553Y0205841D01*
X0059365Y0206295D02*
X0057879Y0206295D01*
X0058293Y0207294D02*
X0058951Y0207294D01*
X0058822Y0208292D02*
X0058422Y0208292D01*
X0058422Y0209291D02*
X0058822Y0209291D01*
X0059143Y0210289D02*
X0058101Y0210289D01*
X0057683Y0211288D02*
X0059561Y0211288D01*
X0060560Y0212286D02*
X0056684Y0212286D01*
X0055840Y0214283D02*
X0061404Y0214283D01*
X0060903Y0214491D02*
X0062667Y0213760D01*
X0064577Y0213760D01*
X0066341Y0214491D01*
X0067691Y0215841D01*
X0068422Y0217605D01*
X0068422Y0219515D01*
X0067691Y0221279D01*
X0066341Y0222629D01*
X0064577Y0223360D01*
X0062667Y0223360D01*
X0060903Y0222629D01*
X0059553Y0221279D01*
X0058822Y0219515D01*
X0058822Y0217605D01*
X0059553Y0215841D01*
X0060903Y0214491D01*
X0060112Y0215282D02*
X0057132Y0215282D01*
X0057691Y0215841D02*
X0058422Y0217605D01*
X0058422Y0219515D01*
X0057691Y0221279D01*
X0056341Y0222629D01*
X0054577Y0223360D01*
X0052667Y0223360D01*
X0050903Y0222629D01*
X0049553Y0221279D01*
X0048822Y0219515D01*
X0048822Y0217605D01*
X0049553Y0215841D01*
X0050903Y0214491D01*
X0052667Y0213760D01*
X0054577Y0213760D01*
X0056341Y0214491D01*
X0057691Y0215841D01*
X0057873Y0216280D02*
X0059371Y0216280D01*
X0058957Y0217279D02*
X0058287Y0217279D01*
X0058422Y0218277D02*
X0058822Y0218277D01*
X0058822Y0219276D02*
X0058422Y0219276D01*
X0058107Y0220274D02*
X0059137Y0220274D01*
X0059550Y0221273D02*
X0057694Y0221273D01*
X0056699Y0222271D02*
X0060545Y0222271D01*
X0062449Y0223270D02*
X0054795Y0223270D01*
X0054577Y0223760D02*
X0052667Y0223760D01*
X0050903Y0224491D01*
X0049553Y0225841D01*
X0048822Y0227605D01*
X0048822Y0229515D01*
X0049553Y0231279D01*
X0050903Y0232629D01*
X0052667Y0233360D01*
X0054577Y0233360D01*
X0056341Y0232629D01*
X0057691Y0231279D01*
X0058422Y0229515D01*
X0058422Y0227605D01*
X0057691Y0225841D01*
X0056341Y0224491D01*
X0054577Y0223760D01*
X0055804Y0224268D02*
X0061440Y0224268D01*
X0060903Y0224491D02*
X0062667Y0223760D01*
X0064577Y0223760D01*
X0066341Y0224491D01*
X0067691Y0225841D01*
X0068422Y0227605D01*
X0068422Y0229515D01*
X0067691Y0231279D01*
X0066341Y0232629D01*
X0064577Y0233360D01*
X0062667Y0233360D01*
X0060903Y0232629D01*
X0059553Y0231279D01*
X0058822Y0229515D01*
X0058822Y0227605D01*
X0059553Y0225841D01*
X0060903Y0224491D01*
X0060127Y0225267D02*
X0057117Y0225267D01*
X0057867Y0226265D02*
X0059377Y0226265D01*
X0058963Y0227264D02*
X0058281Y0227264D01*
X0058422Y0228262D02*
X0058822Y0228262D01*
X0058822Y0229261D02*
X0058422Y0229261D01*
X0058114Y0230259D02*
X0059130Y0230259D01*
X0059544Y0231258D02*
X0057700Y0231258D01*
X0056714Y0232256D02*
X0060530Y0232256D01*
X0062413Y0233255D02*
X0054831Y0233255D01*
X0054577Y0233760D02*
X0056341Y0234491D01*
X0057691Y0235841D01*
X0058422Y0237605D01*
X0058422Y0239515D01*
X0057691Y0241279D01*
X0056341Y0242629D01*
X0054577Y0243360D01*
X0052667Y0243360D01*
X0050903Y0242629D01*
X0049553Y0241279D01*
X0048822Y0239515D01*
X0048822Y0237605D01*
X0049553Y0235841D01*
X0050903Y0234491D01*
X0052667Y0233760D01*
X0054577Y0233760D01*
X0055768Y0234253D02*
X0061476Y0234253D01*
X0060903Y0234491D02*
X0059553Y0235841D01*
X0058822Y0237605D01*
X0058822Y0239515D01*
X0059553Y0241279D01*
X0060903Y0242629D01*
X0062667Y0243360D01*
X0064577Y0243360D01*
X0066341Y0242629D01*
X0067691Y0241279D01*
X0068422Y0239515D01*
X0068422Y0237605D01*
X0067691Y0235841D01*
X0066341Y0234491D01*
X0064577Y0233760D01*
X0062667Y0233760D01*
X0060903Y0234491D01*
X0060142Y0235252D02*
X0057102Y0235252D01*
X0057861Y0236250D02*
X0059383Y0236250D01*
X0058970Y0237249D02*
X0058274Y0237249D01*
X0058422Y0238247D02*
X0058822Y0238247D01*
X0058822Y0239246D02*
X0058422Y0239246D01*
X0058120Y0240244D02*
X0059124Y0240244D01*
X0059538Y0241243D02*
X0057706Y0241243D01*
X0056729Y0242241D02*
X0060515Y0242241D01*
X0062377Y0243240D02*
X0054867Y0243240D01*
X0054577Y0243760D02*
X0056341Y0244491D01*
X0057691Y0245841D01*
X0058422Y0247605D01*
X0058422Y0249515D01*
X0057691Y0251279D01*
X0056341Y0252629D01*
X0054577Y0253360D01*
X0052667Y0253360D01*
X0050903Y0252629D01*
X0049553Y0251279D01*
X0048822Y0249515D01*
X0048822Y0247605D01*
X0049553Y0245841D01*
X0050903Y0244491D01*
X0052667Y0243760D01*
X0054577Y0243760D01*
X0055732Y0244238D02*
X0061512Y0244238D01*
X0060903Y0244491D02*
X0062667Y0243760D01*
X0064577Y0243760D01*
X0066341Y0244491D01*
X0067691Y0245841D01*
X0068422Y0247605D01*
X0068422Y0249515D01*
X0067691Y0251279D01*
X0066341Y0252629D01*
X0064577Y0253360D01*
X0062667Y0253360D01*
X0060903Y0252629D01*
X0059553Y0251279D01*
X0058822Y0249515D01*
X0058822Y0247605D01*
X0059553Y0245841D01*
X0060903Y0244491D01*
X0060157Y0245237D02*
X0057087Y0245237D01*
X0057855Y0246235D02*
X0059389Y0246235D01*
X0058976Y0247234D02*
X0058268Y0247234D01*
X0058422Y0248232D02*
X0058822Y0248232D01*
X0058822Y0249231D02*
X0058422Y0249231D01*
X0058126Y0250230D02*
X0059118Y0250230D01*
X0059532Y0251228D02*
X0057712Y0251228D01*
X0056744Y0252227D02*
X0060500Y0252227D01*
X0062341Y0253225D02*
X0054903Y0253225D01*
X0054577Y0253760D02*
X0056341Y0254491D01*
X0057691Y0255841D01*
X0058422Y0257605D01*
X0058422Y0259515D01*
X0057691Y0261279D01*
X0056341Y0262629D01*
X0054577Y0263360D01*
X0052667Y0263360D01*
X0050903Y0262629D01*
X0049553Y0261279D01*
X0048822Y0259515D01*
X0048822Y0257605D01*
X0049553Y0255841D01*
X0050903Y0254491D01*
X0052667Y0253760D01*
X0054577Y0253760D01*
X0055696Y0254224D02*
X0061548Y0254224D01*
X0060903Y0254491D02*
X0062667Y0253760D01*
X0064577Y0253760D01*
X0066341Y0254491D01*
X0067691Y0255841D01*
X0068422Y0257605D01*
X0068422Y0259515D01*
X0067691Y0261279D01*
X0066341Y0262629D01*
X0064577Y0263360D01*
X0062667Y0263360D01*
X0060903Y0262629D01*
X0059553Y0261279D01*
X0058822Y0259515D01*
X0058822Y0257605D01*
X0059553Y0255841D01*
X0060903Y0254491D01*
X0060172Y0255222D02*
X0057072Y0255222D01*
X0057848Y0256221D02*
X0059396Y0256221D01*
X0058982Y0257219D02*
X0058262Y0257219D01*
X0058422Y0258218D02*
X0058822Y0258218D01*
X0058822Y0259216D02*
X0058422Y0259216D01*
X0058132Y0260215D02*
X0059112Y0260215D01*
X0059526Y0261213D02*
X0057719Y0261213D01*
X0056759Y0262212D02*
X0060485Y0262212D01*
X0062306Y0263210D02*
X0054939Y0263210D01*
X0054577Y0263760D02*
X0052667Y0263760D01*
X0050903Y0264491D01*
X0049553Y0265841D01*
X0048822Y0267605D01*
X0048822Y0269515D01*
X0049553Y0271279D01*
X0050903Y0272629D01*
X0052667Y0273360D01*
X0054577Y0273360D01*
X0056341Y0272629D01*
X0057691Y0271279D01*
X0058422Y0269515D01*
X0058422Y0267605D01*
X0057691Y0265841D01*
X0056341Y0264491D01*
X0054577Y0263760D01*
X0055660Y0264209D02*
X0061584Y0264209D01*
X0060903Y0264491D02*
X0062667Y0263760D01*
X0064577Y0263760D01*
X0066341Y0264491D01*
X0067691Y0265841D01*
X0068422Y0267605D01*
X0068422Y0269515D01*
X0067691Y0271279D01*
X0066341Y0272629D01*
X0064577Y0273360D01*
X0062667Y0273360D01*
X0060903Y0272629D01*
X0059553Y0271279D01*
X0058822Y0269515D01*
X0058822Y0267605D01*
X0059553Y0265841D01*
X0060903Y0264491D01*
X0060187Y0265207D02*
X0057057Y0265207D01*
X0057842Y0266206D02*
X0059402Y0266206D01*
X0058988Y0267204D02*
X0058256Y0267204D01*
X0058422Y0268203D02*
X0058822Y0268203D01*
X0058822Y0269201D02*
X0058422Y0269201D01*
X0058138Y0270200D02*
X0059106Y0270200D01*
X0059519Y0271198D02*
X0057725Y0271198D01*
X0056773Y0272197D02*
X0060471Y0272197D01*
X0062270Y0273195D02*
X0054974Y0273195D01*
X0054577Y0273760D02*
X0056341Y0274491D01*
X0057691Y0275841D01*
X0058422Y0277605D01*
X0058422Y0279515D01*
X0057691Y0281279D01*
X0056341Y0282629D01*
X0054577Y0283360D01*
X0052667Y0283360D01*
X0050903Y0282629D01*
X0049553Y0281279D01*
X0048822Y0279515D01*
X0048822Y0277605D01*
X0049553Y0275841D01*
X0050903Y0274491D01*
X0052667Y0273760D01*
X0054577Y0273760D01*
X0055624Y0274194D02*
X0061620Y0274194D01*
X0060903Y0274491D02*
X0062667Y0273760D01*
X0064577Y0273760D01*
X0066341Y0274491D01*
X0067691Y0275841D01*
X0068422Y0277605D01*
X0068422Y0279515D01*
X0067691Y0281279D01*
X0066341Y0282629D01*
X0064577Y0283360D01*
X0062667Y0283360D01*
X0060903Y0282629D01*
X0059553Y0281279D01*
X0058822Y0279515D01*
X0058822Y0277605D01*
X0059553Y0275841D01*
X0060903Y0274491D01*
X0060202Y0275192D02*
X0057043Y0275192D01*
X0057836Y0276191D02*
X0059408Y0276191D01*
X0058994Y0277189D02*
X0058250Y0277189D01*
X0058422Y0278188D02*
X0058822Y0278188D01*
X0058822Y0279186D02*
X0058422Y0279186D01*
X0058144Y0280185D02*
X0059100Y0280185D01*
X0059513Y0281183D02*
X0057731Y0281183D01*
X0056788Y0282182D02*
X0060456Y0282182D01*
X0062234Y0283180D02*
X0055010Y0283180D01*
X0052234Y0283180D02*
X0045922Y0283180D01*
X0045922Y0282182D02*
X0050456Y0282182D01*
X0049513Y0281183D02*
X0045922Y0281183D01*
X0045922Y0280185D02*
X0049100Y0280185D01*
X0048822Y0279186D02*
X0045922Y0279186D01*
X0045922Y0278188D02*
X0048822Y0278188D01*
X0048994Y0277189D02*
X0045922Y0277189D01*
X0045922Y0276191D02*
X0049408Y0276191D01*
X0050202Y0275192D02*
X0045922Y0275192D01*
X0045922Y0274194D02*
X0051620Y0274194D01*
X0052270Y0273195D02*
X0045922Y0273195D01*
X0045922Y0272197D02*
X0050471Y0272197D01*
X0049519Y0271198D02*
X0045922Y0271198D01*
X0045922Y0270200D02*
X0049106Y0270200D01*
X0048822Y0269201D02*
X0045922Y0269201D01*
X0045922Y0268203D02*
X0048822Y0268203D01*
X0048988Y0267204D02*
X0045922Y0267204D01*
X0045922Y0266206D02*
X0049402Y0266206D01*
X0050187Y0265207D02*
X0045922Y0265207D01*
X0045922Y0264209D02*
X0051584Y0264209D01*
X0052306Y0263210D02*
X0045922Y0263210D01*
X0045922Y0262212D02*
X0050485Y0262212D01*
X0049526Y0261213D02*
X0045922Y0261213D01*
X0045922Y0260215D02*
X0049112Y0260215D01*
X0048822Y0259216D02*
X0045922Y0259216D01*
X0045922Y0258218D02*
X0048822Y0258218D01*
X0048982Y0257219D02*
X0045922Y0257219D01*
X0045922Y0256221D02*
X0049396Y0256221D01*
X0050172Y0255222D02*
X0045922Y0255222D01*
X0045922Y0254224D02*
X0051548Y0254224D01*
X0052341Y0253225D02*
X0045922Y0253225D01*
X0045922Y0252227D02*
X0050500Y0252227D01*
X0049532Y0251228D02*
X0045922Y0251228D01*
X0045922Y0250230D02*
X0049118Y0250230D01*
X0048822Y0249231D02*
X0045922Y0249231D01*
X0045922Y0248232D02*
X0048822Y0248232D01*
X0048976Y0247234D02*
X0045922Y0247234D01*
X0045922Y0246235D02*
X0049389Y0246235D01*
X0050157Y0245237D02*
X0045922Y0245237D01*
X0045922Y0244238D02*
X0051512Y0244238D01*
X0052377Y0243240D02*
X0045922Y0243240D01*
X0045922Y0242241D02*
X0050515Y0242241D01*
X0049538Y0241243D02*
X0045922Y0241243D01*
X0045922Y0240244D02*
X0049124Y0240244D01*
X0048822Y0239246D02*
X0045922Y0239246D01*
X0045922Y0238247D02*
X0048822Y0238247D01*
X0048970Y0237249D02*
X0045922Y0237249D01*
X0045922Y0236250D02*
X0049383Y0236250D01*
X0050142Y0235252D02*
X0045922Y0235252D01*
X0045922Y0234253D02*
X0051476Y0234253D01*
X0052413Y0233255D02*
X0045922Y0233255D01*
X0045922Y0232256D02*
X0050530Y0232256D01*
X0049544Y0231258D02*
X0045922Y0231258D01*
X0045922Y0230259D02*
X0049130Y0230259D01*
X0048822Y0229261D02*
X0045922Y0229261D01*
X0045922Y0228262D02*
X0048822Y0228262D01*
X0048963Y0227264D02*
X0045922Y0227264D01*
X0045922Y0226265D02*
X0049377Y0226265D01*
X0050127Y0225267D02*
X0045922Y0225267D01*
X0045922Y0224268D02*
X0051440Y0224268D01*
X0052449Y0223270D02*
X0045922Y0223270D01*
X0045922Y0222271D02*
X0050545Y0222271D01*
X0049550Y0221273D02*
X0045922Y0221273D01*
X0045922Y0220274D02*
X0049137Y0220274D01*
X0048822Y0219276D02*
X0045922Y0219276D01*
X0045922Y0218277D02*
X0048822Y0218277D01*
X0048957Y0217279D02*
X0045922Y0217279D01*
X0045922Y0216280D02*
X0049371Y0216280D01*
X0050112Y0215282D02*
X0045922Y0215282D01*
X0045922Y0214283D02*
X0051404Y0214283D01*
X0052485Y0213285D02*
X0045922Y0213285D01*
X0045922Y0212286D02*
X0050560Y0212286D01*
X0049561Y0211288D02*
X0045922Y0211288D01*
X0045922Y0210289D02*
X0049143Y0210289D01*
X0048822Y0209291D02*
X0045922Y0209291D01*
X0045922Y0208292D02*
X0048822Y0208292D01*
X0048951Y0207294D02*
X0045922Y0207294D01*
X0045922Y0206295D02*
X0049365Y0206295D01*
X0050097Y0205296D02*
X0045922Y0205296D01*
X0045922Y0204298D02*
X0051368Y0204298D01*
X0052521Y0203299D02*
X0045922Y0203299D01*
X0045922Y0202301D02*
X0050575Y0202301D01*
X0049576Y0201302D02*
X0045922Y0201302D01*
X0045922Y0200304D02*
X0049149Y0200304D01*
X0048822Y0199305D02*
X0045922Y0199305D01*
X0045922Y0198307D02*
X0048822Y0198307D01*
X0048945Y0197308D02*
X0045922Y0197308D01*
X0045922Y0196310D02*
X0049359Y0196310D01*
X0050082Y0195311D02*
X0045922Y0195311D01*
X0045922Y0194313D02*
X0051332Y0194313D01*
X0052557Y0193314D02*
X0045922Y0193314D01*
X0045922Y0192316D02*
X0050590Y0192316D01*
X0049591Y0191317D02*
X0045922Y0191317D01*
X0045922Y0190319D02*
X0049155Y0190319D01*
X0048822Y0189320D02*
X0045922Y0189320D01*
X0045922Y0188322D02*
X0048822Y0188322D01*
X0048939Y0187323D02*
X0045922Y0187323D01*
X0045922Y0186325D02*
X0049352Y0186325D01*
X0050068Y0185326D02*
X0045922Y0185326D01*
X0045922Y0184328D02*
X0051297Y0184328D01*
X0052593Y0183329D02*
X0045922Y0183329D01*
X0045922Y0182331D02*
X0050605Y0182331D01*
X0050903Y0182629D02*
X0049553Y0181279D01*
X0048822Y0179515D01*
X0048822Y0177605D01*
X0049553Y0175841D01*
X0050903Y0174491D01*
X0052667Y0173760D01*
X0054577Y0173760D01*
X0056341Y0174491D01*
X0057691Y0175841D01*
X0058422Y0177605D01*
X0058422Y0179515D01*
X0057691Y0181279D01*
X0056341Y0182629D01*
X0054577Y0183360D01*
X0052667Y0183360D01*
X0050903Y0182629D01*
X0049606Y0181332D02*
X0045922Y0181332D01*
X0045922Y0180334D02*
X0049161Y0180334D01*
X0048822Y0179335D02*
X0045922Y0179335D01*
X0045922Y0178337D02*
X0048822Y0178337D01*
X0048933Y0177338D02*
X0045922Y0177338D01*
X0045922Y0176340D02*
X0049346Y0176340D01*
X0050053Y0175341D02*
X0045922Y0175341D01*
X0045922Y0174343D02*
X0051261Y0174343D01*
X0052629Y0173344D02*
X0045922Y0173344D01*
X0045922Y0172346D02*
X0050619Y0172346D01*
X0050903Y0172629D02*
X0049553Y0171279D01*
X0048822Y0169515D01*
X0048822Y0167605D01*
X0049553Y0165841D01*
X0050903Y0164491D01*
X0052667Y0163760D01*
X0054577Y0163760D01*
X0056341Y0164491D01*
X0057691Y0165841D01*
X0058422Y0167605D01*
X0058422Y0169515D01*
X0057691Y0171279D01*
X0056341Y0172629D01*
X0054577Y0173360D01*
X0052667Y0173360D01*
X0050903Y0172629D01*
X0049621Y0171347D02*
X0045922Y0171347D01*
X0045922Y0170349D02*
X0049167Y0170349D01*
X0048822Y0169350D02*
X0045922Y0169350D01*
X0045922Y0168352D02*
X0048822Y0168352D01*
X0048926Y0167353D02*
X0045922Y0167353D01*
X0045922Y0166355D02*
X0049340Y0166355D01*
X0050038Y0165356D02*
X0045922Y0165356D01*
X0045922Y0164358D02*
X0051225Y0164358D01*
X0052665Y0163359D02*
X0045922Y0163359D01*
X0045922Y0162361D02*
X0050634Y0162361D01*
X0050903Y0162629D02*
X0049553Y0161279D01*
X0048822Y0159515D01*
X0048822Y0157605D01*
X0049553Y0155841D01*
X0050903Y0154491D01*
X0052667Y0153760D01*
X0054577Y0153760D01*
X0056341Y0154491D01*
X0057691Y0155841D01*
X0058422Y0157605D01*
X0058422Y0159515D01*
X0057691Y0161279D01*
X0056341Y0162629D01*
X0054577Y0163360D01*
X0052667Y0163360D01*
X0050903Y0162629D01*
X0049636Y0161362D02*
X0045922Y0161362D01*
X0045922Y0160363D02*
X0049174Y0160363D01*
X0048822Y0159365D02*
X0045922Y0159365D01*
X0045922Y0158366D02*
X0048822Y0158366D01*
X0048920Y0157368D02*
X0045922Y0157368D01*
X0045922Y0156369D02*
X0049334Y0156369D01*
X0050023Y0155371D02*
X0045922Y0155371D01*
X0045922Y0154372D02*
X0051189Y0154372D01*
X0050903Y0152629D02*
X0049553Y0151279D01*
X0048822Y0149515D01*
X0048822Y0147605D01*
X0049553Y0145841D01*
X0050903Y0144491D01*
X0052667Y0143760D01*
X0054577Y0143760D01*
X0056341Y0144491D01*
X0057691Y0145841D01*
X0058422Y0147605D01*
X0058422Y0149515D01*
X0057691Y0151279D01*
X0056341Y0152629D01*
X0054577Y0153360D01*
X0052667Y0153360D01*
X0050903Y0152629D01*
X0050649Y0152375D02*
X0045922Y0152375D01*
X0045922Y0151377D02*
X0049651Y0151377D01*
X0049180Y0150378D02*
X0045922Y0150378D01*
X0045922Y0149380D02*
X0048822Y0149380D01*
X0048822Y0148381D02*
X0045922Y0148381D01*
X0045922Y0147383D02*
X0048914Y0147383D01*
X0049328Y0146384D02*
X0045922Y0146384D01*
X0045922Y0145386D02*
X0050008Y0145386D01*
X0051153Y0144387D02*
X0045922Y0144387D01*
X0045922Y0143389D02*
X0086622Y0143389D01*
X0086622Y0144387D02*
X0086091Y0144387D01*
X0086580Y0142390D02*
X0086622Y0142390D01*
X0086595Y0152375D02*
X0086622Y0152375D01*
X0086622Y0153374D02*
X0045922Y0153374D01*
X0041322Y0153374D02*
X0020622Y0153374D01*
X0020622Y0154372D02*
X0021189Y0154372D01*
X0020649Y0152375D02*
X0020622Y0152375D01*
X0020622Y0144387D02*
X0021153Y0144387D01*
X0020622Y0143389D02*
X0041322Y0143389D01*
X0041322Y0144387D02*
X0036091Y0144387D01*
X0037236Y0145386D02*
X0041322Y0145386D01*
X0041322Y0146384D02*
X0037916Y0146384D01*
X0038330Y0147383D02*
X0041322Y0147383D01*
X0041322Y0148381D02*
X0038422Y0148381D01*
X0038422Y0149380D02*
X0041322Y0149380D01*
X0041322Y0150378D02*
X0038064Y0150378D01*
X0037593Y0151377D02*
X0041322Y0151377D01*
X0041322Y0152375D02*
X0036595Y0152375D01*
X0036055Y0154372D02*
X0041322Y0154372D01*
X0041322Y0155371D02*
X0037221Y0155371D01*
X0037910Y0156369D02*
X0041322Y0156369D01*
X0041322Y0157368D02*
X0038324Y0157368D01*
X0038422Y0158366D02*
X0041322Y0158366D01*
X0041322Y0159365D02*
X0038422Y0159365D01*
X0038070Y0160363D02*
X0041322Y0160363D01*
X0041322Y0161362D02*
X0037608Y0161362D01*
X0036610Y0162361D02*
X0041322Y0162361D01*
X0041322Y0163359D02*
X0034579Y0163359D01*
X0036019Y0164358D02*
X0041322Y0164358D01*
X0041322Y0165356D02*
X0037206Y0165356D01*
X0037904Y0166355D02*
X0041322Y0166355D01*
X0041322Y0167353D02*
X0038318Y0167353D01*
X0038422Y0168352D02*
X0041322Y0168352D01*
X0041322Y0169350D02*
X0038422Y0169350D01*
X0038077Y0170349D02*
X0041322Y0170349D01*
X0041322Y0171347D02*
X0037623Y0171347D01*
X0036625Y0172346D02*
X0041322Y0172346D01*
X0041322Y0173344D02*
X0034615Y0173344D01*
X0035983Y0174343D02*
X0041322Y0174343D01*
X0041322Y0175341D02*
X0037191Y0175341D01*
X0037898Y0176340D02*
X0041322Y0176340D01*
X0041322Y0177338D02*
X0038311Y0177338D01*
X0038422Y0178337D02*
X0041322Y0178337D01*
X0041322Y0179335D02*
X0038422Y0179335D01*
X0038083Y0180334D02*
X0041322Y0180334D01*
X0041322Y0181332D02*
X0037638Y0181332D01*
X0036640Y0182331D02*
X0041322Y0182331D01*
X0041322Y0183329D02*
X0034651Y0183329D01*
X0035948Y0184328D02*
X0041322Y0184328D01*
X0041322Y0185326D02*
X0037177Y0185326D01*
X0037892Y0186325D02*
X0041322Y0186325D01*
X0041322Y0187323D02*
X0038305Y0187323D01*
X0038422Y0188322D02*
X0041322Y0188322D01*
X0041322Y0189320D02*
X0038422Y0189320D01*
X0038089Y0190319D02*
X0041322Y0190319D01*
X0041322Y0191317D02*
X0037653Y0191317D01*
X0036654Y0192316D02*
X0041322Y0192316D01*
X0041322Y0193314D02*
X0034687Y0193314D01*
X0035912Y0194313D02*
X0041322Y0194313D01*
X0041322Y0195311D02*
X0037162Y0195311D01*
X0037885Y0196310D02*
X0041322Y0196310D01*
X0041322Y0197308D02*
X0038299Y0197308D01*
X0038422Y0198307D02*
X0041322Y0198307D01*
X0041322Y0199305D02*
X0038422Y0199305D01*
X0038095Y0200304D02*
X0041322Y0200304D01*
X0041322Y0201302D02*
X0037668Y0201302D01*
X0036669Y0202301D02*
X0041322Y0202301D01*
X0041322Y0203299D02*
X0034723Y0203299D01*
X0035876Y0204298D02*
X0041322Y0204298D01*
X0041322Y0205296D02*
X0037147Y0205296D01*
X0037879Y0206295D02*
X0041322Y0206295D01*
X0041322Y0207294D02*
X0038293Y0207294D01*
X0038422Y0208292D02*
X0041322Y0208292D01*
X0041322Y0209291D02*
X0038422Y0209291D01*
X0038101Y0210289D02*
X0041322Y0210289D01*
X0041322Y0211288D02*
X0037683Y0211288D01*
X0036684Y0212286D02*
X0041322Y0212286D01*
X0041322Y0213285D02*
X0034759Y0213285D01*
X0035840Y0214283D02*
X0041322Y0214283D01*
X0041322Y0215282D02*
X0037132Y0215282D01*
X0037873Y0216280D02*
X0041322Y0216280D01*
X0041322Y0217279D02*
X0038287Y0217279D01*
X0038422Y0218277D02*
X0041322Y0218277D01*
X0041322Y0219276D02*
X0038422Y0219276D01*
X0038107Y0220274D02*
X0041322Y0220274D01*
X0041322Y0221273D02*
X0037694Y0221273D01*
X0036699Y0222271D02*
X0041322Y0222271D01*
X0041322Y0223270D02*
X0034795Y0223270D01*
X0035804Y0224268D02*
X0041322Y0224268D01*
X0041322Y0225267D02*
X0037117Y0225267D01*
X0037867Y0226265D02*
X0041322Y0226265D01*
X0041322Y0227264D02*
X0038281Y0227264D01*
X0038422Y0228262D02*
X0041322Y0228262D01*
X0041322Y0229261D02*
X0038422Y0229261D01*
X0038114Y0230259D02*
X0041322Y0230259D01*
X0041322Y0231258D02*
X0037700Y0231258D01*
X0036714Y0232256D02*
X0041322Y0232256D01*
X0041322Y0233255D02*
X0034831Y0233255D01*
X0035768Y0234253D02*
X0041322Y0234253D01*
X0041322Y0235252D02*
X0037102Y0235252D01*
X0037861Y0236250D02*
X0041322Y0236250D01*
X0041322Y0237249D02*
X0038274Y0237249D01*
X0038422Y0238247D02*
X0041322Y0238247D01*
X0041322Y0239246D02*
X0038422Y0239246D01*
X0038120Y0240244D02*
X0041322Y0240244D01*
X0041322Y0241243D02*
X0037706Y0241243D01*
X0036729Y0242241D02*
X0041322Y0242241D01*
X0041322Y0243240D02*
X0034867Y0243240D01*
X0035732Y0244238D02*
X0041322Y0244238D01*
X0041322Y0245237D02*
X0037087Y0245237D01*
X0037855Y0246235D02*
X0041322Y0246235D01*
X0041322Y0247234D02*
X0038268Y0247234D01*
X0038422Y0248232D02*
X0041322Y0248232D01*
X0041322Y0249231D02*
X0038422Y0249231D01*
X0038126Y0250230D02*
X0041322Y0250230D01*
X0041322Y0251228D02*
X0037712Y0251228D01*
X0036744Y0252227D02*
X0041322Y0252227D01*
X0041322Y0253225D02*
X0034903Y0253225D01*
X0035696Y0254224D02*
X0041322Y0254224D01*
X0041322Y0255222D02*
X0037072Y0255222D01*
X0037848Y0256221D02*
X0041322Y0256221D01*
X0041322Y0257219D02*
X0038262Y0257219D01*
X0038422Y0258218D02*
X0041322Y0258218D01*
X0041322Y0259216D02*
X0038422Y0259216D01*
X0038132Y0260215D02*
X0041322Y0260215D01*
X0041322Y0261213D02*
X0037719Y0261213D01*
X0036759Y0262212D02*
X0041322Y0262212D01*
X0041322Y0263210D02*
X0034939Y0263210D01*
X0035660Y0264209D02*
X0041322Y0264209D01*
X0041322Y0265207D02*
X0037057Y0265207D01*
X0037842Y0266206D02*
X0041322Y0266206D01*
X0041322Y0267204D02*
X0038256Y0267204D01*
X0038422Y0268203D02*
X0041322Y0268203D01*
X0041322Y0269201D02*
X0038422Y0269201D01*
X0038138Y0270200D02*
X0041322Y0270200D01*
X0041322Y0271198D02*
X0037725Y0271198D01*
X0036773Y0272197D02*
X0041322Y0272197D01*
X0041322Y0273195D02*
X0034974Y0273195D01*
X0035624Y0274194D02*
X0041322Y0274194D01*
X0041322Y0275192D02*
X0037043Y0275192D01*
X0037836Y0276191D02*
X0041322Y0276191D01*
X0041322Y0277189D02*
X0038250Y0277189D01*
X0038422Y0278188D02*
X0041322Y0278188D01*
X0041322Y0279186D02*
X0038422Y0279186D01*
X0038144Y0280185D02*
X0041322Y0280185D01*
X0041322Y0281183D02*
X0037731Y0281183D01*
X0036788Y0282182D02*
X0041322Y0282182D01*
X0040749Y0283180D02*
X0035010Y0283180D01*
X0032234Y0283180D02*
X0025010Y0283180D01*
X0022234Y0283180D02*
X0020622Y0283180D01*
X0020622Y0284179D02*
X0039750Y0284179D01*
X0038752Y0285177D02*
X0020622Y0285177D01*
X0020622Y0286176D02*
X0037753Y0286176D01*
X0036755Y0287174D02*
X0020622Y0287174D01*
X0020622Y0288173D02*
X0035756Y0288173D01*
X0034758Y0289171D02*
X0020622Y0289171D01*
X0020622Y0290170D02*
X0033759Y0290170D01*
X0032761Y0291168D02*
X0020622Y0291168D01*
X0020622Y0292167D02*
X0031762Y0292167D01*
X0031322Y0293165D02*
X0020622Y0293165D01*
X0020622Y0294164D02*
X0031322Y0294164D01*
X0031322Y0295163D02*
X0020622Y0295163D01*
X0020622Y0296161D02*
X0031322Y0296161D01*
X0031322Y0297160D02*
X0020622Y0297160D01*
X0020622Y0298158D02*
X0031322Y0298158D01*
X0030716Y0299157D02*
X0020622Y0299157D01*
X0020622Y0300155D02*
X0029242Y0300155D01*
X0028244Y0301154D02*
X0020622Y0301154D01*
X0020622Y0302152D02*
X0027722Y0302152D01*
X0027308Y0303151D02*
X0020622Y0303151D01*
X0020622Y0304149D02*
X0027059Y0304149D01*
X0027059Y0305148D02*
X0020622Y0305148D01*
X0020622Y0306146D02*
X0027059Y0306146D01*
X0027384Y0307145D02*
X0020622Y0307145D01*
X0020622Y0308143D02*
X0027797Y0308143D01*
X0028427Y0309142D02*
X0020622Y0309142D01*
X0020622Y0310140D02*
X0029425Y0310140D01*
X0031158Y0311139D02*
X0020622Y0311139D01*
X0020622Y0312137D02*
X0041322Y0312137D01*
X0041322Y0312607D02*
X0041322Y0297607D01*
X0042669Y0296260D01*
X0047306Y0291623D01*
X0061901Y0291623D01*
X0063154Y0288599D01*
X0065798Y0285955D01*
X0069252Y0284524D01*
X0072992Y0284524D01*
X0076446Y0285955D01*
X0079090Y0288599D01*
X0080521Y0292053D01*
X0080521Y0295793D01*
X0079090Y0299247D01*
X0076446Y0301891D01*
X0072992Y0303322D01*
X0069252Y0303322D01*
X0065798Y0301891D01*
X0063154Y0299247D01*
X0061901Y0296223D01*
X0049212Y0296223D01*
X0045922Y0299513D01*
X0045922Y0314513D01*
X0039598Y0320837D01*
X0040185Y0322255D01*
X0040185Y0324865D01*
X0039186Y0327277D01*
X0037339Y0329123D01*
X0034927Y0330123D01*
X0032317Y0330123D01*
X0029905Y0329123D01*
X0028059Y0327277D01*
X0027059Y0324865D01*
X0027059Y0322255D01*
X0028059Y0319843D01*
X0029905Y0317996D01*
X0032317Y0316997D01*
X0034927Y0316997D01*
X0036345Y0317585D01*
X0041322Y0312607D01*
X0040794Y0313136D02*
X0020622Y0313136D01*
X0020622Y0314134D02*
X0039795Y0314134D01*
X0038797Y0315133D02*
X0020622Y0315133D01*
X0020622Y0316131D02*
X0037798Y0316131D01*
X0036800Y0317130D02*
X0035247Y0317130D01*
X0036086Y0311139D02*
X0041322Y0311139D01*
X0041322Y0310140D02*
X0037819Y0310140D01*
X0038817Y0309142D02*
X0041322Y0309142D01*
X0041322Y0308143D02*
X0039447Y0308143D01*
X0039860Y0307145D02*
X0041322Y0307145D01*
X0041322Y0306146D02*
X0040185Y0306146D01*
X0040185Y0305148D02*
X0041322Y0305148D01*
X0041322Y0304149D02*
X0040185Y0304149D01*
X0039936Y0303151D02*
X0041322Y0303151D01*
X0041322Y0302152D02*
X0039522Y0302152D01*
X0039000Y0301154D02*
X0041322Y0301154D01*
X0041322Y0300155D02*
X0038002Y0300155D01*
X0036528Y0299157D02*
X0041322Y0299157D01*
X0041322Y0298158D02*
X0035922Y0298158D01*
X0035922Y0297160D02*
X0041770Y0297160D01*
X0042768Y0296161D02*
X0035922Y0296161D01*
X0035922Y0295163D02*
X0043767Y0295163D01*
X0044765Y0294164D02*
X0036271Y0294164D01*
X0037269Y0293165D02*
X0045764Y0293165D01*
X0046762Y0292167D02*
X0038268Y0292167D01*
X0039266Y0291168D02*
X0062089Y0291168D01*
X0062503Y0290170D02*
X0040265Y0290170D01*
X0041263Y0289171D02*
X0062917Y0289171D01*
X0063580Y0288173D02*
X0042262Y0288173D01*
X0043260Y0287174D02*
X0064578Y0287174D01*
X0065577Y0286176D02*
X0044259Y0286176D01*
X0045257Y0285177D02*
X0067674Y0285177D01*
X0066788Y0282182D02*
X0070456Y0282182D01*
X0069513Y0281183D02*
X0067731Y0281183D01*
X0068144Y0280185D02*
X0069100Y0280185D01*
X0068822Y0279186D02*
X0068422Y0279186D01*
X0068422Y0278188D02*
X0068822Y0278188D01*
X0068994Y0277189D02*
X0068250Y0277189D01*
X0067836Y0276191D02*
X0069408Y0276191D01*
X0070202Y0275192D02*
X0067043Y0275192D01*
X0065624Y0274194D02*
X0071620Y0274194D01*
X0072270Y0273195D02*
X0064974Y0273195D01*
X0066773Y0272197D02*
X0070471Y0272197D01*
X0069519Y0271198D02*
X0067725Y0271198D01*
X0068138Y0270200D02*
X0069106Y0270200D01*
X0068822Y0269201D02*
X0068422Y0269201D01*
X0068422Y0268203D02*
X0068822Y0268203D01*
X0068988Y0267204D02*
X0068256Y0267204D01*
X0067842Y0266206D02*
X0069402Y0266206D01*
X0070187Y0265207D02*
X0067057Y0265207D01*
X0065660Y0264209D02*
X0071584Y0264209D01*
X0072306Y0263210D02*
X0064939Y0263210D01*
X0066759Y0262212D02*
X0070485Y0262212D01*
X0069526Y0261213D02*
X0067719Y0261213D01*
X0068132Y0260215D02*
X0069112Y0260215D01*
X0068822Y0259216D02*
X0068422Y0259216D01*
X0068422Y0258218D02*
X0068822Y0258218D01*
X0068982Y0257219D02*
X0068262Y0257219D01*
X0067848Y0256221D02*
X0069396Y0256221D01*
X0070172Y0255222D02*
X0067072Y0255222D01*
X0065696Y0254224D02*
X0071548Y0254224D01*
X0072341Y0253225D02*
X0064903Y0253225D01*
X0066744Y0252227D02*
X0070500Y0252227D01*
X0069532Y0251228D02*
X0067712Y0251228D01*
X0068126Y0250230D02*
X0069118Y0250230D01*
X0068822Y0249231D02*
X0068422Y0249231D01*
X0068422Y0248232D02*
X0068822Y0248232D01*
X0068976Y0247234D02*
X0068268Y0247234D01*
X0067855Y0246235D02*
X0069389Y0246235D01*
X0070157Y0245237D02*
X0067087Y0245237D01*
X0065732Y0244238D02*
X0071512Y0244238D01*
X0072377Y0243240D02*
X0064867Y0243240D01*
X0066729Y0242241D02*
X0070515Y0242241D01*
X0069538Y0241243D02*
X0067706Y0241243D01*
X0068120Y0240244D02*
X0069124Y0240244D01*
X0068822Y0239246D02*
X0068422Y0239246D01*
X0068422Y0238247D02*
X0068822Y0238247D01*
X0068970Y0237249D02*
X0068274Y0237249D01*
X0067861Y0236250D02*
X0069383Y0236250D01*
X0070142Y0235252D02*
X0067102Y0235252D01*
X0065768Y0234253D02*
X0071476Y0234253D01*
X0072413Y0233255D02*
X0064831Y0233255D01*
X0066714Y0232256D02*
X0070530Y0232256D01*
X0069544Y0231258D02*
X0067700Y0231258D01*
X0068114Y0230259D02*
X0069130Y0230259D01*
X0068822Y0229261D02*
X0068422Y0229261D01*
X0068422Y0228262D02*
X0068822Y0228262D01*
X0068963Y0227264D02*
X0068281Y0227264D01*
X0067867Y0226265D02*
X0069377Y0226265D01*
X0070127Y0225267D02*
X0067117Y0225267D01*
X0065804Y0224268D02*
X0071440Y0224268D01*
X0072449Y0223270D02*
X0064795Y0223270D01*
X0066699Y0222271D02*
X0070545Y0222271D01*
X0069550Y0221273D02*
X0067694Y0221273D01*
X0068107Y0220274D02*
X0069137Y0220274D01*
X0068822Y0219276D02*
X0068422Y0219276D01*
X0068422Y0218277D02*
X0068822Y0218277D01*
X0068957Y0217279D02*
X0068287Y0217279D01*
X0067873Y0216280D02*
X0069371Y0216280D01*
X0070112Y0215282D02*
X0067132Y0215282D01*
X0065840Y0214283D02*
X0071404Y0214283D01*
X0072485Y0213285D02*
X0064759Y0213285D01*
X0066684Y0212286D02*
X0070560Y0212286D01*
X0069561Y0211288D02*
X0067683Y0211288D01*
X0068101Y0210289D02*
X0069143Y0210289D01*
X0068822Y0209291D02*
X0068422Y0209291D01*
X0068422Y0208292D02*
X0068822Y0208292D01*
X0068951Y0207294D02*
X0068293Y0207294D01*
X0067879Y0206295D02*
X0069365Y0206295D01*
X0070097Y0205296D02*
X0067147Y0205296D01*
X0065876Y0204298D02*
X0071368Y0204298D01*
X0072521Y0203299D02*
X0064723Y0203299D01*
X0066669Y0202301D02*
X0070575Y0202301D01*
X0069576Y0201302D02*
X0067668Y0201302D01*
X0068095Y0200304D02*
X0069149Y0200304D01*
X0068822Y0199305D02*
X0068422Y0199305D01*
X0068422Y0198307D02*
X0068822Y0198307D01*
X0068945Y0197308D02*
X0068299Y0197308D01*
X0067885Y0196310D02*
X0069359Y0196310D01*
X0070082Y0195311D02*
X0067162Y0195311D01*
X0062521Y0203299D02*
X0054723Y0203299D01*
X0054759Y0213285D02*
X0062485Y0213285D01*
X0060590Y0192316D02*
X0056654Y0192316D01*
X0057653Y0191317D02*
X0059591Y0191317D01*
X0059155Y0190319D02*
X0058089Y0190319D01*
X0058422Y0189320D02*
X0058822Y0189320D01*
X0058822Y0188322D02*
X0058422Y0188322D01*
X0058305Y0187323D02*
X0058939Y0187323D01*
X0059352Y0186325D02*
X0057892Y0186325D01*
X0057177Y0185326D02*
X0060068Y0185326D01*
X0061297Y0184328D02*
X0055948Y0184328D01*
X0054651Y0183329D02*
X0062593Y0183329D01*
X0064651Y0183329D02*
X0072593Y0183329D01*
X0074651Y0183329D02*
X0082593Y0183329D01*
X0081297Y0184328D02*
X0075948Y0184328D01*
X0077177Y0185326D02*
X0080068Y0185326D01*
X0079352Y0186325D02*
X0077892Y0186325D01*
X0076640Y0182331D02*
X0080605Y0182331D01*
X0079606Y0181332D02*
X0077638Y0181332D01*
X0077653Y0191317D02*
X0079591Y0191317D01*
X0080590Y0192316D02*
X0076654Y0192316D01*
X0075912Y0194313D02*
X0081332Y0194313D01*
X0082557Y0193314D02*
X0074687Y0193314D01*
X0077162Y0195311D02*
X0080082Y0195311D01*
X0079359Y0196310D02*
X0077885Y0196310D01*
X0077668Y0201302D02*
X0079576Y0201302D01*
X0080575Y0202301D02*
X0076669Y0202301D01*
X0075876Y0204298D02*
X0081368Y0204298D01*
X0082521Y0203299D02*
X0074723Y0203299D01*
X0077147Y0205296D02*
X0080097Y0205296D01*
X0079365Y0206295D02*
X0077879Y0206295D01*
X0077683Y0211288D02*
X0079561Y0211288D01*
X0080560Y0212286D02*
X0076684Y0212286D01*
X0075840Y0214283D02*
X0081404Y0214283D01*
X0082485Y0213285D02*
X0074759Y0213285D01*
X0077132Y0215282D02*
X0080112Y0215282D01*
X0079371Y0216280D02*
X0077873Y0216280D01*
X0077694Y0221273D02*
X0079550Y0221273D01*
X0080545Y0222271D02*
X0076699Y0222271D01*
X0074795Y0223270D02*
X0082449Y0223270D01*
X0081440Y0224268D02*
X0075804Y0224268D01*
X0077117Y0225267D02*
X0080127Y0225267D01*
X0079377Y0226265D02*
X0077867Y0226265D01*
X0077700Y0231258D02*
X0079544Y0231258D01*
X0080530Y0232256D02*
X0076714Y0232256D01*
X0074831Y0233255D02*
X0082413Y0233255D01*
X0081476Y0234253D02*
X0075768Y0234253D01*
X0077102Y0235252D02*
X0080142Y0235252D01*
X0079383Y0236250D02*
X0077861Y0236250D01*
X0077706Y0241243D02*
X0079538Y0241243D01*
X0080515Y0242241D02*
X0076729Y0242241D01*
X0074867Y0243240D02*
X0082377Y0243240D01*
X0081512Y0244238D02*
X0075732Y0244238D01*
X0077087Y0245237D02*
X0080157Y0245237D01*
X0079389Y0246235D02*
X0077855Y0246235D01*
X0077712Y0251228D02*
X0079532Y0251228D01*
X0080500Y0252227D02*
X0076744Y0252227D01*
X0074903Y0253225D02*
X0082341Y0253225D01*
X0081548Y0254224D02*
X0075696Y0254224D01*
X0077072Y0255222D02*
X0080172Y0255222D01*
X0079396Y0256221D02*
X0077848Y0256221D01*
X0077719Y0261213D02*
X0079526Y0261213D01*
X0080485Y0262212D02*
X0076759Y0262212D01*
X0074939Y0263210D02*
X0082306Y0263210D01*
X0081584Y0264209D02*
X0075660Y0264209D01*
X0077057Y0265207D02*
X0080187Y0265207D01*
X0079402Y0266206D02*
X0077842Y0266206D01*
X0077725Y0271198D02*
X0079519Y0271198D01*
X0080471Y0272197D02*
X0076773Y0272197D01*
X0074974Y0273195D02*
X0082270Y0273195D01*
X0081620Y0274194D02*
X0075624Y0274194D01*
X0077043Y0275192D02*
X0080202Y0275192D01*
X0079408Y0276191D02*
X0077836Y0276191D01*
X0077731Y0281183D02*
X0079513Y0281183D01*
X0080456Y0282182D02*
X0076788Y0282182D01*
X0075010Y0283180D02*
X0082234Y0283180D01*
X0085010Y0283180D02*
X0086622Y0283180D01*
X0086622Y0284179D02*
X0045922Y0284179D01*
X0048275Y0297160D02*
X0053805Y0297160D01*
X0053651Y0297195D02*
X0054702Y0296955D01*
X0055773Y0296834D01*
X0055813Y0296834D01*
X0055813Y0305934D01*
X0056813Y0305934D01*
X0056813Y0306934D01*
X0065913Y0306934D01*
X0065913Y0306973D01*
X0065792Y0308045D01*
X0065552Y0309096D01*
X0065196Y0310114D01*
X0064728Y0311085D01*
X0064154Y0311998D01*
X0063482Y0312841D01*
X0062720Y0313603D01*
X0061877Y0314276D01*
X0060964Y0314849D01*
X0059992Y0315317D01*
X0058974Y0315673D01*
X0057923Y0315913D01*
X0056852Y0316034D01*
X0056813Y0316034D01*
X0056813Y0306934D01*
X0055813Y0306934D01*
X0055813Y0316034D01*
X0055773Y0316034D01*
X0054702Y0315913D01*
X0053651Y0315673D01*
X0052633Y0315317D01*
X0051662Y0314849D01*
X0050749Y0314276D01*
X0049906Y0313603D01*
X0049143Y0312841D01*
X0048471Y0311998D01*
X0047897Y0311085D01*
X0047429Y0310114D01*
X0047073Y0309096D01*
X0046833Y0308045D01*
X0046713Y0306973D01*
X0046713Y0306934D01*
X0055813Y0306934D01*
X0055813Y0305934D01*
X0046713Y0305934D01*
X0046713Y0305895D01*
X0046833Y0304823D01*
X0047073Y0303772D01*
X0047429Y0302754D01*
X0047897Y0301783D01*
X0048471Y0300870D01*
X0049143Y0300027D01*
X0049906Y0299265D01*
X0050749Y0298592D01*
X0051662Y0298019D01*
X0052633Y0297551D01*
X0053651Y0297195D01*
X0055813Y0297160D02*
X0056813Y0297160D01*
X0056813Y0296834D02*
X0056852Y0296834D01*
X0057923Y0296955D01*
X0058974Y0297195D01*
X0059992Y0297551D01*
X0060964Y0298019D01*
X0061877Y0298592D01*
X0062720Y0299265D01*
X0063482Y0300027D01*
X0064154Y0300870D01*
X0064728Y0301783D01*
X0065196Y0302754D01*
X0065552Y0303772D01*
X0065792Y0304823D01*
X0065913Y0305895D01*
X0065913Y0305934D01*
X0056813Y0305934D01*
X0056813Y0296834D01*
X0056813Y0298158D02*
X0055813Y0298158D01*
X0055813Y0299157D02*
X0056813Y0299157D01*
X0056813Y0300155D02*
X0055813Y0300155D01*
X0055813Y0301154D02*
X0056813Y0301154D01*
X0056813Y0302152D02*
X0055813Y0302152D01*
X0055813Y0303151D02*
X0056813Y0303151D01*
X0056813Y0304149D02*
X0055813Y0304149D01*
X0055813Y0305148D02*
X0056813Y0305148D01*
X0056813Y0306146D02*
X0086622Y0306146D01*
X0086622Y0305148D02*
X0065828Y0305148D01*
X0065638Y0304149D02*
X0086622Y0304149D01*
X0086622Y0303151D02*
X0073406Y0303151D01*
X0075817Y0302152D02*
X0086622Y0302152D01*
X0086622Y0301154D02*
X0077184Y0301154D01*
X0078182Y0300155D02*
X0086622Y0300155D01*
X0086622Y0299157D02*
X0079128Y0299157D01*
X0079541Y0298158D02*
X0086622Y0298158D01*
X0086622Y0297160D02*
X0079955Y0297160D01*
X0080369Y0296161D02*
X0086622Y0296161D01*
X0086622Y0295163D02*
X0080521Y0295163D01*
X0080521Y0294164D02*
X0086622Y0294164D01*
X0086622Y0293165D02*
X0080521Y0293165D01*
X0080521Y0292167D02*
X0086622Y0292167D01*
X0086622Y0291168D02*
X0080155Y0291168D01*
X0079741Y0290170D02*
X0086622Y0290170D01*
X0086622Y0289171D02*
X0079328Y0289171D01*
X0078664Y0288173D02*
X0086622Y0288173D01*
X0086622Y0287174D02*
X0077666Y0287174D01*
X0076667Y0286176D02*
X0086622Y0286176D01*
X0086622Y0285177D02*
X0074570Y0285177D01*
X0072234Y0283180D02*
X0065010Y0283180D01*
X0062289Y0297160D02*
X0058820Y0297160D01*
X0061186Y0298158D02*
X0062703Y0298158D01*
X0062584Y0299157D02*
X0063116Y0299157D01*
X0063584Y0300155D02*
X0064062Y0300155D01*
X0064332Y0301154D02*
X0065060Y0301154D01*
X0064906Y0302152D02*
X0066428Y0302152D01*
X0065334Y0303151D02*
X0068838Y0303151D01*
X0065893Y0307145D02*
X0086622Y0307145D01*
X0086622Y0308143D02*
X0065769Y0308143D01*
X0065536Y0309142D02*
X0086622Y0309142D01*
X0086622Y0310140D02*
X0065183Y0310140D01*
X0064694Y0311139D02*
X0086622Y0311139D01*
X0086622Y0312137D02*
X0064043Y0312137D01*
X0063187Y0313136D02*
X0086622Y0313136D01*
X0086622Y0314134D02*
X0075267Y0314134D01*
X0075673Y0314330D02*
X0076586Y0314903D01*
X0077429Y0315576D01*
X0078191Y0316338D01*
X0078864Y0317181D01*
X0079437Y0318094D01*
X0079905Y0319065D01*
X0080261Y0320083D01*
X0080501Y0321134D01*
X0080622Y0322206D01*
X0080622Y0322245D01*
X0071522Y0322245D01*
X0071522Y0313145D01*
X0071561Y0313145D01*
X0072633Y0313266D01*
X0073684Y0313506D01*
X0074702Y0313862D01*
X0075673Y0314330D01*
X0076874Y0315133D02*
X0086622Y0315133D01*
X0086622Y0316131D02*
X0077985Y0316131D01*
X0078823Y0317130D02*
X0086622Y0317130D01*
X0086622Y0318128D02*
X0079454Y0318128D01*
X0079927Y0319127D02*
X0086622Y0319127D01*
X0086622Y0320125D02*
X0080271Y0320125D01*
X0080499Y0321124D02*
X0086622Y0321124D01*
X0086622Y0322122D02*
X0080613Y0322122D01*
X0080622Y0323245D02*
X0080622Y0323284D01*
X0080501Y0324356D01*
X0080261Y0325407D01*
X0079905Y0326425D01*
X0079437Y0327396D01*
X0078864Y0328309D01*
X0078191Y0329152D01*
X0077429Y0329914D01*
X0076586Y0330587D01*
X0075673Y0331160D01*
X0074702Y0331628D01*
X0073684Y0331984D01*
X0072633Y0332224D01*
X0071561Y0332345D01*
X0071522Y0332345D01*
X0071522Y0323245D01*
X0070522Y0323245D01*
X0070522Y0322245D01*
X0061422Y0322245D01*
X0061422Y0322206D01*
X0061543Y0321134D01*
X0061783Y0320083D01*
X0062139Y0319065D01*
X0062607Y0318094D01*
X0063180Y0317181D01*
X0063853Y0316338D01*
X0064615Y0315576D01*
X0065458Y0314903D01*
X0066371Y0314330D01*
X0067342Y0313862D01*
X0068360Y0313506D01*
X0069411Y0313266D01*
X0070483Y0313145D01*
X0070522Y0313145D01*
X0070522Y0322245D01*
X0071522Y0322245D01*
X0071522Y0323245D01*
X0080622Y0323245D01*
X0080528Y0324119D02*
X0086622Y0324119D01*
X0086622Y0323121D02*
X0071522Y0323121D01*
X0071522Y0324119D02*
X0070522Y0324119D01*
X0070522Y0323245D02*
X0070522Y0332345D01*
X0070483Y0332345D01*
X0069411Y0332224D01*
X0068360Y0331984D01*
X0067342Y0331628D01*
X0066371Y0331160D01*
X0065458Y0330587D01*
X0064615Y0329914D01*
X0063853Y0329152D01*
X0063180Y0328309D01*
X0062607Y0327396D01*
X0062139Y0326425D01*
X0061783Y0325407D01*
X0061543Y0324356D01*
X0061422Y0323284D01*
X0061422Y0323245D01*
X0070522Y0323245D01*
X0070522Y0323121D02*
X0040185Y0323121D01*
X0040185Y0324119D02*
X0061516Y0324119D01*
X0061717Y0325118D02*
X0040080Y0325118D01*
X0039666Y0326116D02*
X0062031Y0326116D01*
X0062471Y0327115D02*
X0039253Y0327115D01*
X0038350Y0328113D02*
X0063057Y0328113D01*
X0063821Y0329112D02*
X0037351Y0329112D01*
X0034957Y0330110D02*
X0064861Y0330110D01*
X0066289Y0331109D02*
X0020622Y0331109D01*
X0020622Y0332107D02*
X0068899Y0332107D01*
X0070522Y0332107D02*
X0071522Y0332107D01*
X0071522Y0331109D02*
X0070522Y0331109D01*
X0070522Y0330110D02*
X0071522Y0330110D01*
X0071522Y0329112D02*
X0070522Y0329112D01*
X0070522Y0328113D02*
X0071522Y0328113D01*
X0071522Y0327115D02*
X0070522Y0327115D01*
X0070522Y0326116D02*
X0071522Y0326116D01*
X0071522Y0325118D02*
X0070522Y0325118D01*
X0070522Y0322122D02*
X0071522Y0322122D01*
X0071522Y0321124D02*
X0070522Y0321124D01*
X0070522Y0320125D02*
X0071522Y0320125D01*
X0071522Y0319127D02*
X0070522Y0319127D01*
X0070522Y0318128D02*
X0071522Y0318128D01*
X0071522Y0317130D02*
X0070522Y0317130D01*
X0070522Y0316131D02*
X0071522Y0316131D01*
X0071522Y0315133D02*
X0070522Y0315133D01*
X0070522Y0314134D02*
X0071522Y0314134D01*
X0066777Y0314134D02*
X0062054Y0314134D01*
X0060375Y0315133D02*
X0065170Y0315133D01*
X0064059Y0316131D02*
X0044303Y0316131D01*
X0043305Y0317130D02*
X0063221Y0317130D01*
X0062590Y0318128D02*
X0042306Y0318128D01*
X0041308Y0319127D02*
X0062117Y0319127D01*
X0061773Y0320125D02*
X0040309Y0320125D01*
X0039716Y0321124D02*
X0061545Y0321124D01*
X0061431Y0322122D02*
X0040130Y0322122D01*
X0045302Y0315133D02*
X0052250Y0315133D01*
X0050571Y0314134D02*
X0045922Y0314134D01*
X0045922Y0313136D02*
X0049438Y0313136D01*
X0048582Y0312137D02*
X0045922Y0312137D01*
X0045922Y0311139D02*
X0047931Y0311139D01*
X0047442Y0310140D02*
X0045922Y0310140D01*
X0045922Y0309142D02*
X0047089Y0309142D01*
X0046856Y0308143D02*
X0045922Y0308143D01*
X0045922Y0307145D02*
X0046732Y0307145D01*
X0045922Y0306146D02*
X0055813Y0306146D01*
X0055813Y0307145D02*
X0056813Y0307145D01*
X0056813Y0308143D02*
X0055813Y0308143D01*
X0055813Y0309142D02*
X0056813Y0309142D01*
X0056813Y0310140D02*
X0055813Y0310140D01*
X0055813Y0311139D02*
X0056813Y0311139D01*
X0056813Y0312137D02*
X0055813Y0312137D01*
X0055813Y0313136D02*
X0056813Y0313136D01*
X0056813Y0314134D02*
X0055813Y0314134D01*
X0055813Y0315133D02*
X0056813Y0315133D01*
X0049041Y0300155D02*
X0045922Y0300155D01*
X0045922Y0301154D02*
X0048293Y0301154D01*
X0047719Y0302152D02*
X0045922Y0302152D01*
X0045922Y0303151D02*
X0047291Y0303151D01*
X0046987Y0304149D02*
X0045922Y0304149D01*
X0045922Y0305148D02*
X0046797Y0305148D01*
X0046278Y0299157D02*
X0050041Y0299157D01*
X0051440Y0298158D02*
X0047277Y0298158D01*
X0031997Y0317130D02*
X0020622Y0317130D01*
X0020622Y0318128D02*
X0029773Y0318128D01*
X0028774Y0319127D02*
X0020622Y0319127D01*
X0020622Y0320125D02*
X0027941Y0320125D01*
X0027528Y0321124D02*
X0020622Y0321124D01*
X0020622Y0322122D02*
X0027114Y0322122D01*
X0027059Y0323121D02*
X0020622Y0323121D01*
X0020622Y0324119D02*
X0027059Y0324119D01*
X0027164Y0325118D02*
X0020622Y0325118D01*
X0020622Y0326116D02*
X0027578Y0326116D01*
X0027991Y0327115D02*
X0020622Y0327115D01*
X0020622Y0328113D02*
X0028895Y0328113D01*
X0029893Y0329112D02*
X0020622Y0329112D01*
X0020622Y0330110D02*
X0032287Y0330110D01*
X0030868Y0336101D02*
X0020622Y0336101D01*
X0020622Y0335103D02*
X0086622Y0335103D01*
X0086622Y0336101D02*
X0036376Y0336101D01*
X0037939Y0337100D02*
X0086622Y0337100D01*
X0086622Y0338098D02*
X0038938Y0338098D01*
X0039496Y0339097D02*
X0086622Y0339097D01*
X0086622Y0340096D02*
X0039910Y0340096D01*
X0040185Y0341094D02*
X0086622Y0341094D01*
X0086622Y0342093D02*
X0040185Y0342093D01*
X0040185Y0343091D02*
X0086622Y0343091D01*
X0086622Y0344090D02*
X0039886Y0344090D01*
X0039473Y0345088D02*
X0086622Y0345088D01*
X0086622Y0346087D02*
X0038880Y0346087D01*
X0029305Y0337100D02*
X0020622Y0337100D01*
X0020622Y0338098D02*
X0028307Y0338098D01*
X0027748Y0339097D02*
X0020622Y0339097D01*
X0020622Y0340096D02*
X0027334Y0340096D01*
X0027059Y0341094D02*
X0020622Y0341094D01*
X0020622Y0342093D02*
X0027059Y0342093D01*
X0027059Y0343091D02*
X0020622Y0343091D01*
X0020622Y0344090D02*
X0027358Y0344090D01*
X0027771Y0345088D02*
X0020622Y0345088D01*
X0020622Y0346087D02*
X0028364Y0346087D01*
X0020622Y0334104D02*
X0086622Y0334104D01*
X0086622Y0333106D02*
X0020622Y0333106D01*
X0026788Y0282182D02*
X0030456Y0282182D01*
X0029513Y0281183D02*
X0027731Y0281183D01*
X0027836Y0276191D02*
X0029408Y0276191D01*
X0030202Y0275192D02*
X0027043Y0275192D01*
X0025624Y0274194D02*
X0031620Y0274194D01*
X0032270Y0273195D02*
X0024974Y0273195D01*
X0022270Y0273195D02*
X0020622Y0273195D01*
X0020622Y0274194D02*
X0021620Y0274194D01*
X0021584Y0264209D02*
X0020622Y0264209D01*
X0020622Y0263210D02*
X0022306Y0263210D01*
X0024939Y0263210D02*
X0032306Y0263210D01*
X0031584Y0264209D02*
X0025660Y0264209D01*
X0027057Y0265207D02*
X0030187Y0265207D01*
X0029402Y0266206D02*
X0027842Y0266206D01*
X0026759Y0262212D02*
X0030485Y0262212D01*
X0029526Y0261213D02*
X0027719Y0261213D01*
X0027848Y0256221D02*
X0029396Y0256221D01*
X0030172Y0255222D02*
X0027072Y0255222D01*
X0025696Y0254224D02*
X0031548Y0254224D01*
X0032341Y0253225D02*
X0024903Y0253225D01*
X0026744Y0252227D02*
X0030500Y0252227D01*
X0029532Y0251228D02*
X0027712Y0251228D01*
X0027855Y0246235D02*
X0029389Y0246235D01*
X0030157Y0245237D02*
X0027087Y0245237D01*
X0025732Y0244238D02*
X0031512Y0244238D01*
X0032377Y0243240D02*
X0024867Y0243240D01*
X0026729Y0242241D02*
X0030515Y0242241D01*
X0029538Y0241243D02*
X0027706Y0241243D01*
X0027861Y0236250D02*
X0029383Y0236250D01*
X0030142Y0235252D02*
X0027102Y0235252D01*
X0025768Y0234253D02*
X0031476Y0234253D01*
X0032413Y0233255D02*
X0024831Y0233255D01*
X0026714Y0232256D02*
X0030530Y0232256D01*
X0029544Y0231258D02*
X0027700Y0231258D01*
X0027867Y0226265D02*
X0029377Y0226265D01*
X0030127Y0225267D02*
X0027117Y0225267D01*
X0025804Y0224268D02*
X0031440Y0224268D01*
X0032449Y0223270D02*
X0024795Y0223270D01*
X0026699Y0222271D02*
X0030545Y0222271D01*
X0029550Y0221273D02*
X0027694Y0221273D01*
X0027873Y0216280D02*
X0029371Y0216280D01*
X0030112Y0215282D02*
X0027132Y0215282D01*
X0025840Y0214283D02*
X0031404Y0214283D01*
X0032485Y0213285D02*
X0024759Y0213285D01*
X0026684Y0212286D02*
X0030560Y0212286D01*
X0029561Y0211288D02*
X0027683Y0211288D01*
X0027879Y0206295D02*
X0029365Y0206295D01*
X0030097Y0205296D02*
X0027147Y0205296D01*
X0025876Y0204298D02*
X0031368Y0204298D01*
X0032521Y0203299D02*
X0024723Y0203299D01*
X0026669Y0202301D02*
X0030575Y0202301D01*
X0029576Y0201302D02*
X0027668Y0201302D01*
X0027885Y0196310D02*
X0029359Y0196310D01*
X0030082Y0195311D02*
X0027162Y0195311D01*
X0025912Y0194313D02*
X0031332Y0194313D01*
X0032557Y0193314D02*
X0024687Y0193314D01*
X0022557Y0193314D02*
X0020622Y0193314D01*
X0020622Y0194313D02*
X0021332Y0194313D01*
X0021297Y0184328D02*
X0020622Y0184328D01*
X0020622Y0183329D02*
X0022593Y0183329D01*
X0024651Y0183329D02*
X0032593Y0183329D01*
X0031297Y0184328D02*
X0025948Y0184328D01*
X0027177Y0185326D02*
X0030068Y0185326D01*
X0029352Y0186325D02*
X0027892Y0186325D01*
X0026640Y0182331D02*
X0030605Y0182331D01*
X0029606Y0181332D02*
X0027638Y0181332D01*
X0027898Y0176340D02*
X0029346Y0176340D01*
X0030053Y0175341D02*
X0027191Y0175341D01*
X0025983Y0174343D02*
X0031261Y0174343D01*
X0032629Y0173344D02*
X0024615Y0173344D01*
X0022629Y0173344D02*
X0020622Y0173344D01*
X0020622Y0174343D02*
X0021261Y0174343D01*
X0026625Y0172346D02*
X0030619Y0172346D01*
X0029621Y0171347D02*
X0027623Y0171347D01*
X0027904Y0166355D02*
X0029340Y0166355D01*
X0030038Y0165356D02*
X0027206Y0165356D01*
X0026019Y0164358D02*
X0031225Y0164358D01*
X0032665Y0163359D02*
X0024579Y0163359D01*
X0022665Y0163359D02*
X0020622Y0163359D01*
X0020622Y0162361D02*
X0020634Y0162361D01*
X0020622Y0164358D02*
X0021225Y0164358D01*
X0026610Y0162361D02*
X0030634Y0162361D01*
X0029636Y0161362D02*
X0027608Y0161362D01*
X0027910Y0156369D02*
X0029334Y0156369D01*
X0030023Y0155371D02*
X0027221Y0155371D01*
X0026055Y0154372D02*
X0031189Y0154372D01*
X0030649Y0152375D02*
X0026595Y0152375D01*
X0027593Y0151377D02*
X0029651Y0151377D01*
X0029328Y0146384D02*
X0027916Y0146384D01*
X0027236Y0145386D02*
X0030008Y0145386D01*
X0031153Y0144387D02*
X0026091Y0144387D01*
X0026580Y0142390D02*
X0030664Y0142390D01*
X0029666Y0141392D02*
X0027578Y0141392D01*
X0027922Y0136399D02*
X0029322Y0136399D01*
X0029993Y0135401D02*
X0027251Y0135401D01*
X0026127Y0134402D02*
X0031117Y0134402D01*
X0030679Y0132405D02*
X0026565Y0132405D01*
X0027564Y0131407D02*
X0029680Y0131407D01*
X0029315Y0126414D02*
X0027929Y0126414D01*
X0027266Y0125416D02*
X0029978Y0125416D01*
X0031081Y0124417D02*
X0026163Y0124417D01*
X0026550Y0122420D02*
X0030694Y0122420D01*
X0029695Y0121422D02*
X0027549Y0121422D01*
X0027935Y0116429D02*
X0029309Y0116429D01*
X0029963Y0115430D02*
X0027281Y0115430D01*
X0026199Y0114432D02*
X0031045Y0114432D01*
X0030709Y0112435D02*
X0026535Y0112435D01*
X0027534Y0111436D02*
X0029710Y0111436D01*
X0029303Y0106444D02*
X0027941Y0106444D01*
X0027296Y0105445D02*
X0029948Y0105445D01*
X0031009Y0104447D02*
X0026235Y0104447D01*
X0025405Y0103448D02*
X0031839Y0103448D01*
X0033122Y0103448D02*
X0034122Y0103448D01*
X0034122Y0103746D02*
X0034122Y0099060D01*
X0038808Y0099060D01*
X0038694Y0099778D01*
X0038441Y0100556D01*
X0038069Y0101285D01*
X0037588Y0101948D01*
X0037010Y0102526D01*
X0036347Y0103007D01*
X0035618Y0103379D01*
X0034840Y0103632D01*
X0034122Y0103746D01*
X0034122Y0102450D02*
X0033122Y0102450D01*
X0033122Y0101451D02*
X0034122Y0101451D01*
X0034122Y0100453D02*
X0033122Y0100453D01*
X0033122Y0099454D02*
X0034122Y0099454D01*
X0034122Y0098456D02*
X0041322Y0098456D01*
X0041322Y0099454D02*
X0038745Y0099454D01*
X0038475Y0100453D02*
X0041322Y0100453D01*
X0041322Y0101451D02*
X0037949Y0101451D01*
X0037086Y0102450D02*
X0041322Y0102450D01*
X0041322Y0103448D02*
X0035405Y0103448D01*
X0036235Y0104447D02*
X0041322Y0104447D01*
X0041322Y0105445D02*
X0037296Y0105445D01*
X0037941Y0106444D02*
X0041322Y0106444D01*
X0041322Y0107442D02*
X0038355Y0107442D01*
X0038422Y0108441D02*
X0041322Y0108441D01*
X0041322Y0109439D02*
X0038422Y0109439D01*
X0038040Y0110438D02*
X0041322Y0110438D01*
X0041322Y0111436D02*
X0037534Y0111436D01*
X0036535Y0112435D02*
X0041322Y0112435D01*
X0041322Y0113433D02*
X0020622Y0113433D01*
X0020622Y0112435D02*
X0020709Y0112435D01*
X0020622Y0114432D02*
X0021045Y0114432D01*
X0020694Y0122420D02*
X0020622Y0122420D01*
X0020622Y0123419D02*
X0041322Y0123419D01*
X0041322Y0124417D02*
X0036163Y0124417D01*
X0037266Y0125416D02*
X0041322Y0125416D01*
X0041322Y0126414D02*
X0037929Y0126414D01*
X0038342Y0127413D02*
X0041322Y0127413D01*
X0041322Y0128411D02*
X0038422Y0128411D01*
X0038422Y0129410D02*
X0041322Y0129410D01*
X0041322Y0130408D02*
X0038052Y0130408D01*
X0037564Y0131407D02*
X0041322Y0131407D01*
X0041322Y0132405D02*
X0036565Y0132405D01*
X0036127Y0134402D02*
X0041322Y0134402D01*
X0041322Y0133404D02*
X0020622Y0133404D01*
X0020622Y0134402D02*
X0021117Y0134402D01*
X0020679Y0132405D02*
X0020622Y0132405D01*
X0020622Y0124417D02*
X0021081Y0124417D01*
X0020664Y0142390D02*
X0020622Y0142390D01*
X0036580Y0142390D02*
X0041322Y0142390D01*
X0041322Y0141392D02*
X0037578Y0141392D01*
X0038058Y0140393D02*
X0041322Y0140393D01*
X0041322Y0139395D02*
X0038422Y0139395D01*
X0038422Y0138396D02*
X0041322Y0138396D01*
X0041322Y0137398D02*
X0038336Y0137398D01*
X0037922Y0136399D02*
X0041322Y0136399D01*
X0041322Y0135401D02*
X0037251Y0135401D01*
X0036550Y0122420D02*
X0041322Y0122420D01*
X0041322Y0121422D02*
X0037549Y0121422D01*
X0038046Y0120423D02*
X0041322Y0120423D01*
X0041322Y0119425D02*
X0038422Y0119425D01*
X0038422Y0118426D02*
X0041322Y0118426D01*
X0041322Y0117427D02*
X0038348Y0117427D01*
X0037935Y0116429D02*
X0041322Y0116429D01*
X0041322Y0115430D02*
X0037281Y0115430D01*
X0036199Y0114432D02*
X0041322Y0114432D01*
X0045922Y0114432D02*
X0051045Y0114432D01*
X0050903Y0114491D02*
X0052667Y0113760D01*
X0054577Y0113760D01*
X0056341Y0114491D01*
X0057691Y0115841D01*
X0058422Y0117605D01*
X0058422Y0119515D01*
X0057691Y0121279D01*
X0056341Y0122629D01*
X0054577Y0123360D01*
X0052667Y0123360D01*
X0050903Y0122629D01*
X0049553Y0121279D01*
X0048822Y0119515D01*
X0048822Y0117605D01*
X0049553Y0115841D01*
X0050903Y0114491D01*
X0049963Y0115430D02*
X0045922Y0115430D01*
X0045922Y0116429D02*
X0049309Y0116429D01*
X0048896Y0117427D02*
X0045922Y0117427D01*
X0045922Y0118426D02*
X0048822Y0118426D01*
X0048822Y0119425D02*
X0045922Y0119425D01*
X0045922Y0120423D02*
X0049198Y0120423D01*
X0049695Y0121422D02*
X0045922Y0121422D01*
X0045922Y0122420D02*
X0050694Y0122420D01*
X0056163Y0124417D02*
X0061081Y0124417D01*
X0060903Y0124491D02*
X0062667Y0123760D01*
X0064577Y0123760D01*
X0066341Y0124491D01*
X0067691Y0125841D01*
X0068422Y0127605D01*
X0068422Y0129515D01*
X0067691Y0131279D01*
X0066341Y0132629D01*
X0064577Y0133360D01*
X0062667Y0133360D01*
X0060903Y0132629D01*
X0059553Y0131279D01*
X0058822Y0129515D01*
X0058822Y0127605D01*
X0059553Y0125841D01*
X0060903Y0124491D01*
X0059978Y0125416D02*
X0057266Y0125416D01*
X0057929Y0126414D02*
X0059315Y0126414D01*
X0058902Y0127413D02*
X0058342Y0127413D01*
X0058422Y0128411D02*
X0058822Y0128411D01*
X0058822Y0129410D02*
X0058422Y0129410D01*
X0058052Y0130408D02*
X0059192Y0130408D01*
X0059680Y0131407D02*
X0057564Y0131407D01*
X0056565Y0132405D02*
X0060679Y0132405D01*
X0061117Y0134402D02*
X0056127Y0134402D01*
X0056341Y0134491D02*
X0057691Y0135841D01*
X0058422Y0137605D01*
X0058422Y0139515D01*
X0057691Y0141279D01*
X0056341Y0142629D01*
X0054577Y0143360D01*
X0052667Y0143360D01*
X0050903Y0142629D01*
X0049553Y0141279D01*
X0048822Y0139515D01*
X0048822Y0137605D01*
X0049553Y0135841D01*
X0050903Y0134491D01*
X0052667Y0133760D01*
X0054577Y0133760D01*
X0056341Y0134491D01*
X0057251Y0135401D02*
X0059993Y0135401D01*
X0059553Y0135841D02*
X0060903Y0134491D01*
X0062667Y0133760D01*
X0064577Y0133760D01*
X0066341Y0134491D01*
X0067691Y0135841D01*
X0068422Y0137605D01*
X0068422Y0139515D01*
X0067691Y0141279D01*
X0066341Y0142629D01*
X0064577Y0143360D01*
X0062667Y0143360D01*
X0060903Y0142629D01*
X0059553Y0141279D01*
X0058822Y0139515D01*
X0058822Y0137605D01*
X0059553Y0135841D01*
X0059322Y0136399D02*
X0057922Y0136399D01*
X0058336Y0137398D02*
X0058908Y0137398D01*
X0058822Y0138396D02*
X0058422Y0138396D01*
X0058422Y0139395D02*
X0058822Y0139395D01*
X0059186Y0140393D02*
X0058058Y0140393D01*
X0057578Y0141392D02*
X0059666Y0141392D01*
X0060664Y0142390D02*
X0056580Y0142390D01*
X0056091Y0144387D02*
X0061153Y0144387D01*
X0060903Y0144491D02*
X0062667Y0143760D01*
X0064577Y0143760D01*
X0066341Y0144491D01*
X0067691Y0145841D01*
X0068422Y0147605D01*
X0068422Y0149515D01*
X0067691Y0151279D01*
X0066341Y0152629D01*
X0064577Y0153360D01*
X0062667Y0153360D01*
X0060903Y0152629D01*
X0059553Y0151279D01*
X0058822Y0149515D01*
X0058822Y0147605D01*
X0059553Y0145841D01*
X0060903Y0144491D01*
X0060008Y0145386D02*
X0057236Y0145386D01*
X0057916Y0146384D02*
X0059328Y0146384D01*
X0058914Y0147383D02*
X0058330Y0147383D01*
X0058422Y0148381D02*
X0058822Y0148381D01*
X0058822Y0149380D02*
X0058422Y0149380D01*
X0058064Y0150378D02*
X0059180Y0150378D01*
X0059651Y0151377D02*
X0057593Y0151377D01*
X0056595Y0152375D02*
X0060649Y0152375D01*
X0061189Y0154372D02*
X0056055Y0154372D01*
X0057221Y0155371D02*
X0060023Y0155371D01*
X0059553Y0155841D02*
X0060903Y0154491D01*
X0062667Y0153760D01*
X0064577Y0153760D01*
X0066341Y0154491D01*
X0067691Y0155841D01*
X0068422Y0157605D01*
X0068422Y0159515D01*
X0067691Y0161279D01*
X0066341Y0162629D01*
X0064577Y0163360D01*
X0062667Y0163360D01*
X0060903Y0162629D01*
X0059553Y0161279D01*
X0058822Y0159515D01*
X0058822Y0157605D01*
X0059553Y0155841D01*
X0059334Y0156369D02*
X0057910Y0156369D01*
X0058324Y0157368D02*
X0058920Y0157368D01*
X0058822Y0158366D02*
X0058422Y0158366D01*
X0058422Y0159365D02*
X0058822Y0159365D01*
X0059174Y0160363D02*
X0058070Y0160363D01*
X0057608Y0161362D02*
X0059636Y0161362D01*
X0060634Y0162361D02*
X0056610Y0162361D01*
X0056019Y0164358D02*
X0061225Y0164358D01*
X0060038Y0165356D02*
X0057206Y0165356D01*
X0057904Y0166355D02*
X0059340Y0166355D01*
X0058926Y0167353D02*
X0058318Y0167353D01*
X0058422Y0168352D02*
X0058822Y0168352D01*
X0058822Y0169350D02*
X0058422Y0169350D01*
X0058077Y0170349D02*
X0059167Y0170349D01*
X0059621Y0171347D02*
X0057623Y0171347D01*
X0056625Y0172346D02*
X0060619Y0172346D01*
X0061261Y0174343D02*
X0055983Y0174343D01*
X0057191Y0175341D02*
X0060053Y0175341D01*
X0059346Y0176340D02*
X0057898Y0176340D01*
X0058311Y0177338D02*
X0058933Y0177338D01*
X0058822Y0178337D02*
X0058422Y0178337D01*
X0058422Y0179335D02*
X0058822Y0179335D01*
X0059161Y0180334D02*
X0058083Y0180334D01*
X0057638Y0181332D02*
X0059606Y0181332D01*
X0060605Y0182331D02*
X0056640Y0182331D01*
X0054615Y0173344D02*
X0062629Y0173344D01*
X0066625Y0172346D02*
X0070619Y0172346D01*
X0069621Y0171347D02*
X0067623Y0171347D01*
X0068077Y0170349D02*
X0069167Y0170349D01*
X0068822Y0169350D02*
X0068422Y0169350D01*
X0068422Y0168352D02*
X0068822Y0168352D01*
X0068926Y0167353D02*
X0068318Y0167353D01*
X0067904Y0166355D02*
X0069340Y0166355D01*
X0070038Y0165356D02*
X0067206Y0165356D01*
X0066019Y0164358D02*
X0071225Y0164358D01*
X0072665Y0163359D02*
X0064579Y0163359D01*
X0062665Y0163359D02*
X0054579Y0163359D01*
X0050664Y0142390D02*
X0045922Y0142390D01*
X0045922Y0141392D02*
X0049666Y0141392D01*
X0049186Y0140393D02*
X0045922Y0140393D01*
X0045922Y0139395D02*
X0048822Y0139395D01*
X0048822Y0138396D02*
X0045922Y0138396D01*
X0045922Y0137398D02*
X0048908Y0137398D01*
X0049322Y0136399D02*
X0045922Y0136399D01*
X0045922Y0135401D02*
X0049993Y0135401D01*
X0056550Y0122420D02*
X0060694Y0122420D01*
X0060903Y0122629D02*
X0059553Y0121279D01*
X0058822Y0119515D01*
X0058822Y0117605D01*
X0059553Y0115841D01*
X0060903Y0114491D01*
X0062667Y0113760D01*
X0064577Y0113760D01*
X0066341Y0114491D01*
X0067691Y0115841D01*
X0068422Y0117605D01*
X0068422Y0119515D01*
X0067691Y0121279D01*
X0066341Y0122629D01*
X0064577Y0123360D01*
X0062667Y0123360D01*
X0060903Y0122629D01*
X0059695Y0121422D02*
X0057549Y0121422D01*
X0058046Y0120423D02*
X0059198Y0120423D01*
X0058822Y0119425D02*
X0058422Y0119425D01*
X0058422Y0118426D02*
X0058822Y0118426D01*
X0058896Y0117427D02*
X0058348Y0117427D01*
X0057935Y0116429D02*
X0059309Y0116429D01*
X0059963Y0115430D02*
X0057281Y0115430D01*
X0056199Y0114432D02*
X0061045Y0114432D01*
X0066199Y0114432D02*
X0071045Y0114432D01*
X0069963Y0115430D02*
X0067281Y0115430D01*
X0067935Y0116429D02*
X0069309Y0116429D01*
X0068896Y0117427D02*
X0068348Y0117427D01*
X0068422Y0118426D02*
X0068822Y0118426D01*
X0068822Y0119425D02*
X0068422Y0119425D01*
X0068046Y0120423D02*
X0069198Y0120423D01*
X0069695Y0121422D02*
X0067549Y0121422D01*
X0066550Y0122420D02*
X0070694Y0122420D01*
X0071081Y0124417D02*
X0066163Y0124417D01*
X0067266Y0125416D02*
X0069978Y0125416D01*
X0069315Y0126414D02*
X0067929Y0126414D01*
X0068342Y0127413D02*
X0068902Y0127413D01*
X0068822Y0128411D02*
X0068422Y0128411D01*
X0068422Y0129410D02*
X0068822Y0129410D01*
X0069192Y0130408D02*
X0068052Y0130408D01*
X0067564Y0131407D02*
X0069680Y0131407D01*
X0070679Y0132405D02*
X0066565Y0132405D01*
X0066127Y0134402D02*
X0071117Y0134402D01*
X0069993Y0135401D02*
X0067251Y0135401D01*
X0067922Y0136399D02*
X0069322Y0136399D01*
X0068908Y0137398D02*
X0068336Y0137398D01*
X0068422Y0138396D02*
X0068822Y0138396D01*
X0068822Y0139395D02*
X0068422Y0139395D01*
X0068058Y0140393D02*
X0069186Y0140393D01*
X0069666Y0141392D02*
X0067578Y0141392D01*
X0066580Y0142390D02*
X0070664Y0142390D01*
X0071153Y0144387D02*
X0066091Y0144387D01*
X0067236Y0145386D02*
X0070008Y0145386D01*
X0069328Y0146384D02*
X0067916Y0146384D01*
X0068330Y0147383D02*
X0068914Y0147383D01*
X0068822Y0148381D02*
X0068422Y0148381D01*
X0068422Y0149380D02*
X0068822Y0149380D01*
X0069180Y0150378D02*
X0068064Y0150378D01*
X0067593Y0151377D02*
X0069651Y0151377D01*
X0070649Y0152375D02*
X0066595Y0152375D01*
X0066055Y0154372D02*
X0071189Y0154372D01*
X0070023Y0155371D02*
X0067221Y0155371D01*
X0067910Y0156369D02*
X0069334Y0156369D01*
X0068920Y0157368D02*
X0068324Y0157368D01*
X0068422Y0158366D02*
X0068822Y0158366D01*
X0068822Y0159365D02*
X0068422Y0159365D01*
X0068070Y0160363D02*
X0069174Y0160363D01*
X0069636Y0161362D02*
X0067608Y0161362D01*
X0066610Y0162361D02*
X0070634Y0162361D01*
X0074579Y0163359D02*
X0082665Y0163359D01*
X0084579Y0163359D02*
X0086622Y0163359D01*
X0086610Y0162361D02*
X0086622Y0162361D01*
X0086622Y0164358D02*
X0086019Y0164358D01*
X0086622Y0173344D02*
X0084615Y0173344D01*
X0085983Y0174343D02*
X0086622Y0174343D01*
X0086622Y0183329D02*
X0084651Y0183329D01*
X0085948Y0184328D02*
X0086622Y0184328D01*
X0086622Y0193314D02*
X0084687Y0193314D01*
X0085912Y0194313D02*
X0086622Y0194313D01*
X0086622Y0203299D02*
X0084723Y0203299D01*
X0085876Y0204298D02*
X0086622Y0204298D01*
X0086622Y0213285D02*
X0084759Y0213285D01*
X0085840Y0214283D02*
X0086622Y0214283D01*
X0086622Y0223270D02*
X0084795Y0223270D01*
X0085804Y0224268D02*
X0086622Y0224268D01*
X0086622Y0233255D02*
X0084831Y0233255D01*
X0085768Y0234253D02*
X0086622Y0234253D01*
X0086622Y0243240D02*
X0084867Y0243240D01*
X0085732Y0244238D02*
X0086622Y0244238D01*
X0086622Y0253225D02*
X0084903Y0253225D01*
X0085696Y0254224D02*
X0086622Y0254224D01*
X0086622Y0263210D02*
X0084939Y0263210D01*
X0085660Y0264209D02*
X0086622Y0264209D01*
X0086622Y0273195D02*
X0084974Y0273195D01*
X0085624Y0274194D02*
X0086622Y0274194D01*
X0086622Y0325118D02*
X0080327Y0325118D01*
X0080013Y0326116D02*
X0086622Y0326116D01*
X0086622Y0327115D02*
X0079573Y0327115D01*
X0078987Y0328113D02*
X0086622Y0328113D01*
X0086622Y0329112D02*
X0078223Y0329112D01*
X0077183Y0330110D02*
X0086622Y0330110D01*
X0086622Y0331109D02*
X0075755Y0331109D01*
X0073145Y0332107D02*
X0086622Y0332107D01*
X0030471Y0272197D02*
X0026773Y0272197D01*
X0027725Y0271198D02*
X0029519Y0271198D01*
X0021548Y0254224D02*
X0020622Y0254224D01*
X0020622Y0253225D02*
X0022341Y0253225D01*
X0021512Y0244238D02*
X0020622Y0244238D01*
X0020622Y0243240D02*
X0022377Y0243240D01*
X0021476Y0234253D02*
X0020622Y0234253D01*
X0020622Y0233255D02*
X0022413Y0233255D01*
X0021440Y0224268D02*
X0020622Y0224268D01*
X0020622Y0223270D02*
X0022449Y0223270D01*
X0021404Y0214283D02*
X0020622Y0214283D01*
X0020622Y0213285D02*
X0022485Y0213285D01*
X0021368Y0204298D02*
X0020622Y0204298D01*
X0020622Y0203299D02*
X0022521Y0203299D01*
X0026654Y0192316D02*
X0030590Y0192316D01*
X0029591Y0191317D02*
X0027653Y0191317D01*
X0021009Y0104447D02*
X0020622Y0104447D01*
X0020622Y0103448D02*
X0021839Y0103448D01*
X0023122Y0103448D02*
X0024122Y0103448D01*
X0024122Y0102450D02*
X0023122Y0102450D01*
X0023122Y0101451D02*
X0024122Y0101451D01*
X0024122Y0100453D02*
X0023122Y0100453D01*
X0023122Y0099454D02*
X0024122Y0099454D01*
X0024122Y0098456D02*
X0033122Y0098456D01*
X0033122Y0097457D02*
X0034122Y0097457D01*
X0034122Y0096459D02*
X0033122Y0096459D01*
X0033122Y0095460D02*
X0034122Y0095460D01*
X0034122Y0094462D02*
X0033122Y0094462D01*
X0033122Y0093463D02*
X0034122Y0093463D01*
X0034683Y0093463D02*
X0041322Y0093463D01*
X0041322Y0092465D02*
X0036506Y0092465D01*
X0037504Y0091466D02*
X0041322Y0091466D01*
X0041322Y0090468D02*
X0038027Y0090468D01*
X0036828Y0094462D02*
X0041322Y0094462D01*
X0041322Y0095460D02*
X0037797Y0095460D01*
X0038388Y0096459D02*
X0041322Y0096459D01*
X0041322Y0097457D02*
X0038712Y0097457D01*
X0032561Y0093463D02*
X0024683Y0093463D01*
X0024122Y0093463D02*
X0023122Y0093463D01*
X0022561Y0093463D02*
X0020622Y0093463D01*
X0020622Y0092465D02*
X0020739Y0092465D01*
X0023122Y0094462D02*
X0024122Y0094462D01*
X0024122Y0095460D02*
X0023122Y0095460D01*
X0023122Y0096459D02*
X0024122Y0096459D01*
X0024122Y0097457D02*
X0023122Y0097457D01*
X0026506Y0092465D02*
X0030739Y0092465D01*
X0029740Y0091466D02*
X0027504Y0091466D01*
X0028027Y0090468D02*
X0029217Y0090468D01*
X0030416Y0094462D02*
X0026828Y0094462D01*
X0027797Y0095460D02*
X0029447Y0095460D01*
X0028857Y0096459D02*
X0028387Y0096459D01*
X0028475Y0100453D02*
X0028769Y0100453D01*
X0029295Y0101451D02*
X0027949Y0101451D01*
X0027086Y0102450D02*
X0030158Y0102450D01*
X0029291Y0086474D02*
X0027953Y0086474D01*
X0027325Y0085475D02*
X0029919Y0085475D01*
X0030937Y0084477D02*
X0026307Y0084477D01*
X0036307Y0084477D02*
X0041322Y0084477D01*
X0041322Y0085475D02*
X0037325Y0085475D01*
X0037953Y0086474D02*
X0041322Y0086474D01*
X0050445Y0068500D02*
X0056799Y0068500D01*
X0057667Y0068860D02*
X0055903Y0068129D01*
X0054553Y0066779D01*
X0053822Y0065015D01*
X0053822Y0063105D01*
X0054553Y0061341D01*
X0055903Y0059991D01*
X0057667Y0059260D01*
X0058343Y0059260D01*
X0058343Y0024959D01*
X0056954Y0024384D01*
X0055519Y0022949D01*
X0054743Y0021074D01*
X0054743Y0019046D01*
X0055519Y0017171D01*
X0056954Y0015736D01*
X0058828Y0014960D01*
X0060857Y0014960D01*
X0062731Y0015736D01*
X0064166Y0017171D01*
X0064943Y0019046D01*
X0064943Y0021074D01*
X0064166Y0022949D01*
X0062731Y0024384D01*
X0061343Y0024959D01*
X0061343Y0059992D01*
X0062691Y0061341D01*
X0063422Y0063105D01*
X0063422Y0065015D01*
X0062691Y0066779D01*
X0061341Y0068129D01*
X0059577Y0068860D01*
X0057667Y0068860D01*
X0055276Y0067502D02*
X0051968Y0067502D01*
X0052805Y0066503D02*
X0054439Y0066503D01*
X0054025Y0065505D02*
X0053219Y0065505D01*
X0053422Y0064506D02*
X0053822Y0064506D01*
X0053822Y0063508D02*
X0053422Y0063508D01*
X0053175Y0062509D02*
X0054069Y0062509D01*
X0054482Y0061511D02*
X0052762Y0061511D01*
X0051863Y0060512D02*
X0055381Y0060512D01*
X0057054Y0059514D02*
X0050190Y0059514D01*
X0047563Y0058515D02*
X0058343Y0058515D01*
X0058343Y0057517D02*
X0047563Y0057517D01*
X0047563Y0056518D02*
X0058343Y0056518D01*
X0058343Y0055520D02*
X0047563Y0055520D01*
X0047563Y0054521D02*
X0058343Y0054521D01*
X0058343Y0053523D02*
X0047563Y0053523D01*
X0047563Y0052524D02*
X0058343Y0052524D01*
X0058343Y0051526D02*
X0047563Y0051526D01*
X0047563Y0050527D02*
X0058343Y0050527D01*
X0058343Y0049529D02*
X0047563Y0049529D01*
X0047563Y0048530D02*
X0058343Y0048530D01*
X0058343Y0047532D02*
X0047563Y0047532D01*
X0047563Y0046533D02*
X0058343Y0046533D01*
X0058343Y0045535D02*
X0047563Y0045535D01*
X0047563Y0044536D02*
X0058343Y0044536D01*
X0058343Y0043538D02*
X0047563Y0043538D01*
X0047563Y0042539D02*
X0058343Y0042539D01*
X0058343Y0041541D02*
X0047563Y0041541D01*
X0047563Y0040542D02*
X0058343Y0040542D01*
X0058343Y0039544D02*
X0047563Y0039544D01*
X0047563Y0038545D02*
X0058343Y0038545D01*
X0058343Y0037547D02*
X0047563Y0037547D01*
X0047563Y0036548D02*
X0058343Y0036548D01*
X0058343Y0035550D02*
X0047563Y0035550D01*
X0047563Y0034551D02*
X0058343Y0034551D01*
X0058343Y0033553D02*
X0047563Y0033553D01*
X0047563Y0032554D02*
X0058343Y0032554D01*
X0058343Y0031556D02*
X0047563Y0031556D01*
X0047563Y0030557D02*
X0058343Y0030557D01*
X0058343Y0029559D02*
X0047563Y0029559D01*
X0047563Y0028560D02*
X0058343Y0028560D01*
X0058343Y0027561D02*
X0047563Y0027561D01*
X0047563Y0026563D02*
X0058343Y0026563D01*
X0058343Y0025564D02*
X0047563Y0025564D01*
X0048512Y0024566D02*
X0057394Y0024566D01*
X0056137Y0023567D02*
X0049768Y0023567D01*
X0050544Y0022569D02*
X0055362Y0022569D01*
X0054948Y0021570D02*
X0050958Y0021570D01*
X0051163Y0020572D02*
X0054743Y0020572D01*
X0054743Y0019573D02*
X0051163Y0019573D01*
X0050968Y0018575D02*
X0054937Y0018575D01*
X0055351Y0017576D02*
X0050554Y0017576D01*
X0049793Y0016578D02*
X0056112Y0016578D01*
X0057333Y0015579D02*
X0048573Y0015579D01*
X0061343Y0025564D02*
X0086622Y0025564D01*
X0086622Y0024566D02*
X0079039Y0024566D01*
X0079020Y0024639D02*
X0078822Y0024981D01*
X0078543Y0025260D01*
X0078201Y0025458D01*
X0077820Y0025560D01*
X0074122Y0025560D01*
X0074122Y0020560D01*
X0073122Y0020560D01*
X0073122Y0019560D01*
X0068122Y0019560D01*
X0068122Y0015862D01*
X0068224Y0015481D01*
X0068422Y0015139D01*
X0068701Y0014860D01*
X0069043Y0014662D01*
X0069425Y0014560D01*
X0073122Y0014560D01*
X0073122Y0019560D01*
X0074122Y0019560D01*
X0074122Y0014560D01*
X0077820Y0014560D01*
X0078201Y0014662D01*
X0078543Y0014860D01*
X0078822Y0015139D01*
X0079020Y0015481D01*
X0079122Y0015862D01*
X0079122Y0019560D01*
X0074122Y0019560D01*
X0074122Y0020560D01*
X0079122Y0020560D01*
X0079122Y0024257D01*
X0079020Y0024639D01*
X0079122Y0023567D02*
X0086622Y0023567D01*
X0086622Y0022569D02*
X0079122Y0022569D01*
X0079122Y0021570D02*
X0086622Y0021570D01*
X0086622Y0020572D02*
X0079122Y0020572D01*
X0079122Y0018575D02*
X0086622Y0018575D01*
X0086622Y0019573D02*
X0074122Y0019573D01*
X0074122Y0018575D02*
X0073122Y0018575D01*
X0073122Y0019573D02*
X0064943Y0019573D01*
X0064943Y0020572D02*
X0068122Y0020572D01*
X0068122Y0020560D02*
X0073122Y0020560D01*
X0073122Y0025560D01*
X0069425Y0025560D01*
X0069043Y0025458D01*
X0068701Y0025260D01*
X0068422Y0024981D01*
X0068224Y0024639D01*
X0068122Y0024257D01*
X0068122Y0020560D01*
X0068122Y0021570D02*
X0064737Y0021570D01*
X0064323Y0022569D02*
X0068122Y0022569D01*
X0068122Y0023567D02*
X0063548Y0023567D01*
X0062291Y0024566D02*
X0068205Y0024566D01*
X0068122Y0018575D02*
X0064748Y0018575D01*
X0064334Y0017576D02*
X0068122Y0017576D01*
X0068122Y0016578D02*
X0063573Y0016578D01*
X0062352Y0015579D02*
X0068198Y0015579D01*
X0069347Y0014581D02*
X0020622Y0014581D01*
X0020622Y0013582D02*
X0086622Y0013582D01*
X0086622Y0012584D02*
X0020622Y0012584D01*
X0020622Y0011585D02*
X0086622Y0011585D01*
X0086622Y0010587D02*
X0020622Y0010587D01*
X0061343Y0026563D02*
X0086622Y0026563D01*
X0086622Y0027561D02*
X0061343Y0027561D01*
X0061343Y0028560D02*
X0086622Y0028560D01*
X0086622Y0029559D02*
X0061343Y0029559D01*
X0061343Y0030557D02*
X0086622Y0030557D01*
X0086622Y0031556D02*
X0061343Y0031556D01*
X0061343Y0032554D02*
X0086622Y0032554D01*
X0086622Y0033553D02*
X0061343Y0033553D01*
X0061343Y0034551D02*
X0086622Y0034551D01*
X0086622Y0035550D02*
X0061343Y0035550D01*
X0061343Y0036548D02*
X0086622Y0036548D01*
X0086622Y0037547D02*
X0061343Y0037547D01*
X0061343Y0038545D02*
X0086622Y0038545D01*
X0086622Y0039544D02*
X0061343Y0039544D01*
X0061343Y0040542D02*
X0086622Y0040542D01*
X0086622Y0041541D02*
X0061343Y0041541D01*
X0061343Y0042539D02*
X0086622Y0042539D01*
X0086622Y0043538D02*
X0061343Y0043538D01*
X0061343Y0044536D02*
X0086622Y0044536D01*
X0086622Y0045535D02*
X0061343Y0045535D01*
X0061343Y0046533D02*
X0086622Y0046533D01*
X0086622Y0047532D02*
X0061343Y0047532D01*
X0061343Y0048530D02*
X0086622Y0048530D01*
X0086622Y0049529D02*
X0061343Y0049529D01*
X0061343Y0050527D02*
X0086622Y0050527D01*
X0086622Y0051526D02*
X0061343Y0051526D01*
X0061343Y0052524D02*
X0086622Y0052524D01*
X0086622Y0053523D02*
X0061343Y0053523D01*
X0061343Y0054521D02*
X0086622Y0054521D01*
X0086622Y0055520D02*
X0061343Y0055520D01*
X0061343Y0056518D02*
X0086622Y0056518D01*
X0086622Y0057517D02*
X0061343Y0057517D01*
X0061343Y0058515D02*
X0086622Y0058515D01*
X0086622Y0059514D02*
X0073566Y0059514D01*
X0073522Y0059439D02*
X0073720Y0059781D01*
X0073822Y0060162D01*
X0073822Y0063560D01*
X0069122Y0063560D01*
X0069122Y0058860D01*
X0072520Y0058860D01*
X0072901Y0058962D01*
X0073243Y0059160D01*
X0073522Y0059439D01*
X0073822Y0060512D02*
X0086622Y0060512D01*
X0086622Y0061511D02*
X0073822Y0061511D01*
X0073822Y0062509D02*
X0086622Y0062509D01*
X0086622Y0063508D02*
X0073822Y0063508D01*
X0073822Y0064560D02*
X0073822Y0067957D01*
X0073720Y0068339D01*
X0073522Y0068681D01*
X0073243Y0068960D01*
X0072901Y0069158D01*
X0072520Y0069260D01*
X0069122Y0069260D01*
X0069122Y0064560D01*
X0068122Y0064560D01*
X0068122Y0063560D01*
X0063422Y0063560D01*
X0063422Y0060162D01*
X0063524Y0059781D01*
X0063722Y0059439D01*
X0064001Y0059160D01*
X0064343Y0058962D01*
X0064725Y0058860D01*
X0068122Y0058860D01*
X0068122Y0063560D01*
X0069122Y0063560D01*
X0069122Y0064560D01*
X0073822Y0064560D01*
X0073822Y0065505D02*
X0086622Y0065505D01*
X0086622Y0066503D02*
X0073822Y0066503D01*
X0073822Y0067502D02*
X0086622Y0067502D01*
X0086622Y0068500D02*
X0073627Y0068500D01*
X0069122Y0068500D02*
X0068122Y0068500D01*
X0068122Y0069260D02*
X0068122Y0064560D01*
X0063422Y0064560D01*
X0063422Y0067957D01*
X0063524Y0068339D01*
X0063722Y0068681D01*
X0064001Y0068960D01*
X0064343Y0069158D01*
X0064725Y0069260D01*
X0068122Y0069260D01*
X0068122Y0067502D02*
X0069122Y0067502D01*
X0069122Y0066503D02*
X0068122Y0066503D01*
X0068122Y0065505D02*
X0069122Y0065505D01*
X0069122Y0064506D02*
X0086622Y0064506D01*
X0084122Y0094462D02*
X0083122Y0094462D01*
X0083122Y0095460D02*
X0084122Y0095460D01*
X0084122Y0096459D02*
X0083122Y0096459D01*
X0083122Y0097457D02*
X0084122Y0097457D01*
X0085405Y0103448D02*
X0086622Y0103448D01*
X0086622Y0104447D02*
X0086235Y0104447D01*
X0081009Y0104447D02*
X0076235Y0104447D01*
X0077296Y0105445D02*
X0079948Y0105445D01*
X0079303Y0106444D02*
X0077941Y0106444D01*
X0077534Y0111436D02*
X0079710Y0111436D01*
X0080709Y0112435D02*
X0076535Y0112435D01*
X0076199Y0114432D02*
X0081045Y0114432D01*
X0079963Y0115430D02*
X0077281Y0115430D01*
X0077935Y0116429D02*
X0079309Y0116429D01*
X0079695Y0121422D02*
X0077549Y0121422D01*
X0076550Y0122420D02*
X0080694Y0122420D01*
X0086055Y0154372D02*
X0086622Y0154372D01*
X0063618Y0068500D02*
X0060445Y0068500D01*
X0061968Y0067502D02*
X0063422Y0067502D01*
X0063422Y0066503D02*
X0062805Y0066503D01*
X0063219Y0065505D02*
X0063422Y0065505D01*
X0063422Y0064506D02*
X0068122Y0064506D01*
X0068122Y0063508D02*
X0069122Y0063508D01*
X0069122Y0062509D02*
X0068122Y0062509D01*
X0068122Y0061511D02*
X0069122Y0061511D01*
X0069122Y0060512D02*
X0068122Y0060512D01*
X0068122Y0059514D02*
X0069122Y0059514D01*
X0063679Y0059514D02*
X0061343Y0059514D01*
X0061863Y0060512D02*
X0063422Y0060512D01*
X0063422Y0061511D02*
X0062762Y0061511D01*
X0063175Y0062509D02*
X0063422Y0062509D01*
X0063422Y0063508D02*
X0063422Y0063508D01*
X0073122Y0024566D02*
X0074122Y0024566D01*
X0074122Y0023567D02*
X0073122Y0023567D01*
X0073122Y0022569D02*
X0074122Y0022569D01*
X0074122Y0021570D02*
X0073122Y0021570D01*
X0073122Y0020572D02*
X0074122Y0020572D01*
X0074122Y0017576D02*
X0073122Y0017576D01*
X0073122Y0016578D02*
X0074122Y0016578D01*
X0074122Y0015579D02*
X0073122Y0015579D01*
X0073122Y0014581D02*
X0074122Y0014581D01*
X0077897Y0014581D02*
X0086622Y0014581D01*
X0086622Y0015579D02*
X0079046Y0015579D01*
X0079122Y0016578D02*
X0086622Y0016578D01*
X0086622Y0017576D02*
X0079122Y0017576D01*
D19*
X0046622Y0288560D03*
D20*
X0048259Y0293923D02*
X0043622Y0298560D01*
X0043622Y0313560D01*
X0033622Y0323560D01*
X0033622Y0305056D02*
X0033622Y0293560D01*
X0043622Y0283560D01*
X0043622Y0088560D01*
X0043622Y0073560D01*
X0038622Y0068560D01*
X0038622Y0064060D01*
X0032283Y0057721D01*
X0032283Y0020060D01*
X0048259Y0293923D02*
X0071122Y0293923D01*
D21*
X0058622Y0064060D02*
X0059843Y0062840D01*
X0059843Y0020060D01*
X0046063Y0020060D02*
X0046063Y0061501D01*
X0048622Y0064060D01*
M02*
