G75*
%MOIN*%
%OFA0B0*%
%FSLAX25Y25*%
%IPPOS*%
%LPD*%
%AMOC8*
5,1,8,0,0,1.08239X$1,22.5*
%
%ADD10C,0.07900*%
%ADD11R,0.08500X0.08500*%
%ADD12C,0.08500*%
%ADD13C,0.17098*%
%ADD14C,0.16700*%
%ADD15C,0.11425*%
%ADD16R,0.01500X0.04700*%
%ADD17R,0.04437X0.04831*%
%ADD18R,0.07900X0.07900*%
D10*
X0038622Y0064060D03*
X0048622Y0064060D03*
X0058622Y0064060D03*
X0073622Y0088560D03*
X0073622Y0098560D03*
X0073622Y0108560D03*
X0073622Y0118560D03*
X0073622Y0128560D03*
X0073622Y0138560D03*
X0073622Y0148560D03*
X0073622Y0158560D03*
X0073622Y0168560D03*
X0073622Y0178560D03*
X0073622Y0188560D03*
X0073622Y0198560D03*
X0073622Y0208560D03*
X0073622Y0218560D03*
X0073622Y0228560D03*
X0073622Y0238560D03*
X0073622Y0248560D03*
X0073622Y0258560D03*
X0073622Y0268560D03*
X0073622Y0278560D03*
X0063622Y0278560D03*
X0063622Y0268560D03*
X0063622Y0258560D03*
X0063622Y0248560D03*
X0063622Y0238560D03*
X0063622Y0228560D03*
X0063622Y0218560D03*
X0063622Y0208560D03*
X0063622Y0198560D03*
X0063622Y0188560D03*
X0063622Y0178560D03*
X0063622Y0168560D03*
X0063622Y0158560D03*
X0063622Y0148560D03*
X0063622Y0138560D03*
X0063622Y0128560D03*
X0063622Y0118560D03*
X0053622Y0118560D03*
X0053622Y0128560D03*
X0053622Y0138560D03*
X0053622Y0148560D03*
X0053622Y0158560D03*
X0053622Y0168560D03*
X0053622Y0178560D03*
X0053622Y0188560D03*
X0053622Y0198560D03*
X0053622Y0208560D03*
X0053622Y0218560D03*
X0053622Y0228560D03*
X0053622Y0238560D03*
X0053622Y0248560D03*
X0053622Y0258560D03*
X0053622Y0268560D03*
X0053622Y0278560D03*
X0033622Y0278560D03*
X0033622Y0268560D03*
X0033622Y0258560D03*
X0033622Y0248560D03*
X0033622Y0238560D03*
X0033622Y0228560D03*
X0033622Y0218560D03*
X0033622Y0208560D03*
X0033622Y0198560D03*
X0033622Y0188560D03*
X0033622Y0178560D03*
X0033622Y0168560D03*
X0033622Y0158560D03*
X0033622Y0148560D03*
X0033622Y0138560D03*
X0033622Y0128560D03*
X0033622Y0118560D03*
X0033622Y0108560D03*
X0033622Y0098560D03*
X0033622Y0088560D03*
X0023622Y0088560D03*
X0023622Y0098560D03*
X0023622Y0108560D03*
X0023622Y0118560D03*
X0023622Y0128560D03*
X0023622Y0138560D03*
X0023622Y0148560D03*
X0023622Y0158560D03*
X0023622Y0168560D03*
X0023622Y0178560D03*
X0023622Y0188560D03*
X0023622Y0198560D03*
X0023622Y0208560D03*
X0023622Y0218560D03*
X0023622Y0228560D03*
X0023622Y0238560D03*
X0023622Y0248560D03*
X0023622Y0258560D03*
X0023622Y0268560D03*
X0023622Y0278560D03*
X0083622Y0278560D03*
X0083622Y0268560D03*
X0083622Y0258560D03*
X0083622Y0248560D03*
X0083622Y0238560D03*
X0083622Y0228560D03*
X0083622Y0218560D03*
X0083622Y0208560D03*
X0083622Y0198560D03*
X0083622Y0188560D03*
X0083622Y0178560D03*
X0083622Y0168560D03*
X0083622Y0158560D03*
X0083622Y0148560D03*
X0083622Y0138560D03*
X0083622Y0128560D03*
X0083622Y0118560D03*
X0083622Y0108560D03*
X0083622Y0098560D03*
X0083622Y0088560D03*
D11*
X0073622Y0020060D03*
D12*
X0032283Y0020060D03*
X0046063Y0020060D03*
X0059843Y0020060D03*
D13*
X0071122Y0293923D03*
D14*
X0071022Y0322745D03*
X0056313Y0306434D03*
D15*
X0033622Y0305056D03*
X0033622Y0323560D03*
X0033622Y0342064D03*
D16*
X0051622Y0104160D03*
X0053622Y0104160D03*
X0055622Y0104160D03*
X0057622Y0104160D03*
X0057622Y0092960D03*
X0055622Y0092960D03*
X0053622Y0092960D03*
X0051622Y0092960D03*
D17*
X0045122Y0094906D03*
X0045122Y0088214D03*
X0045122Y0102214D03*
X0045122Y0108906D03*
D18*
X0068622Y0064060D03*
M02*
