%
M48
M72
T01C0.02362
T02C0.04000
T03C0.04724
T04C0.07283
T05C0.11800
T06C0.12598
%
T01
X46622Y288560
T02
X53622Y278560
X53622Y268560
X53622Y258560
X53622Y248560
X53622Y238560
X53622Y228560
X53622Y218560
X53622Y208560
X53622Y198560
X53622Y188560
X53622Y178560
X53622Y168560
X53622Y158560
X53622Y148560
X53622Y138560
X53622Y128560
X53622Y118560
X63622Y118560
X63622Y128560
X63622Y138560
X63622Y148560
X63622Y158560
X63622Y168560
X63622Y178560
X63622Y188560
X63622Y198560
X63622Y208560
X63622Y218560
X63622Y228560
X63622Y238560
X63622Y248560
X63622Y258560
X63622Y268560
X63622Y278560
X73622Y278560
X73622Y268560
X73622Y258560
X73622Y248560
X73622Y238560
X73622Y228560
X73622Y218560
X73622Y208560
X73622Y198560
X73622Y188560
X73622Y178560
X73622Y168560
X73622Y158560
X73622Y148560
X73622Y138560
X73622Y128560
X73622Y118560
X73622Y108560
X73622Y98560
X73622Y88560
X83622Y88560
X83622Y98560
X83622Y108560
X83622Y118560
X83622Y128560
X83622Y138560
X83622Y148560
X83622Y158560
X83622Y168560
X83622Y178560
X83622Y188560
X83622Y198560
X83622Y208560
X83622Y218560
X83622Y228560
X83622Y238560
X83622Y248560
X83622Y258560
X83622Y268560
X83622Y278560
X33622Y278560
X33622Y268560
X33622Y258560
X33622Y248560
X33622Y238560
X33622Y228560
X33622Y218560
X33622Y208560
X33622Y198560
X33622Y188560
X33622Y178560
X33622Y168560
X33622Y158560
X33622Y148560
X33622Y138560
X33622Y128560
X33622Y118560
X33622Y108560
X33622Y98560
X33622Y88560
X23622Y88560
X23622Y98560
X23622Y108560
X23622Y118560
X23622Y128560
X23622Y138560
X23622Y148560
X23622Y158560
X23622Y168560
X23622Y178560
X23622Y188560
X23622Y198560
X23622Y208560
X23622Y218560
X23622Y228560
X23622Y238560
X23622Y248560
X23622Y258560
X23622Y268560
X23622Y278560
X38622Y64060
X48622Y64060
X58622Y64060
X68622Y64060
T03
X32283Y20060
X46063Y20060
X59843Y20060
X73622Y20060
T04
X33622Y305056
X33622Y323560
X33622Y342064
T05
X56313Y306434
X71022Y322745
T06
X71122Y293923
M30
