G75*
%MOIN*%
%OFA0B0*%
%FSLAX25Y25*%
%IPPOS*%
%LPD*%
%AMOC8*
5,1,8,0,0,1.08239X$1,22.5*
%
%ADD10C,0.00000*%
%ADD11C,0.00500*%
%ADD12C,0.00800*%
%ADD13C,0.01200*%
%ADD14C,0.00600*%
%ADD15C,0.00300*%
%ADD16C,0.01500*%
D10*
X0018622Y0008560D02*
X0018622Y0348560D01*
X0088622Y0348560D01*
X0088622Y0008560D01*
X0018622Y0008560D01*
D11*
X0027540Y0037894D02*
X0027540Y0040229D01*
X0026372Y0039061D02*
X0028707Y0039061D01*
X0030055Y0039061D02*
X0031223Y0039645D01*
X0031807Y0039645D01*
X0032391Y0039061D01*
X0032391Y0037894D01*
X0031807Y0037310D01*
X0030639Y0037310D01*
X0030055Y0037894D01*
X0030055Y0039061D02*
X0030055Y0040813D01*
X0032391Y0040813D01*
X0033738Y0040813D02*
X0033738Y0038478D01*
X0034906Y0037310D01*
X0036074Y0038478D01*
X0036074Y0040813D01*
X0034906Y0048810D02*
X0036074Y0049978D01*
X0036074Y0052313D01*
X0033738Y0052313D02*
X0033738Y0049978D01*
X0034906Y0048810D01*
X0032391Y0049394D02*
X0032391Y0050561D01*
X0031807Y0051145D01*
X0031223Y0051145D01*
X0030055Y0050561D01*
X0030055Y0052313D01*
X0032391Y0052313D01*
X0032391Y0049394D02*
X0031807Y0048810D01*
X0030639Y0048810D01*
X0030055Y0049394D01*
X0028707Y0050561D02*
X0026372Y0050561D01*
X0027540Y0051729D02*
X0027540Y0049394D01*
X0040372Y0053810D02*
X0040372Y0057313D01*
X0042707Y0053810D01*
X0042707Y0057313D01*
X0044055Y0055561D02*
X0044639Y0056145D01*
X0045807Y0056145D01*
X0046391Y0055561D01*
X0046391Y0054978D01*
X0044055Y0054978D01*
X0044055Y0055561D02*
X0044055Y0054394D01*
X0044639Y0053810D01*
X0045807Y0053810D01*
X0046223Y0052313D02*
X0047391Y0051145D01*
X0047391Y0048810D01*
X0047391Y0050561D02*
X0045055Y0050561D01*
X0045055Y0051145D02*
X0046223Y0052313D01*
X0045055Y0051145D02*
X0045055Y0048810D01*
X0043707Y0049394D02*
X0043707Y0051729D01*
X0043124Y0052313D01*
X0041372Y0052313D01*
X0041372Y0048810D01*
X0043124Y0048810D01*
X0043707Y0049394D01*
X0042872Y0045813D02*
X0044624Y0045813D01*
X0045207Y0045229D01*
X0045207Y0042894D01*
X0044624Y0042310D01*
X0042872Y0042310D01*
X0042872Y0045813D01*
X0043124Y0040813D02*
X0041372Y0040813D01*
X0041372Y0037310D01*
X0043124Y0037310D01*
X0043707Y0037894D01*
X0043707Y0040229D01*
X0043124Y0040813D01*
X0045055Y0039645D02*
X0046223Y0040813D01*
X0047391Y0039645D01*
X0047391Y0037310D01*
X0047391Y0039061D02*
X0045055Y0039061D01*
X0045055Y0039645D02*
X0045055Y0037310D01*
X0047139Y0042310D02*
X0046555Y0042894D01*
X0046555Y0044061D01*
X0047139Y0044645D01*
X0048307Y0044645D01*
X0048891Y0044061D01*
X0048891Y0042894D01*
X0048307Y0042310D01*
X0047139Y0042310D01*
X0048738Y0040813D02*
X0051074Y0040813D01*
X0049906Y0040813D02*
X0049906Y0037310D01*
X0051406Y0042310D02*
X0050822Y0042894D01*
X0050822Y0045229D01*
X0050238Y0044645D02*
X0051406Y0044645D01*
X0052694Y0044645D02*
X0053278Y0044061D01*
X0054445Y0044061D01*
X0055029Y0043478D01*
X0055029Y0042894D01*
X0054445Y0042310D01*
X0053278Y0042310D01*
X0052694Y0042894D01*
X0052694Y0044645D02*
X0052694Y0045229D01*
X0053278Y0045813D01*
X0054445Y0045813D01*
X0055029Y0045229D01*
X0056377Y0044645D02*
X0057545Y0044645D01*
X0056961Y0045229D02*
X0056961Y0042894D01*
X0057545Y0042310D01*
X0058832Y0042894D02*
X0059416Y0043478D01*
X0061168Y0043478D01*
X0061168Y0044061D02*
X0061168Y0042310D01*
X0059416Y0042310D01*
X0058832Y0042894D01*
X0059416Y0044645D02*
X0060584Y0044645D01*
X0061168Y0044061D01*
X0062515Y0043478D02*
X0063683Y0044645D01*
X0064267Y0044645D01*
X0062515Y0044645D02*
X0062515Y0042310D01*
X0063738Y0040813D02*
X0063738Y0037310D01*
X0063738Y0038478D02*
X0066074Y0040813D01*
X0064322Y0039061D02*
X0066074Y0037310D01*
X0062391Y0037310D02*
X0060055Y0037310D01*
X0060055Y0040813D01*
X0058707Y0040229D02*
X0058124Y0040813D01*
X0056956Y0040813D01*
X0056372Y0040229D01*
X0056372Y0037894D01*
X0056956Y0037310D01*
X0058124Y0037310D01*
X0058707Y0037894D01*
X0057560Y0053810D02*
X0059895Y0056145D01*
X0061243Y0055561D02*
X0061827Y0056145D01*
X0062995Y0056145D01*
X0063579Y0055561D01*
X0063579Y0054978D01*
X0061243Y0054978D01*
X0061243Y0055561D02*
X0061243Y0054394D01*
X0061827Y0053810D01*
X0062995Y0053810D01*
X0064926Y0053810D02*
X0066094Y0053810D01*
X0065510Y0053810D02*
X0065510Y0057313D01*
X0064926Y0057313D01*
X0059895Y0053810D02*
X0057560Y0056145D01*
X0055688Y0056145D02*
X0055688Y0053810D01*
X0055105Y0053810D02*
X0056272Y0053810D01*
X0055688Y0056145D02*
X0055105Y0056145D01*
X0055688Y0057313D02*
X0055688Y0057897D01*
X0053757Y0056729D02*
X0053757Y0055561D01*
X0053173Y0054978D01*
X0051421Y0054978D01*
X0051421Y0053810D02*
X0051421Y0057313D01*
X0053173Y0057313D01*
X0053757Y0056729D01*
X0051074Y0052313D02*
X0048738Y0052313D01*
X0049906Y0052313D02*
X0049906Y0048810D01*
X0049490Y0053810D02*
X0048322Y0053810D01*
X0047738Y0054394D01*
X0047738Y0055561D01*
X0048322Y0056145D01*
X0049490Y0056145D01*
X0050074Y0055561D01*
X0050074Y0054394D01*
X0049490Y0053810D01*
X0070372Y0051729D02*
X0070372Y0049394D01*
X0070956Y0048810D01*
X0072124Y0048810D01*
X0072707Y0049394D01*
X0072707Y0050561D01*
X0071540Y0050561D01*
X0072707Y0051729D02*
X0072124Y0052313D01*
X0070956Y0052313D01*
X0070372Y0051729D01*
X0074055Y0052313D02*
X0074055Y0048810D01*
X0076391Y0048810D02*
X0074055Y0052313D01*
X0076391Y0052313D02*
X0076391Y0048810D01*
X0077738Y0048810D02*
X0077738Y0052313D01*
X0079490Y0052313D01*
X0080074Y0051729D01*
X0080074Y0049394D01*
X0079490Y0048810D01*
X0077738Y0048810D01*
X0077738Y0040813D02*
X0079490Y0040813D01*
X0080074Y0040229D01*
X0080074Y0037894D01*
X0079490Y0037310D01*
X0077738Y0037310D01*
X0077738Y0040813D01*
X0076391Y0040813D02*
X0076391Y0037310D01*
X0074055Y0040813D01*
X0074055Y0037310D01*
X0072707Y0037894D02*
X0072707Y0039061D01*
X0071540Y0039061D01*
X0072707Y0037894D02*
X0072124Y0037310D01*
X0070956Y0037310D01*
X0070372Y0037894D01*
X0070372Y0040229D01*
X0070956Y0040813D01*
X0072124Y0040813D01*
X0072707Y0040229D01*
X0044872Y0121810D02*
X0041369Y0121810D01*
X0041369Y0124145D01*
X0042537Y0125493D02*
X0044288Y0125493D01*
X0044872Y0126077D01*
X0044872Y0127828D01*
X0042537Y0127828D01*
X0042537Y0129176D02*
X0042537Y0130928D01*
X0043121Y0131512D01*
X0044288Y0131512D01*
X0044872Y0130928D01*
X0044872Y0129176D01*
X0041369Y0129176D01*
X0042537Y0133443D02*
X0042537Y0134611D01*
X0043121Y0135195D01*
X0044872Y0135195D01*
X0044872Y0133443D01*
X0044288Y0132859D01*
X0043704Y0133443D01*
X0043704Y0135195D01*
X0043704Y0136543D02*
X0042537Y0137710D01*
X0042537Y0138294D01*
X0042537Y0139612D02*
X0042537Y0140196D01*
X0044872Y0140196D01*
X0044872Y0139612D02*
X0044872Y0140780D01*
X0044872Y0142067D02*
X0042537Y0142067D01*
X0042537Y0143819D01*
X0043121Y0144403D01*
X0044872Y0144403D01*
X0044288Y0145750D02*
X0044872Y0146334D01*
X0044872Y0147502D01*
X0044288Y0148086D01*
X0043121Y0148086D01*
X0042537Y0147502D01*
X0042537Y0146334D01*
X0043121Y0145750D01*
X0044288Y0145750D01*
X0041369Y0140196D02*
X0040785Y0140196D01*
X0042537Y0136543D02*
X0044872Y0136543D01*
X0043121Y0122978D02*
X0043121Y0121810D01*
X0044872Y0153117D02*
X0041369Y0153117D01*
X0042537Y0154284D01*
X0041369Y0155452D01*
X0044872Y0155452D01*
X0044872Y0156800D02*
X0044872Y0157968D01*
X0044872Y0157384D02*
X0042537Y0157384D01*
X0042537Y0156800D01*
X0041369Y0157384D02*
X0040785Y0157384D01*
X0042537Y0159255D02*
X0042537Y0161007D01*
X0043121Y0161591D01*
X0044872Y0161591D01*
X0044872Y0162938D02*
X0044872Y0164106D01*
X0044872Y0163522D02*
X0042537Y0163522D01*
X0042537Y0162938D01*
X0041369Y0163522D02*
X0040785Y0163522D01*
X0042537Y0159255D02*
X0044872Y0159255D01*
X0055639Y0286810D02*
X0055055Y0287394D01*
X0055639Y0286810D02*
X0056807Y0286810D01*
X0057391Y0287394D01*
X0057391Y0288561D01*
X0056807Y0289145D01*
X0056223Y0289145D01*
X0055055Y0288561D01*
X0055055Y0290313D01*
X0057391Y0290313D01*
X0058738Y0290313D02*
X0058738Y0287978D01*
X0059906Y0286810D01*
X0061074Y0287978D01*
X0061074Y0290313D01*
X0053707Y0288561D02*
X0051372Y0288561D01*
X0052540Y0289729D02*
X0052540Y0287394D01*
X0047126Y0298560D02*
X0020118Y0298560D01*
X0020118Y0348560D01*
X0047126Y0348560D01*
X0047126Y0298560D01*
X0043123Y0295313D02*
X0043123Y0291810D01*
X0040788Y0295313D01*
X0040788Y0291810D01*
X0039440Y0292394D02*
X0039440Y0294729D01*
X0038856Y0295313D01*
X0037688Y0295313D01*
X0037105Y0294729D01*
X0037105Y0292394D01*
X0037688Y0291810D01*
X0038856Y0291810D01*
X0039440Y0292394D01*
X0032074Y0291810D02*
X0030906Y0292978D01*
X0031490Y0292978D02*
X0029738Y0292978D01*
X0029738Y0291810D02*
X0029738Y0295313D01*
X0031490Y0295313D01*
X0032074Y0294729D01*
X0032074Y0293561D01*
X0031490Y0292978D01*
X0028391Y0291810D02*
X0028391Y0295313D01*
X0026055Y0295313D02*
X0026055Y0291810D01*
X0027223Y0292978D01*
X0028391Y0291810D01*
X0024707Y0293561D02*
X0024124Y0292978D01*
X0022372Y0292978D01*
X0022372Y0291810D02*
X0022372Y0295313D01*
X0024124Y0295313D01*
X0024707Y0294729D01*
X0024707Y0293561D01*
D12*
X0026122Y0283560D02*
X0021122Y0283560D01*
X0018622Y0281060D01*
X0018622Y0276060D01*
X0021122Y0273560D01*
X0018622Y0271060D01*
X0018622Y0266060D01*
X0021122Y0263560D01*
X0018622Y0261060D01*
X0018622Y0256060D01*
X0021122Y0253560D01*
X0018622Y0251060D01*
X0018622Y0246060D01*
X0021122Y0243560D01*
X0018622Y0241060D01*
X0018622Y0236060D01*
X0021122Y0233560D01*
X0018622Y0231060D01*
X0018622Y0226060D01*
X0021122Y0223560D01*
X0018622Y0221060D01*
X0018622Y0216060D01*
X0021122Y0213560D01*
X0018622Y0211060D01*
X0018622Y0206060D01*
X0021122Y0203560D01*
X0018622Y0201060D01*
X0018622Y0196060D01*
X0021122Y0193560D01*
X0018622Y0191060D01*
X0018622Y0186060D01*
X0021122Y0183560D01*
X0018622Y0181060D01*
X0018622Y0176060D01*
X0021122Y0173560D01*
X0018622Y0171060D01*
X0018622Y0166060D01*
X0021122Y0163560D01*
X0018622Y0161060D01*
X0018622Y0156060D01*
X0021122Y0153560D01*
X0018622Y0151060D01*
X0018622Y0146060D01*
X0021122Y0143560D01*
X0018622Y0141060D01*
X0018622Y0136060D01*
X0021122Y0133560D01*
X0018622Y0131060D01*
X0018622Y0126060D01*
X0021122Y0123560D01*
X0018622Y0121060D01*
X0018622Y0116060D01*
X0021122Y0113560D01*
X0018622Y0111060D01*
X0018622Y0106060D01*
X0021122Y0103560D01*
X0018622Y0101060D01*
X0018622Y0096060D01*
X0021122Y0093560D01*
X0018622Y0091060D01*
X0018622Y0086060D01*
X0021122Y0083560D01*
X0026122Y0083560D01*
X0028622Y0086060D01*
X0028622Y0091060D01*
X0031122Y0093560D01*
X0028622Y0096060D01*
X0028622Y0101060D01*
X0031122Y0103560D01*
X0028622Y0106060D01*
X0028622Y0111060D01*
X0031122Y0113560D01*
X0028622Y0116060D01*
X0028622Y0121060D01*
X0031122Y0123560D01*
X0028622Y0126060D01*
X0028622Y0131060D01*
X0031122Y0133560D01*
X0028622Y0136060D01*
X0028622Y0141060D01*
X0031122Y0143560D01*
X0028622Y0146060D01*
X0028622Y0151060D01*
X0031122Y0153560D01*
X0028622Y0156060D01*
X0028622Y0161060D01*
X0031122Y0163560D01*
X0028622Y0166060D01*
X0028622Y0171060D01*
X0031122Y0173560D01*
X0028622Y0176060D01*
X0028622Y0181060D01*
X0031122Y0183560D01*
X0028622Y0186060D01*
X0028622Y0191060D01*
X0031122Y0193560D01*
X0028622Y0196060D01*
X0028622Y0201060D01*
X0031122Y0203560D01*
X0028622Y0206060D01*
X0028622Y0211060D01*
X0031122Y0213560D01*
X0028622Y0216060D01*
X0028622Y0221060D01*
X0031122Y0223560D01*
X0028622Y0226060D01*
X0028622Y0231060D01*
X0031122Y0233560D01*
X0028622Y0236060D01*
X0028622Y0241060D01*
X0031122Y0243560D01*
X0028622Y0246060D01*
X0028622Y0251060D01*
X0031122Y0253560D01*
X0028622Y0256060D01*
X0028622Y0261060D01*
X0031122Y0263560D01*
X0028622Y0266060D01*
X0028622Y0271060D01*
X0031122Y0273560D01*
X0028622Y0276060D01*
X0028622Y0281060D01*
X0031122Y0283560D01*
X0036122Y0283560D01*
X0038622Y0281060D01*
X0038622Y0276060D01*
X0036122Y0273560D01*
X0038622Y0271060D01*
X0038622Y0266060D01*
X0036122Y0263560D01*
X0038622Y0261060D01*
X0038622Y0256060D01*
X0036122Y0253560D01*
X0038622Y0251060D01*
X0038622Y0246060D01*
X0036122Y0243560D01*
X0038622Y0241060D01*
X0038622Y0236060D01*
X0036122Y0233560D01*
X0038622Y0231060D01*
X0038622Y0226060D01*
X0036122Y0223560D01*
X0038622Y0221060D01*
X0038622Y0216060D01*
X0036122Y0213560D01*
X0038622Y0211060D01*
X0038622Y0206060D01*
X0036122Y0203560D01*
X0038622Y0201060D01*
X0038622Y0196060D01*
X0036122Y0193560D01*
X0038622Y0191060D01*
X0038622Y0186060D01*
X0036122Y0183560D01*
X0038622Y0181060D01*
X0038622Y0176060D01*
X0036122Y0173560D01*
X0038622Y0171060D01*
X0038622Y0166060D01*
X0036122Y0163560D01*
X0038622Y0161060D01*
X0038622Y0156060D01*
X0036122Y0153560D01*
X0038622Y0151060D01*
X0038622Y0146060D01*
X0036122Y0143560D01*
X0038622Y0141060D01*
X0038622Y0136060D01*
X0036122Y0133560D01*
X0038622Y0131060D01*
X0038622Y0126060D01*
X0036122Y0123560D01*
X0038622Y0121060D01*
X0038622Y0116060D01*
X0036122Y0113560D01*
X0038622Y0111060D01*
X0038622Y0106060D01*
X0036122Y0103560D01*
X0038622Y0101060D01*
X0038622Y0096060D01*
X0036122Y0093560D01*
X0038622Y0091060D01*
X0038622Y0086060D01*
X0036122Y0083560D01*
X0031122Y0083560D01*
X0028622Y0086060D01*
X0028622Y0091060D01*
X0026122Y0093560D01*
X0028622Y0096060D01*
X0028622Y0101060D01*
X0026122Y0103560D01*
X0028622Y0106060D01*
X0028622Y0111060D01*
X0026122Y0113560D01*
X0028622Y0116060D01*
X0028622Y0121060D01*
X0026122Y0123560D01*
X0028622Y0126060D01*
X0028622Y0131060D01*
X0026122Y0133560D01*
X0028622Y0136060D01*
X0028622Y0141060D01*
X0026122Y0143560D01*
X0028622Y0146060D01*
X0028622Y0151060D01*
X0026122Y0153560D01*
X0028622Y0156060D01*
X0028622Y0161060D01*
X0026122Y0163560D01*
X0028622Y0166060D01*
X0028622Y0171060D01*
X0026122Y0173560D01*
X0028622Y0176060D01*
X0028622Y0181060D01*
X0026122Y0183560D01*
X0028622Y0186060D01*
X0028622Y0191060D01*
X0026122Y0193560D01*
X0028622Y0196060D01*
X0028622Y0201060D01*
X0026122Y0203560D01*
X0028622Y0206060D01*
X0028622Y0211060D01*
X0026122Y0213560D01*
X0028622Y0216060D01*
X0028622Y0221060D01*
X0026122Y0223560D01*
X0028622Y0226060D01*
X0028622Y0231060D01*
X0026122Y0233560D01*
X0028622Y0236060D01*
X0028622Y0241060D01*
X0026122Y0243560D01*
X0028622Y0246060D01*
X0028622Y0251060D01*
X0026122Y0253560D01*
X0028622Y0256060D01*
X0028622Y0261060D01*
X0026122Y0263560D01*
X0028622Y0266060D01*
X0028622Y0271060D01*
X0026122Y0273560D01*
X0028622Y0276060D01*
X0028622Y0281060D01*
X0026122Y0283560D01*
X0018622Y0283560D02*
X0088622Y0283560D01*
X0086122Y0283560D02*
X0088622Y0281060D01*
X0088622Y0276060D01*
X0086122Y0273560D01*
X0088622Y0271060D01*
X0088622Y0266060D01*
X0086122Y0263560D01*
X0088622Y0261060D01*
X0088622Y0256060D01*
X0086122Y0253560D01*
X0088622Y0251060D01*
X0088622Y0246060D01*
X0086122Y0243560D01*
X0088622Y0241060D01*
X0088622Y0236060D01*
X0086122Y0233560D01*
X0088622Y0231060D01*
X0088622Y0226060D01*
X0086122Y0223560D01*
X0088622Y0221060D01*
X0088622Y0216060D01*
X0086122Y0213560D01*
X0088622Y0211060D01*
X0088622Y0206060D01*
X0086122Y0203560D01*
X0088622Y0201060D01*
X0088622Y0196060D01*
X0086122Y0193560D01*
X0088622Y0191060D01*
X0088622Y0186060D01*
X0086122Y0183560D01*
X0088622Y0181060D01*
X0088622Y0176060D01*
X0086122Y0173560D01*
X0088622Y0171060D01*
X0088622Y0166060D01*
X0086122Y0163560D01*
X0088622Y0161060D01*
X0088622Y0156060D01*
X0086122Y0153560D01*
X0088622Y0151060D01*
X0088622Y0146060D01*
X0086122Y0143560D01*
X0088622Y0141060D01*
X0088622Y0136060D01*
X0086122Y0133560D01*
X0088622Y0131060D01*
X0088622Y0126060D01*
X0086122Y0123560D01*
X0088622Y0121060D01*
X0088622Y0116060D01*
X0086122Y0113560D01*
X0088622Y0111060D01*
X0088622Y0106060D01*
X0086122Y0103560D01*
X0088622Y0101060D01*
X0088622Y0096060D01*
X0086122Y0093560D01*
X0088622Y0091060D01*
X0088622Y0086060D01*
X0086122Y0083560D01*
X0081122Y0083560D01*
X0078622Y0086060D01*
X0078622Y0091060D01*
X0076122Y0093560D01*
X0078622Y0096060D01*
X0078622Y0101060D01*
X0076122Y0103560D01*
X0078622Y0106060D01*
X0078622Y0111060D01*
X0076122Y0113560D01*
X0078622Y0116060D01*
X0078622Y0121060D01*
X0076122Y0123560D01*
X0078622Y0126060D01*
X0078622Y0131060D01*
X0076122Y0133560D01*
X0078622Y0136060D01*
X0078622Y0141060D01*
X0076122Y0143560D01*
X0078622Y0146060D01*
X0078622Y0151060D01*
X0076122Y0153560D01*
X0078622Y0156060D01*
X0078622Y0161060D01*
X0076122Y0163560D01*
X0078622Y0166060D01*
X0078622Y0171060D01*
X0076122Y0173560D01*
X0078622Y0176060D01*
X0078622Y0181060D01*
X0076122Y0183560D01*
X0078622Y0186060D01*
X0078622Y0191060D01*
X0076122Y0193560D01*
X0078622Y0196060D01*
X0078622Y0201060D01*
X0076122Y0203560D01*
X0078622Y0206060D01*
X0078622Y0211060D01*
X0076122Y0213560D01*
X0078622Y0216060D01*
X0078622Y0221060D01*
X0076122Y0223560D01*
X0078622Y0226060D01*
X0078622Y0231060D01*
X0076122Y0233560D01*
X0078622Y0236060D01*
X0078622Y0241060D01*
X0076122Y0243560D01*
X0078622Y0246060D01*
X0078622Y0251060D01*
X0076122Y0253560D01*
X0078622Y0256060D01*
X0078622Y0261060D01*
X0076122Y0263560D01*
X0078622Y0266060D01*
X0078622Y0271060D01*
X0076122Y0273560D01*
X0078622Y0276060D01*
X0078622Y0281060D01*
X0076122Y0283560D01*
X0071122Y0283560D01*
X0068622Y0281060D01*
X0068622Y0276060D01*
X0066122Y0273560D01*
X0068622Y0271060D01*
X0068622Y0266060D01*
X0066122Y0263560D01*
X0068622Y0261060D01*
X0068622Y0256060D01*
X0066122Y0253560D01*
X0068622Y0251060D01*
X0068622Y0246060D01*
X0066122Y0243560D01*
X0068622Y0241060D01*
X0068622Y0236060D01*
X0066122Y0233560D01*
X0068622Y0231060D01*
X0068622Y0226060D01*
X0066122Y0223560D01*
X0068622Y0221060D01*
X0068622Y0216060D01*
X0066122Y0213560D01*
X0068622Y0211060D01*
X0068622Y0206060D01*
X0066122Y0203560D01*
X0068622Y0201060D01*
X0068622Y0196060D01*
X0066122Y0193560D01*
X0068622Y0191060D01*
X0068622Y0186060D01*
X0066122Y0183560D01*
X0068622Y0181060D01*
X0068622Y0176060D01*
X0066122Y0173560D01*
X0068622Y0171060D01*
X0068622Y0166060D01*
X0066122Y0163560D01*
X0068622Y0161060D01*
X0068622Y0156060D01*
X0066122Y0153560D01*
X0068622Y0151060D01*
X0068622Y0146060D01*
X0066122Y0143560D01*
X0068622Y0141060D01*
X0068622Y0136060D01*
X0066122Y0133560D01*
X0068622Y0131060D01*
X0068622Y0126060D01*
X0066122Y0123560D01*
X0068622Y0121060D01*
X0068622Y0116060D01*
X0066122Y0113560D01*
X0061122Y0113560D01*
X0058622Y0116060D01*
X0058622Y0121060D01*
X0056122Y0123560D01*
X0058622Y0126060D01*
X0058622Y0131060D01*
X0056122Y0133560D01*
X0058622Y0136060D01*
X0058622Y0141060D01*
X0056122Y0143560D01*
X0058622Y0146060D01*
X0058622Y0151060D01*
X0056122Y0153560D01*
X0058622Y0156060D01*
X0058622Y0161060D01*
X0056122Y0163560D01*
X0058622Y0166060D01*
X0058622Y0171060D01*
X0056122Y0173560D01*
X0058622Y0176060D01*
X0058622Y0181060D01*
X0056122Y0183560D01*
X0058622Y0186060D01*
X0058622Y0191060D01*
X0056122Y0193560D01*
X0058622Y0196060D01*
X0058622Y0201060D01*
X0056122Y0203560D01*
X0058622Y0206060D01*
X0058622Y0211060D01*
X0056122Y0213560D01*
X0058622Y0216060D01*
X0058622Y0221060D01*
X0056122Y0223560D01*
X0058622Y0226060D01*
X0058622Y0231060D01*
X0056122Y0233560D01*
X0058622Y0236060D01*
X0058622Y0241060D01*
X0056122Y0243560D01*
X0058622Y0246060D01*
X0058622Y0251060D01*
X0056122Y0253560D01*
X0058622Y0256060D01*
X0058622Y0261060D01*
X0056122Y0263560D01*
X0058622Y0266060D01*
X0058622Y0271060D01*
X0056122Y0273560D01*
X0058622Y0276060D01*
X0058622Y0281060D01*
X0056122Y0283560D01*
X0051122Y0283560D01*
X0048622Y0281060D01*
X0048622Y0276060D01*
X0051122Y0273560D01*
X0048622Y0271060D01*
X0048622Y0266060D01*
X0051122Y0263560D01*
X0048622Y0261060D01*
X0048622Y0256060D01*
X0051122Y0253560D01*
X0048622Y0251060D01*
X0048622Y0246060D01*
X0051122Y0243560D01*
X0048622Y0241060D01*
X0048622Y0236060D01*
X0051122Y0233560D01*
X0048622Y0231060D01*
X0048622Y0226060D01*
X0051122Y0223560D01*
X0048622Y0221060D01*
X0048622Y0216060D01*
X0051122Y0213560D01*
X0048622Y0211060D01*
X0048622Y0206060D01*
X0051122Y0203560D01*
X0048622Y0201060D01*
X0048622Y0196060D01*
X0051122Y0193560D01*
X0048622Y0191060D01*
X0048622Y0186060D01*
X0051122Y0183560D01*
X0048622Y0181060D01*
X0048622Y0176060D01*
X0051122Y0173560D01*
X0048622Y0171060D01*
X0048622Y0166060D01*
X0051122Y0163560D01*
X0048622Y0161060D01*
X0048622Y0156060D01*
X0051122Y0153560D01*
X0048622Y0151060D01*
X0048622Y0146060D01*
X0051122Y0143560D01*
X0048622Y0141060D01*
X0048622Y0136060D01*
X0051122Y0133560D01*
X0048622Y0131060D01*
X0048622Y0126060D01*
X0051122Y0123560D01*
X0048622Y0121060D01*
X0048622Y0116060D01*
X0051122Y0113560D01*
X0056122Y0113560D01*
X0058622Y0116060D01*
X0058622Y0121060D01*
X0061122Y0123560D01*
X0058622Y0126060D01*
X0058622Y0131060D01*
X0061122Y0133560D01*
X0058622Y0136060D01*
X0058622Y0141060D01*
X0061122Y0143560D01*
X0058622Y0146060D01*
X0058622Y0151060D01*
X0061122Y0153560D01*
X0058622Y0156060D01*
X0058622Y0161060D01*
X0061122Y0163560D01*
X0058622Y0166060D01*
X0058622Y0171060D01*
X0061122Y0173560D01*
X0058622Y0176060D01*
X0058622Y0181060D01*
X0061122Y0183560D01*
X0058622Y0186060D01*
X0058622Y0191060D01*
X0061122Y0193560D01*
X0058622Y0196060D01*
X0058622Y0201060D01*
X0061122Y0203560D01*
X0058622Y0206060D01*
X0058622Y0211060D01*
X0061122Y0213560D01*
X0058622Y0216060D01*
X0058622Y0221060D01*
X0061122Y0223560D01*
X0058622Y0226060D01*
X0058622Y0231060D01*
X0061122Y0233560D01*
X0058622Y0236060D01*
X0058622Y0241060D01*
X0061122Y0243560D01*
X0058622Y0246060D01*
X0058622Y0251060D01*
X0061122Y0253560D01*
X0058622Y0256060D01*
X0058622Y0261060D01*
X0061122Y0263560D01*
X0058622Y0266060D01*
X0058622Y0271060D01*
X0061122Y0273560D01*
X0058622Y0276060D01*
X0058622Y0281060D01*
X0061122Y0283560D01*
X0066122Y0283560D01*
X0068622Y0281060D01*
X0068622Y0276060D01*
X0071122Y0273560D01*
X0068622Y0271060D01*
X0068622Y0266060D01*
X0071122Y0263560D01*
X0068622Y0261060D01*
X0068622Y0256060D01*
X0071122Y0253560D01*
X0068622Y0251060D01*
X0068622Y0246060D01*
X0071122Y0243560D01*
X0068622Y0241060D01*
X0068622Y0236060D01*
X0071122Y0233560D01*
X0068622Y0231060D01*
X0068622Y0226060D01*
X0071122Y0223560D01*
X0068622Y0221060D01*
X0068622Y0216060D01*
X0071122Y0213560D01*
X0068622Y0211060D01*
X0068622Y0206060D01*
X0071122Y0203560D01*
X0068622Y0201060D01*
X0068622Y0196060D01*
X0071122Y0193560D01*
X0068622Y0191060D01*
X0068622Y0186060D01*
X0071122Y0183560D01*
X0068622Y0181060D01*
X0068622Y0176060D01*
X0071122Y0173560D01*
X0068622Y0171060D01*
X0068622Y0166060D01*
X0071122Y0163560D01*
X0068622Y0161060D01*
X0068622Y0156060D01*
X0071122Y0153560D01*
X0068622Y0151060D01*
X0068622Y0146060D01*
X0071122Y0143560D01*
X0068622Y0141060D01*
X0068622Y0136060D01*
X0071122Y0133560D01*
X0068622Y0131060D01*
X0068622Y0126060D01*
X0071122Y0123560D01*
X0068622Y0121060D01*
X0068622Y0116060D01*
X0071122Y0113560D01*
X0068622Y0111060D01*
X0068622Y0106060D01*
X0071122Y0103560D01*
X0068622Y0101060D01*
X0068622Y0096060D01*
X0071122Y0093560D01*
X0068622Y0091060D01*
X0068622Y0086060D01*
X0071122Y0083560D01*
X0076122Y0083560D01*
X0078622Y0086060D01*
X0078622Y0091060D01*
X0081122Y0093560D01*
X0078622Y0096060D01*
X0078622Y0101060D01*
X0081122Y0103560D01*
X0078622Y0106060D01*
X0078622Y0111060D01*
X0081122Y0113560D01*
X0078622Y0116060D01*
X0078622Y0121060D01*
X0081122Y0123560D01*
X0078622Y0126060D01*
X0078622Y0131060D01*
X0081122Y0133560D01*
X0078622Y0136060D01*
X0078622Y0141060D01*
X0081122Y0143560D01*
X0078622Y0146060D01*
X0078622Y0151060D01*
X0081122Y0153560D01*
X0078622Y0156060D01*
X0078622Y0161060D01*
X0081122Y0163560D01*
X0078622Y0166060D01*
X0078622Y0171060D01*
X0081122Y0173560D01*
X0078622Y0176060D01*
X0078622Y0181060D01*
X0081122Y0183560D01*
X0078622Y0186060D01*
X0078622Y0191060D01*
X0081122Y0193560D01*
X0078622Y0196060D01*
X0078622Y0201060D01*
X0081122Y0203560D01*
X0078622Y0206060D01*
X0078622Y0211060D01*
X0081122Y0213560D01*
X0078622Y0216060D01*
X0078622Y0221060D01*
X0081122Y0223560D01*
X0078622Y0226060D01*
X0078622Y0231060D01*
X0081122Y0233560D01*
X0078622Y0236060D01*
X0078622Y0241060D01*
X0081122Y0243560D01*
X0078622Y0246060D01*
X0078622Y0251060D01*
X0081122Y0253560D01*
X0078622Y0256060D01*
X0078622Y0261060D01*
X0081122Y0263560D01*
X0078622Y0266060D01*
X0078622Y0271060D01*
X0081122Y0273560D01*
X0078622Y0276060D01*
X0078622Y0281060D01*
X0081122Y0283560D01*
X0086122Y0283560D01*
X0088239Y0292423D02*
X0080571Y0292423D01*
X0088239Y0292423D02*
X0088239Y0335749D01*
X0054006Y0335749D01*
X0054006Y0315883D01*
X0054006Y0297379D02*
X0054006Y0292423D01*
X0061673Y0292423D01*
X0068622Y0083560D02*
X0038622Y0083560D01*
X0038622Y0073560D01*
X0068622Y0073560D01*
X0068622Y0083560D01*
X0088622Y0083560D01*
X0080622Y0055060D02*
X0068122Y0055060D01*
X0066122Y0059060D02*
X0063622Y0061560D01*
X0061122Y0059060D01*
X0056122Y0059060D01*
X0053622Y0061560D01*
X0051122Y0059060D01*
X0046122Y0059060D01*
X0043622Y0061560D01*
X0041122Y0059060D01*
X0036122Y0059060D01*
X0033622Y0061560D01*
X0033622Y0066560D01*
X0036122Y0069060D01*
X0041122Y0069060D01*
X0043622Y0066560D01*
X0046122Y0069060D01*
X0051122Y0069060D01*
X0053622Y0066560D01*
X0056122Y0069060D01*
X0061122Y0069060D01*
X0063622Y0066560D01*
X0066122Y0069060D01*
X0071122Y0069060D01*
X0073622Y0066560D01*
X0073622Y0061560D01*
X0071122Y0059060D01*
X0066122Y0059060D01*
X0066622Y0043060D02*
X0080622Y0043060D01*
X0083622Y0040060D01*
X0083622Y0036060D01*
X0023122Y0036060D01*
X0023122Y0040060D01*
X0026122Y0043060D01*
X0040622Y0043060D01*
X0038622Y0055060D02*
X0026622Y0055060D01*
X0023122Y0051560D01*
X0023122Y0047560D01*
X0083622Y0047560D01*
X0083622Y0052060D01*
X0080622Y0055060D01*
X0080512Y0034233D02*
X0080512Y0031084D01*
X0025394Y0031084D01*
X0025394Y0034233D01*
X0080512Y0034233D01*
X0080512Y0031084D02*
X0080512Y0006674D01*
X0025394Y0006674D01*
X0025394Y0031084D01*
X0018622Y0083560D02*
X0038622Y0083560D01*
D13*
X0078622Y0082560D02*
X0088122Y0082560D01*
X0088122Y0093560D01*
X0078622Y0093560D01*
X0078622Y0082560D01*
D14*
X0058722Y0096160D02*
X0058722Y0100960D01*
X0050522Y0100960D02*
X0050522Y0099760D01*
X0050522Y0097360D01*
X0050522Y0096160D01*
X0050522Y0097360D02*
X0050591Y0097362D01*
X0050659Y0097368D01*
X0050727Y0097378D01*
X0050794Y0097391D01*
X0050860Y0097409D01*
X0050925Y0097430D01*
X0050989Y0097455D01*
X0051051Y0097483D01*
X0051112Y0097515D01*
X0051171Y0097550D01*
X0051227Y0097589D01*
X0051282Y0097631D01*
X0051333Y0097676D01*
X0051383Y0097724D01*
X0051429Y0097774D01*
X0051472Y0097827D01*
X0051513Y0097883D01*
X0051550Y0097940D01*
X0051583Y0098000D01*
X0051614Y0098062D01*
X0051640Y0098125D01*
X0051663Y0098189D01*
X0051683Y0098255D01*
X0051698Y0098322D01*
X0051710Y0098389D01*
X0051718Y0098457D01*
X0051722Y0098526D01*
X0051722Y0098594D01*
X0051718Y0098663D01*
X0051710Y0098731D01*
X0051698Y0098798D01*
X0051683Y0098865D01*
X0051663Y0098931D01*
X0051640Y0098995D01*
X0051614Y0099058D01*
X0051583Y0099120D01*
X0051550Y0099180D01*
X0051513Y0099237D01*
X0051472Y0099293D01*
X0051429Y0099346D01*
X0051383Y0099396D01*
X0051333Y0099444D01*
X0051282Y0099489D01*
X0051227Y0099531D01*
X0051171Y0099570D01*
X0051112Y0099605D01*
X0051051Y0099637D01*
X0050989Y0099665D01*
X0050925Y0099690D01*
X0050860Y0099711D01*
X0050794Y0099729D01*
X0050727Y0099742D01*
X0050659Y0099752D01*
X0050591Y0099758D01*
X0050522Y0099760D01*
D15*
X0050288Y0092946D02*
X0047152Y0089810D01*
X0047152Y0091378D02*
X0050288Y0091378D01*
X0050288Y0089810D02*
X0047152Y0092946D01*
X0048720Y0092946D02*
X0048720Y0089810D01*
D16*
X0045232Y0091560D02*
X0045012Y0091560D01*
X0045012Y0105560D02*
X0045232Y0105560D01*
M02*
